<?xml version="1.0" encoding="UTF-8"?> <svg xmlns="http://www.w3.org/2000/svg" id="Layer_2" viewBox="0 0 681.79 147.52"><defs><style>.cls-1{fill:#f26921;stroke-width:0px;}</style></defs><g id="Layer_1-2"><path class="cls-1" d="m73.16,52.84c-8.17,0-14.92.83-20.46,2.51,3.35,2.47,6.72,5.44,9.94,8.98,4.72,5.19,8.5,9.97,11.12,13.46v-24.99h0c-.2.02-.4.04-.6.04"></path><path class="cls-1" d="m42.54,60.38c-5.39,4.25-8.03,10.33-8.03,18.42,0,7.06,4.02,12.8,10.49,14.99,3.7,1.25,7.77,1.15,11.79-.28,3.81-1.36,7.49-3.93,10.78-7.5-2.35-3.27-6.61-8.89-12.22-15.06-4.15-4.56-8.58-8-12.81-10.57"></path><path class="cls-1" d="m139.98,101.73c-3.62,8.56-8.8,16.24-15.4,22.84-6.6,6.6-14.29,11.78-22.84,15.4-8.86,3.75-18.27,5.65-27.97,5.65h0v-51.83c-6.89,6.98-15.16,10.75-23.38,10.75-2.88,0-5.74-.46-8.54-1.41-10.44-3.53-17.18-13.08-17.18-24.32,0-9.41,2.87-17.21,8.42-23.09-6.25-2.42-10.7-2.9-10.79-2.91l.98-9.8c.55.06,8.73.95,18.94,5.97.6-.31,1.2-.6,1.82-.89,7.58-3.43,17.11-5.1,29.13-5.1.2,0,.41.02.6.04V1.9s0,0,0,0c9.7,0,19.11,1.9,27.97,5.65,8.56,3.62,16.24,8.8,22.84,15.4,6.6,6.6,11.78,14.29,15.4,22.84,3.75,8.86,5.65,18.27,5.65,27.97s-1.9,19.11-5.65,27.97m7.33-33.65c-.1-1.25-.22-2.49-.38-3.72-1.02-8-3.31-15.6-6.68-22.58-2.07-4.3-4.55-8.37-7.38-12.15-.35-.47-.71-.94-1.08-1.41-.73-.93-1.48-1.84-2.25-2.73-2.32-2.68-4.83-5.18-7.5-7.5-.89-.77-1.8-1.52-2.73-2.25-.46-.37-.93-.72-1.41-1.08-3.79-2.83-7.85-5.31-12.15-7.38-6.99-3.37-14.59-5.66-22.58-6.68-1.23-.16-2.47-.28-3.72-.38-1.87-.14-3.77-.22-5.68-.22,0,0,0,0,0,0C68.66,0,63.69.52,58.89,1.5c-.9.18-1.79.39-2.68.6-.89.22-1.77.45-2.64.7-2.92.83-5.76,1.83-8.52,3-1.1.47-2.19.96-3.27,1.48-1.07.52-2.14,1.06-3.18,1.63-1.57.85-3.1,1.76-4.6,2.72-.5.32-.99.65-1.48.98-.98.66-1.95,1.35-2.89,2.06-.47.35-.94.71-1.41,1.08-.93.73-1.84,1.48-2.73,2.25-.89.77-1.77,1.57-2.62,2.38-1.71,1.63-3.34,3.34-4.88,5.12-1.55,1.78-3.01,3.64-4.38,5.57-1.03,1.45-2.01,2.93-2.93,4.45-.62,1.01-1.21,2.04-1.78,3.09-.57,1.04-1.11,2.11-1.63,3.18-.26.54-.51,1.08-.76,1.62-.43.95-.84,1.92-1.23,2.89-.39.97-.76,1.96-1.11,2.95-.17.5-.34,1-.51,1.5-.33,1-.64,2.02-.92,3.04-.14.51-.28,1.02-.41,1.54-.15.59-.3,1.18-.43,1.78-.55,2.38-.98,4.8-1.3,7.26-.16,1.23-.28,2.47-.38,3.72-.14,1.87-.21,3.77-.21,5.68,0,40.73,33.02,73.75,73.75,73.76h0c1.91,0,3.8-.07,5.68-.21,1.25-.1,2.49-.22,3.72-.38,2.46-.31,4.88-.75,7.26-1.3.6-.14,1.19-.28,1.78-.43.52-.13,1.03-.27,1.54-.41,1.02-.29,2.04-.6,3.04-.92.5-.16,1-.33,1.5-.51.99-.35,1.98-.72,2.95-1.11.97-.39,1.94-.8,2.89-1.23.54-.25,1.09-.5,1.62-.76,1.07-.52,2.14-1.06,3.18-1.63,1.05-.57,2.07-1.16,3.09-1.78,1.52-.92,3.01-1.9,4.45-2.93,1.93-1.37,3.79-2.83,5.57-4.38,1.78-1.55,3.49-3.18,5.12-4.88.81-.85,1.61-1.73,2.38-2.62.77-.89,1.52-1.8,2.25-2.73.37-.46.72-.93,1.08-1.41.71-.95,1.39-1.91,2.06-2.89.33-.49.66-.98.98-1.48.96-1.5,1.87-3.03,2.72-4.6.57-1.05,1.11-2.11,1.63-3.18.52-1.07,1.01-2.16,1.48-3.27,1.17-2.76,2.17-5.6,3-8.52.25-.87.48-1.76.7-2.64.22-.89.42-1.78.6-2.68.98-4.8,1.5-9.77,1.5-14.86,0-1.91-.07-3.8-.21-5.68"></path><path class="cls-1" d="m79.95,86.02c2.35-3.27,6.61-8.89,12.22-15.06,4.14-4.55,8.58-7.98,12.83-10.56,5.38,4.25,8.01,10.33,8.01,18.4,0,7.06-4.02,12.8-10.49,14.99-3.7,1.25-7.77,1.16-11.79-.28-3.81-1.36-7.49-3.93-10.78-7.5m25.73,17.11c10.44-3.53,17.18-13.08,17.18-24.32,0-9.4-2.87-17.19-8.39-23.06,6.24-2.41,10.7-2.93,10.79-2.94l-.51-4.9-.49-4.9c-.55.06-8.73.95-18.94,5.97-.6-.31-1.2-.6-1.83-.89-7.58-3.43-17.11-5.1-29.13-5.1-.2,0-.41.02-.6.04v9.77c.2.02.4.04.6.04,8.17,0,14.92.83,20.46,2.51-3.35,2.47-6.72,5.44-9.94,8.98-4.72,5.19-8.5,9.97-11.12,13.46v16c6.89,6.98,15.16,10.75,23.38,10.75,2.88,0,5.75-.46,8.54-1.41"></path><path class="cls-1" d="m607.65,109.16c-7.45,0-13.12,5.6-13.12,14.24s5.4,14.3,14.43,14.3c3.69,0,6.52-.79,10.02-3.36l-2.04-2.97c-1.98,1.58-4.35,2.83-7.97,2.83-6.26,0-10.48-3.62-10.48-10.21h21.42c.07-.53.07-2.04,0-3.3-.46-6.99-5.27-11.53-12.26-11.53Zm-8.96,11.67c.86-5.4,4.55-8.37,9.03-8.37s8.37,2.77,8.63,8.37h-17.66Z"></path><path class="cls-1" d="m515.32,109.16c-7.84,0-14.17,5.14-14.17,14.3s6.33,14.23,14.17,14.23,14.17-5.07,14.17-14.17-6.26-14.37-14.17-14.37Zm-.07,25.04c-5.6,0-10.15-3.76-10.15-10.74s4.55-10.74,10.15-10.74,10.21,3.82,10.21,10.81-4.48,10.68-10.21,10.68Z"></path><path class="cls-1" d="m403.94,122.28c0,7.32,4.28,12.92,12.26,12.92,3.62,0,7.84-1.52,9.82-5.4v3.69c0,9.42-5.01,10.41-9.62,10.41-2.57,0-6-.66-9.03-2.9l-2.24,2.97c4.15,3.16,8.5,3.56,11.6,3.56,6.72,0,13.18-2.31,13.18-14.57v-19.38c-3.69-2.77-7.51-4.42-12.39-4.42-8.7,0-13.58,5.8-13.58,13.12Zm22.08-7.12v5.21c0,8.44-5.34,11.27-9.42,11.27-5.87,0-8.63-3.95-8.63-9.23s3.43-9.69,9.69-9.69c4.02,0,6.66,1.12,8.37,2.44Z"></path><path class="cls-1" d="m330.26,112c-1.38-1.05-4.81-2.83-9.36-2.83-8.37,0-13.44,6.33-13.44,14.3s4.22,14.17,12.32,14.17c3.76,0,8.57-1.91,10.48-6.79v6.33h3.95v-41.32l-3.95.86v15.29Zm0,9.29c0,9.49-5.67,12.79-9.95,12.79-5.93,0-8.83-4.48-8.83-10.48s3.56-10.87,9.89-10.87c4.22,0,7.18,1.78,8.9,3.23v5.34Z"></path><path class="cls-1" d="m210.58,114.24c4.41-.59,7.18-3.49,7.18-7.97,0-7.51-6.52-9.89-15.75-9.89h-7.51v40.79h9.16c10.74,0,17.6-2.83,17.6-11.99,0-6.66-3.82-10.21-10.68-10.94Zm-11.73-14.43h3.62c7.18,0,10.94,1.65,10.87,6.66,0,4.48-2.7,6.33-10.61,6.33h-3.89v-12.98Zm5.87,33.68h-5.87v-17.2h5.21c9.56,0,12.79,3.3,12.79,8.7-.13,5.93-3.49,8.5-12.13,8.5Z"></path><path class="cls-1" d="m671.9,12.09v24.22s-6-3.56-13.11-3.56c-13.56,0-22.22,10.67-22.22,24s7.11,23.67,20.56,23.67c6.89,0,12.22-3.89,14.78-8.56v8h9.89V9.97l-9.89,2.11Zm0,40.67c0,11.67-5.56,18.78-13.45,18.78s-11.78-6.22-11.78-14.45,4.89-15.56,13.45-15.56c6.67,0,10.67,3.44,11.78,4.33v6.89Z"></path><path class="cls-1" d="m575.22,32.75c-13.33,0-24,8.78-24,24s10.67,23.89,24,23.89,24-8.67,24-23.78-10.56-24.11-24-24.11Zm-.11,39.11c-7.56,0-13.89-5.33-13.89-15.11s6.33-15.22,13.89-15.22,14,5.56,14,15.33-6.11,15-14,15Z"></path><path class="cls-1" d="m469.77,71.87v8h9.89v-39.56c-1.56-1.22-8.78-7.56-21.78-7.56-15.22,0-23.67,10.67-23.67,24s7.33,23.67,21.34,23.67c6.89,0,11.67-3.89,14.22-8.56Zm-13.11-.33c-8.67,0-12.22-6.22-12.22-14.45s4.67-15.56,13.89-15.56c6.78,0,10.33,2.22,11.45,3.11v8.11c0,11.67-5.11,18.78-13.11,18.78Z"></path><path class="cls-1" d="m319.31,70.09c-3.33,2.67-7.33,4.78-13.45,4.78-10.56,0-17.67-6.11-17.67-17.22h36.11c.11-.89.11-3.45,0-5.56-.78-11.78-8.89-19.45-20.67-19.45-12.56,0-22.11,9.44-22.11,24s9.11,24.11,24.34,24.11c6.22,0,11-1.33,16.89-5.67l-3.44-5Zm-15.56-31.89c7.89,0,14.11,4.67,14.56,14.11h-29.78c1.44-9.11,7.67-14.11,15.22-14.11Z"></path><path class="cls-1" d="m632.23,41.76c.78-3.22,1-5.78,1.67-9-1-.11-1.67-.11-2.67-.11-5.22,0-10.22,2.89-11.78,7.78v-7h-10v46.45h10v-20.11c0-9.78,1.44-18,12-18h.78Z"></path><path class="cls-1" d="m548.11,33.31h-10.22v-6.33c0-6.11,1.89-8.56,6.78-8.56,1.22,0,2.89.11,5.33.67l1.56-8.33c-3.33-.56-6.22-.78-8.11-.78-8.78,0-15.67,3.89-15.67,17v6.33h-5.78l-2.22,8.33h8.11v38.23h10v-38.23h10.22v-8.33Z"></path><path class="cls-1" d="m505,79.87v-38.23h10.22v-8.33h-10.22v-6.33c0-6.11,1.89-8.56,6.78-8.56,1.22,0,2.89.11,5.33.67l1.56-8.33c-3.33-.56-6.22-.78-8.11-.78-8.78,0-15.67,3.89-15.67,17v6.33h-5.78l-2.22,8.33h8.11v38.23h10Z"></path><path class="cls-1" d="m417.65,62.65v-20.89h11.56v-8.33h-11.56v-11.56l-10.11,2.22v9.33h-5.89l-2.22,8.33h8.11v20.67c0,12.56,3.89,18,15.45,18h5.11l2-8.56c-10.33.78-12.45-.56-12.45-9.22Z"></path><path class="cls-1" d="m363.31,27.53c0-5.67,5-8.45,11-8.45,5.67,0,11.45,2.22,17.56,7.22l.78-10c-4-3.11-10.56-6.33-18.89-6.33-12.45,0-21.56,6.67-21.56,17.78,0,21.67,33.11,17.22,33.11,32.89,0,6.33-4.44,11.22-12.78,11.22-6.22,0-12.89-2.89-18.22-6.78l-4.67,8.45c8.33,6.11,16.11,7.56,23,7.56,14.22,0,23.56-8.78,23.56-20.45,0-23.45-32.89-19.33-32.89-33.11Z"></path><path class="cls-1" d="m253.75,32.64c-5.67,0-13.89,2.56-17.33,10.45V10.2l-6.67,1.33v68.34h6.67v-23c0-13.22,9.11-18.45,16-18.45,9.22,0,12.67,5.67,12.67,17.33v24.11h6.78v-24.22c0-14.67-5.11-23-18.11-23Z"></path><polygon class="cls-1" points="174.97 17.09 194.86 17.09 194.86 79.87 202.08 79.87 202.08 17.09 221.41 17.09 221.41 10.97 176.52 10.97 174.97 17.09"></polygon><polygon class="cls-1" points="667.42 130.38 657.53 109.62 653.05 109.62 665.31 134.4 658.79 146.79 662.94 147.52 681.79 109.62 677.44 109.62 667.42 130.38"></polygon><path class="cls-1" d="m636.71,126.82v-13.84h7.97v-3.36h-7.97v-6.85l-3.95.92v5.93h-4.22l-.92,3.36h5.14v13.77c0,7.64,2.5,10.68,8.5,10.81.92,0,1.98,0,3.03-.07l.86-3.43c-6.13.53-8.44-.4-8.44-7.25Z"></path><rect class="cls-1" x="577.53" y="109.62" width="3.95" height="27.55"></rect><path class="cls-1" d="m579.51,98.88c-1.45,0-2.57.86-2.57,2.31s1.12,2.44,2.57,2.44,2.57-.92,2.57-2.37-1.12-2.37-2.57-2.37Z"></path><path class="cls-1" d="m555.39,134.21c-6.06,0-10.54-3.95-10.54-10.87s4.55-10.68,10.54-10.68c4.15,0,7.25,2.17,8.37,2.83l.79-3.56c-1.38-.92-4.68-2.83-9.16-2.83-8.3,0-14.43,5.21-14.43,14.3s6.13,14.3,14.43,14.3c3.36,0,6.66-.86,10.21-3.23l-1.85-3.16c-1.58,1.05-4.55,2.9-8.37,2.9Z"></path><path class="cls-1" d="m468.53,105.74c0-4.68,4.61-6.26,8.57-6.26s7.38,1.45,10.21,3.56c.07-1.32.2-2.64.26-3.95-2.5-1.85-6.26-3.36-10.68-3.36-7.32,0-12.72,3.69-12.72,10.08,0,13.38,21.68,8.83,21.68,20.36,0,4.61-3.43,8.04-9.56,8.04-3.69,0-8.04-1.38-11.86-4.09l-1.84,3.3c4.68,3.36,9.23,4.48,13.77,4.48,8.3,0,13.77-4.88,13.77-11.73,0-14.7-21.62-10.28-21.62-20.43Z"></path><path class="cls-1" d="m380.55,109.1c-3.56,0-7.91,1.45-9.95,6v-5.47h-3.95v27.55h3.95v-13.77c0-7.84,5.07-10.87,9.29-10.87,5.6,0,7.71,3.36,7.71,10.28v14.37h4.02v-14.43c0-8.63-3.23-13.64-11.07-13.64Z"></path><rect class="cls-1" x="348.45" y="109.62" width="3.95" height="27.55"></rect><path class="cls-1" d="m350.43,98.88c-1.45,0-2.57.86-2.57,2.31s1.12,2.44,2.57,2.44,2.57-.92,2.57-2.37-1.12-2.37-2.57-2.37Z"></path><polygon class="cls-1" points="290.85 137.17 294.81 137.17 294.81 95.85 290.85 96.64 290.85 137.17"></polygon><rect class="cls-1" x="272.66" y="109.62" width="3.95" height="27.55"></rect><path class="cls-1" d="m274.64,98.88c-1.45,0-2.57.86-2.57,2.31s1.12,2.44,2.57,2.44,2.57-.92,2.57-2.37-1.12-2.37-2.57-2.37Z"></path><path class="cls-1" d="m254.48,123.4c0,7.84-5.08,10.87-9.29,10.87-5.6,0-7.38-3.36-7.38-10.28v-14.37h-4.02v14.43c0,8.63,2.9,13.64,10.74,13.64,3.56,0,7.91-1.45,9.95-6v5.47h3.95v-27.55h-3.95v13.77Z"></path></g></svg> 