<svg width="161" height="46" viewBox="0 0 161 46" fill="none" xmlns="http://www.w3.org/2000/svg">
<path d="M0.050293 31.5544L15.3088 25.6814L30.5673 31.5544V44H0.050293V31.5544Z" fill="#FF2626"/>
<path d="M9.26157 18.2493C8.92899 19.3898 8.44459 20.1941 7.80835 20.662C7.18657 21.13 6.29006 21.3639 5.11881 21.3639C3.55714 21.3493 2.31359 20.7644 1.38815 19.6092C0.462717 18.454 0 16.7431 0 14.4766V8.55434C0 5.62978 0.650696 3.47292 1.95209 2.08375C3.26794 0.694584 5.27064 0 7.96018 0C10.375 0 12.2186 0.562978 13.4911 1.68893C14.7636 2.81489 15.3998 4.45264 15.3998 6.6022V8.2692H8.74102V6.668C8.74102 5.77601 8.38675 5.33001 7.67821 5.33001C7.36009 5.33001 7.10705 5.45431 6.91907 5.7029C6.73109 5.93686 6.6371 6.25856 6.6371 6.668V14.8275C6.6371 15.7341 7.01306 16.1874 7.76497 16.1874C8.11201 16.1874 8.38675 16.0632 8.58919 15.8146C8.80608 15.566 8.91453 15.2297 8.91453 14.8056V13.7308H7.89511V9.65105H15.3998V21.0349H10.0641L9.58692 18.2493H9.26157Z" fill="black"/>
<path d="M23.8627 15.4856H30.0444V21.0349H17.269V0.307079H29.9359V5.85643H23.8627V7.96212H29.5889V13.1605H23.8627V15.4856Z" fill="black"/>
<path d="M41.4293 8.77369L41.1691 5.79063V0.307079H47.5676V21.0349H41.104L38.1975 11.7348H37.9156L38.1975 14.6082V21.0349H31.8207V0.307079H38.5012L41.1474 8.77369H41.4293Z" fill="black"/>
<path d="M40.9738 23.1759H47.5676V43.9037H40.9738V36.1829L39.9219 35.685L38.8699 36.1829V43.9256H32.2762V23.1759H38.8699V30.6554H40.9738V23.1759Z" fill="black"/>
<path d="M54.034 18.972H52.522V17.712H54.034V15.84C54.034 15.192 54.202 14.67 54.538 14.274C54.874 13.878 55.384 13.68 56.068 13.68H57.472V14.94H55.474V17.712H57.472V18.972H55.474V27H54.034V18.972ZM62.0856 27.216C61.4616 27.216 60.8916 27.102 60.3756 26.874C59.8596 26.646 59.4156 26.322 59.0436 25.902C58.6836 25.47 58.4016 24.96 58.1976 24.372C57.9936 23.772 57.8916 23.1 57.8916 22.356C57.8916 21.624 57.9936 20.958 58.1976 20.358C58.4016 19.758 58.6836 19.248 59.0436 18.828C59.4156 18.396 59.8596 18.066 60.3756 17.838C60.8916 17.61 61.4616 17.496 62.0856 17.496C62.7096 17.496 63.2736 17.61 63.7776 17.838C64.2936 18.066 64.7376 18.396 65.1096 18.828C65.4816 19.248 65.7696 19.758 65.9736 20.358C66.1776 20.958 66.2796 21.624 66.2796 22.356C66.2796 23.1 66.1776 23.772 65.9736 24.372C65.7696 24.96 65.4816 25.47 65.1096 25.902C64.7376 26.322 64.2936 26.646 63.7776 26.874C63.2736 27.102 62.7096 27.216 62.0856 27.216ZM62.0856 25.938C62.8656 25.938 63.5016 25.698 63.9936 25.218C64.4856 24.738 64.7316 24.006 64.7316 23.022V21.69C64.7316 20.706 64.4856 19.974 63.9936 19.494C63.5016 19.014 62.8656 18.774 62.0856 18.774C61.3056 18.774 60.6696 19.014 60.1776 19.494C59.6856 19.974 59.4396 20.706 59.4396 21.69V23.022C59.4396 24.006 59.6856 24.738 60.1776 25.218C60.6696 25.698 61.3056 25.938 62.0856 25.938ZM67.9279 27V17.712H69.3679V19.422H69.4579C69.6259 18.978 69.9259 18.582 70.3579 18.234C70.7899 17.886 71.3839 17.712 72.1399 17.712H72.6979V19.152H71.8519C71.0719 19.152 70.4599 19.302 70.0159 19.602C69.5839 19.89 69.3679 20.256 69.3679 20.7V27H67.9279ZM54.25 32.534C53.938 32.534 53.71 32.462 53.566 32.318C53.434 32.162 53.368 31.964 53.368 31.724V31.49C53.368 31.25 53.434 31.058 53.566 30.914C53.71 30.758 53.938 30.68 54.25 30.68C54.562 30.68 54.784 30.758 54.916 30.914C55.06 31.058 55.132 31.25 55.132 31.49V31.724C55.132 31.964 55.06 32.162 54.916 32.318C54.784 32.462 54.562 32.534 54.25 32.534ZM53.53 34.712H54.97V44H53.53V34.712ZM57.31 44V34.712H58.75V36.224H58.822C59.05 35.696 59.368 35.276 59.776 34.964C60.196 34.652 60.754 34.496 61.45 34.496C62.41 34.496 63.166 34.808 63.718 35.432C64.282 36.044 64.564 36.914 64.564 38.042V44H63.124V38.294C63.124 36.626 62.422 35.792 61.018 35.792C60.73 35.792 60.448 35.828 60.172 35.9C59.908 35.972 59.668 36.08 59.452 36.224C59.236 36.368 59.062 36.554 58.93 36.782C58.81 36.998 58.75 37.256 58.75 37.556V44H57.31ZM68.8725 44C68.3685 44 67.9845 43.862 67.7205 43.586C67.4685 43.298 67.3425 42.926 67.3425 42.47V35.972H65.8125V34.712H66.6765C66.9885 34.712 67.1985 34.652 67.3065 34.532C67.4265 34.4 67.4865 34.178 67.4865 33.866V32.138H68.7825V34.712H70.8165V35.972H68.7825V42.74H70.6725V44H68.8725ZM75.8327 44.216C75.1967 44.216 74.6207 44.102 74.1047 43.874C73.6007 43.646 73.1627 43.322 72.7907 42.902C72.4307 42.47 72.1487 41.96 71.9447 41.372C71.7527 40.772 71.6567 40.1 71.6567 39.356C71.6567 38.624 71.7527 37.958 71.9447 37.358C72.1487 36.758 72.4307 36.248 72.7907 35.828C73.1627 35.396 73.6007 35.066 74.1047 34.838C74.6207 34.61 75.1967 34.496 75.8327 34.496C76.4567 34.496 77.0147 34.61 77.5067 34.838C77.9987 35.066 78.4187 35.384 78.7667 35.792C79.1147 36.188 79.3787 36.662 79.5587 37.214C79.7507 37.766 79.8467 38.372 79.8467 39.032V39.716H73.1687V40.148C73.1687 40.544 73.2287 40.916 73.3487 41.264C73.4807 41.6 73.6607 41.894 73.8887 42.146C74.1287 42.398 74.4167 42.596 74.7527 42.74C75.1007 42.884 75.4907 42.956 75.9227 42.956C76.5107 42.956 77.0207 42.818 77.4527 42.542C77.8967 42.266 78.2387 41.87 78.4787 41.354L79.5047 42.092C79.2047 42.728 78.7367 43.244 78.1007 43.64C77.4647 44.024 76.7087 44.216 75.8327 44.216ZM75.8327 35.702C75.4367 35.702 75.0767 35.774 74.7527 35.918C74.4287 36.05 74.1467 36.242 73.9067 36.494C73.6787 36.746 73.4987 37.046 73.3667 37.394C73.2347 37.73 73.1687 38.102 73.1687 38.51V38.636H78.2987V38.438C78.2987 37.61 78.0707 36.95 77.6147 36.458C77.1707 35.954 76.5767 35.702 75.8327 35.702ZM81.4996 44V34.712H82.9396V36.422H83.0296C83.1976 35.978 83.4976 35.582 83.9296 35.234C84.3616 34.886 84.9556 34.712 85.7116 34.712H86.2696V36.152H85.4236C84.6436 36.152 84.0316 36.302 83.5876 36.602C83.1556 36.89 82.9396 37.256 82.9396 37.7V44H81.4996ZM87.389 44V34.712H88.829V36.224H88.901C89.009 35.984 89.129 35.762 89.261 35.558C89.405 35.342 89.573 35.156 89.765 35C89.969 34.844 90.203 34.724 90.467 34.64C90.731 34.544 91.043 34.496 91.403 34.496C92.015 34.496 92.579 34.646 93.095 34.946C93.611 35.234 93.995 35.714 94.247 36.386H94.283C94.451 35.882 94.763 35.444 95.219 35.072C95.687 34.688 96.317 34.496 97.109 34.496C98.057 34.496 98.795 34.808 99.323 35.432C99.863 36.044 100.133 36.914 100.133 38.042V44H98.693V38.294C98.693 37.466 98.531 36.842 98.207 36.422C97.883 36.002 97.367 35.792 96.659 35.792C96.371 35.792 96.095 35.828 95.831 35.9C95.579 35.972 95.351 36.08 95.147 36.224C94.943 36.368 94.781 36.554 94.661 36.782C94.541 36.998 94.481 37.256 94.481 37.556V44H93.041V38.294C93.041 37.466 92.879 36.842 92.555 36.422C92.231 36.002 91.727 35.792 91.043 35.792C90.755 35.792 90.479 35.828 90.215 35.9C89.951 35.972 89.717 36.08 89.513 36.224C89.309 36.368 89.141 36.554 89.009 36.782C88.889 36.998 88.829 37.256 88.829 37.556V44H87.389ZM105.876 44.216C105.24 44.216 104.664 44.102 104.148 43.874C103.644 43.646 103.206 43.322 102.834 42.902C102.474 42.47 102.192 41.96 101.988 41.372C101.796 40.772 101.7 40.1 101.7 39.356C101.7 38.624 101.796 37.958 101.988 37.358C102.192 36.758 102.474 36.248 102.834 35.828C103.206 35.396 103.644 35.066 104.148 34.838C104.664 34.61 105.24 34.496 105.876 34.496C106.5 34.496 107.058 34.61 107.55 34.838C108.042 35.066 108.462 35.384 108.81 35.792C109.158 36.188 109.422 36.662 109.602 37.214C109.794 37.766 109.89 38.372 109.89 39.032V39.716H103.212V40.148C103.212 40.544 103.272 40.916 103.392 41.264C103.524 41.6 103.704 41.894 103.932 42.146C104.172 42.398 104.46 42.596 104.796 42.74C105.144 42.884 105.534 42.956 105.966 42.956C106.554 42.956 107.064 42.818 107.496 42.542C107.94 42.266 108.282 41.87 108.522 41.354L109.548 42.092C109.248 42.728 108.78 43.244 108.144 43.64C107.508 44.024 106.752 44.216 105.876 44.216ZM105.876 35.702C105.48 35.702 105.12 35.774 104.796 35.918C104.472 36.05 104.19 36.242 103.95 36.494C103.722 36.746 103.542 37.046 103.41 37.394C103.278 37.73 103.212 38.102 103.212 38.51V38.636H108.342V38.438C108.342 37.61 108.114 36.95 107.658 36.458C107.214 35.954 106.62 35.702 105.876 35.702ZM117.483 42.488H117.411C116.847 43.64 115.941 44.216 114.693 44.216C114.117 44.216 113.595 44.102 113.127 43.874C112.659 43.646 112.257 43.322 111.921 42.902C111.597 42.482 111.345 41.972 111.165 41.372C110.997 40.772 110.913 40.1 110.913 39.356C110.913 38.612 110.997 37.94 111.165 37.34C111.345 36.74 111.597 36.23 111.921 35.81C112.257 35.39 112.659 35.066 113.127 34.838C113.595 34.61 114.117 34.496 114.693 34.496C115.341 34.496 115.893 34.64 116.349 34.928C116.817 35.204 117.171 35.636 117.411 36.224H117.483V30.68H118.923V44H117.483V42.488ZM115.089 42.92C115.413 42.92 115.719 42.878 116.007 42.794C116.307 42.71 116.565 42.59 116.781 42.434C116.997 42.266 117.165 42.068 117.285 41.84C117.417 41.6 117.483 41.33 117.483 41.03V37.574C117.483 37.322 117.417 37.088 117.285 36.872C117.165 36.644 116.997 36.452 116.781 36.296C116.565 36.14 116.307 36.02 116.007 35.936C115.719 35.84 115.413 35.792 115.089 35.792C114.273 35.792 113.631 36.05 113.163 36.566C112.695 37.07 112.461 37.736 112.461 38.564V40.148C112.461 40.976 112.695 41.648 113.163 42.164C113.631 42.668 114.273 42.92 115.089 42.92ZM121.984 32.534C121.672 32.534 121.444 32.462 121.3 32.318C121.168 32.162 121.102 31.964 121.102 31.724V31.49C121.102 31.25 121.168 31.058 121.3 30.914C121.444 30.758 121.672 30.68 121.984 30.68C122.296 30.68 122.518 30.758 122.65 30.914C122.794 31.058 122.866 31.25 122.866 31.49V31.724C122.866 31.964 122.794 32.162 122.65 32.318C122.518 32.462 122.296 32.534 121.984 32.534ZM121.264 34.712H122.704V44H121.264V34.712ZM131.794 44C131.254 44 130.864 43.856 130.624 43.568C130.396 43.28 130.252 42.92 130.192 42.488H130.102C129.898 43.064 129.562 43.496 129.094 43.784C128.626 44.072 128.068 44.216 127.42 44.216C126.436 44.216 125.668 43.964 125.116 43.46C124.576 42.956 124.306 42.272 124.306 41.408C124.306 40.532 124.624 39.86 125.26 39.392C125.908 38.924 126.91 38.69 128.266 38.69H130.102V37.772C130.102 37.112 129.922 36.608 129.562 36.26C129.202 35.912 128.65 35.738 127.906 35.738C127.342 35.738 126.868 35.864 126.484 36.116C126.112 36.368 125.8 36.704 125.548 37.124L124.684 36.314C124.936 35.81 125.338 35.384 125.89 35.036C126.442 34.676 127.138 34.496 127.978 34.496C129.106 34.496 129.982 34.772 130.606 35.324C131.23 35.876 131.542 36.644 131.542 37.628V42.74H132.604V44H131.794ZM127.654 42.992C128.014 42.992 128.344 42.95 128.644 42.866C128.944 42.782 129.202 42.662 129.418 42.506C129.634 42.35 129.802 42.17 129.922 41.966C130.042 41.762 130.102 41.54 130.102 41.3V39.77H128.194C127.366 39.77 126.76 39.89 126.376 40.13C126.004 40.37 125.818 40.718 125.818 41.174V41.552C125.818 42.008 125.98 42.362 126.304 42.614C126.64 42.866 127.09 42.992 127.654 42.992ZM133.939 44V34.712H135.379V36.422H135.469C135.637 35.978 135.937 35.582 136.369 35.234C136.801 34.886 137.395 34.712 138.151 34.712H138.709V36.152H137.863C137.083 36.152 136.471 36.302 136.027 36.602C135.595 36.89 135.379 37.256 135.379 37.7V44H133.939ZM140.549 32.534C140.237 32.534 140.009 32.462 139.865 32.318C139.733 32.162 139.667 31.964 139.667 31.724V31.49C139.667 31.25 139.733 31.058 139.865 30.914C140.009 30.758 140.237 30.68 140.549 30.68C140.861 30.68 141.083 30.758 141.215 30.914C141.359 31.058 141.431 31.25 141.431 31.49V31.724C141.431 31.964 141.359 32.162 141.215 32.318C141.083 32.462 140.861 32.534 140.549 32.534ZM139.829 34.712H141.269V44H139.829V34.712ZM147.101 44.216C146.465 44.216 145.889 44.102 145.373 43.874C144.869 43.646 144.431 43.322 144.059 42.902C143.699 42.47 143.417 41.96 143.213 41.372C143.021 40.772 142.925 40.1 142.925 39.356C142.925 38.624 143.021 37.958 143.213 37.358C143.417 36.758 143.699 36.248 144.059 35.828C144.431 35.396 144.869 35.066 145.373 34.838C145.889 34.61 146.465 34.496 147.101 34.496C147.725 34.496 148.283 34.61 148.775 34.838C149.267 35.066 149.687 35.384 150.035 35.792C150.383 36.188 150.647 36.662 150.827 37.214C151.019 37.766 151.115 38.372 151.115 39.032V39.716H144.437V40.148C144.437 40.544 144.497 40.916 144.617 41.264C144.749 41.6 144.929 41.894 145.157 42.146C145.397 42.398 145.685 42.596 146.021 42.74C146.369 42.884 146.759 42.956 147.191 42.956C147.779 42.956 148.289 42.818 148.721 42.542C149.165 42.266 149.507 41.87 149.747 41.354L150.773 42.092C150.473 42.728 150.005 43.244 149.369 43.64C148.733 44.024 147.977 44.216 147.101 44.216ZM147.101 35.702C146.705 35.702 146.345 35.774 146.021 35.918C145.697 36.05 145.415 36.242 145.175 36.494C144.947 36.746 144.767 37.046 144.635 37.394C144.503 37.73 144.437 38.102 144.437 38.51V38.636H149.567V38.438C149.567 37.61 149.339 36.95 148.883 36.458C148.439 35.954 147.845 35.702 147.101 35.702ZM155.558 44.216C154.694 44.216 153.968 44.054 153.38 43.73C152.804 43.394 152.306 42.95 151.886 42.398L152.912 41.57C153.272 42.026 153.674 42.38 154.118 42.632C154.562 42.872 155.078 42.992 155.666 42.992C156.278 42.992 156.752 42.86 157.088 42.596C157.436 42.332 157.61 41.96 157.61 41.48C157.61 41.12 157.49 40.814 157.25 40.562C157.022 40.298 156.602 40.118 155.99 40.022L155.252 39.914C154.82 39.854 154.424 39.764 154.064 39.644C153.704 39.512 153.386 39.344 153.11 39.14C152.846 38.924 152.636 38.66 152.48 38.348C152.336 38.036 152.264 37.664 152.264 37.232C152.264 36.776 152.348 36.38 152.516 36.044C152.684 35.696 152.912 35.408 153.2 35.18C153.5 34.952 153.854 34.784 154.262 34.676C154.67 34.556 155.108 34.496 155.576 34.496C156.332 34.496 156.962 34.628 157.466 34.892C157.982 35.156 158.432 35.522 158.816 35.99L157.862 36.854C157.658 36.566 157.358 36.308 156.962 36.08C156.566 35.84 156.068 35.72 155.468 35.72C154.868 35.72 154.412 35.852 154.1 36.116C153.8 36.368 153.65 36.716 153.65 37.16C153.65 37.616 153.8 37.946 154.1 38.15C154.412 38.354 154.856 38.504 155.432 38.6L156.152 38.708C157.184 38.864 157.916 39.164 158.348 39.608C158.78 40.04 158.996 40.61 158.996 41.318C158.996 42.218 158.69 42.926 158.078 43.442C157.466 43.958 156.626 44.216 155.558 44.216Z" fill="black"/>
</svg>
