<svg xmlns="http://www.w3.org/2000/svg" fill="none" viewBox="0 0 151 47" height="47" width="151">
<path fill="#62BB46" d="M58.1343 39.8855C58.5668 39.8855 58.8897 39.988 59.1013 40.1911C59.3129 40.3941 59.4187 40.6959 59.4187 41.0946C59.4187 41.307 59.3667 41.4952 59.2628 41.6554C59.1589 41.8156 59.0048 41.9404 58.8025 42.0299C58.6002 42.1174 58.3496 42.1621 58.0508 42.1621L58.0786 41.8566C58.2178 41.8566 58.3793 41.8752 58.5593 41.9144C58.7394 41.9535 58.9139 42.0206 59.0846 42.1174C59.2535 42.2143 59.3946 42.3503 59.5041 42.5254C59.6155 42.7006 59.6693 42.9223 59.6693 43.1943C59.6693 43.4924 59.621 43.7383 59.5245 43.9283C59.428 44.1183 59.2999 44.2655 59.1422 44.3698C58.9844 44.4742 58.8155 44.545 58.6354 44.5841C58.4554 44.6232 58.2809 44.6418 58.1139 44.6418H56.4286C56.3116 44.6418 56.2132 44.6027 56.1334 44.5226C56.0536 44.4444 56.0146 44.3456 56.0146 44.2264V40.2991C56.0146 40.1818 56.0536 40.083 56.1334 40.0029C56.2114 39.9228 56.3098 39.8837 56.4286 39.8837H58.1343V39.8855ZM58.0118 40.6866H56.8072L56.8944 40.5786V41.8082L56.8128 41.7467H58.0304C58.1603 41.7467 58.2791 41.7038 58.383 41.6181C58.487 41.5324 58.5389 41.4076 58.5389 41.2437C58.5389 41.0499 58.4907 40.9083 58.3941 40.8189C58.2976 40.7313 58.1696 40.6866 58.0118 40.6866ZM58.0656 42.5478H56.8332L56.8944 42.4938V43.9264L56.8276 43.8594H58.1139C58.3218 43.8594 58.487 43.8035 58.6076 43.6936C58.7301 43.5818 58.7895 43.416 58.7895 43.1943C58.7895 42.9912 58.7487 42.844 58.667 42.7527C58.5853 42.6614 58.4888 42.6056 58.3756 42.5832C58.2624 42.5608 58.1584 42.5497 58.0638 42.5497L58.0656 42.5478Z"></path>
<path fill="#62BB46" d="M63.0676 41.0071C63.1845 41.0071 63.281 41.0462 63.359 41.1263C63.4351 41.2064 63.4741 41.3033 63.4741 41.4225V43.1477C63.4741 43.6284 63.3404 44.0084 63.075 44.2897C62.8096 44.571 62.4254 44.7108 61.9242 44.7108C61.4231 44.7108 61.0407 44.571 60.7772 44.2897C60.5136 44.0084 60.3818 43.6284 60.3818 43.1477V41.4225C60.3818 41.3052 60.4208 41.2064 60.4969 41.1263C60.573 41.0481 60.6714 41.0071 60.7883 41.0071C60.9053 41.0071 61.0018 41.0462 61.0797 41.1263C61.1558 41.2064 61.1948 41.3033 61.1948 41.4225V43.1477C61.1948 43.4234 61.256 43.6284 61.3767 43.7625C61.4992 43.8966 61.6811 43.9637 61.9242 43.9637C62.1674 43.9637 62.3567 43.8966 62.4792 43.7625C62.6017 43.6284 62.6611 43.4234 62.6611 43.1477V41.4225C62.6611 41.3052 62.7001 41.2064 62.7762 41.1263C62.8523 41.0481 62.9507 41.0071 63.0676 41.0071Z"></path>
<path fill="#62BB46" d="M64.7066 40.5655C64.5525 40.5655 64.4449 40.5413 64.3818 40.491C64.3187 40.4407 64.2871 40.3532 64.2871 40.2265V40.0979C64.2871 39.9656 64.3224 39.8762 64.3929 39.8296C64.4634 39.7812 64.5692 39.7589 64.714 39.7589C64.8718 39.7589 64.9831 39.7831 65.0463 39.8334C65.1094 39.8837 65.1409 39.9712 65.1409 40.0979V40.2265C65.1409 40.3587 65.1075 40.4482 65.0388 40.4947C64.972 40.5432 64.8606 40.5655 64.7066 40.5655ZM65.1186 44.2264C65.1186 44.3438 65.0797 44.4425 65.0036 44.5226C64.9275 44.6027 64.8291 44.6418 64.7122 44.6418C64.5952 44.6418 64.4987 44.6027 64.4207 44.5226C64.3446 44.4444 64.3057 44.3456 64.3057 44.2264V41.4207C64.3057 41.3033 64.3446 41.2046 64.4207 41.1244C64.4968 41.0462 64.5952 41.0052 64.7122 41.0052C64.8291 41.0052 64.9256 41.0443 65.0036 41.1244C65.0797 41.2046 65.1186 41.3014 65.1186 41.4207V44.2264Z"></path>
<path fill="#62BB46" d="M66.8325 44.2264C66.8325 44.3437 66.7935 44.4425 66.7137 44.5226C66.6339 44.6027 66.5374 44.6418 66.4186 44.6418C66.2998 44.6418 66.2107 44.6027 66.1346 44.5226C66.0585 44.4444 66.0195 44.3456 66.0195 44.2264V40.029C66.0195 39.9116 66.0585 39.8129 66.1383 39.7328C66.2181 39.6526 66.3147 39.6135 66.4334 39.6135C66.5522 39.6135 66.6469 39.6526 66.7211 39.7328C66.7954 39.8129 66.8325 39.9097 66.8325 40.029V44.2264Z"></path>
<path fill="#62BB46" d="M70.6758 39.6135C70.7928 39.6135 70.8893 39.6526 70.9673 39.729C71.0434 39.8054 71.0823 39.906 71.0823 40.0271V44.2245C71.0823 44.3419 71.0434 44.4406 70.9673 44.5207C70.8912 44.6008 70.7928 44.64 70.6758 44.64C70.5589 44.64 70.4624 44.6008 70.3844 44.5207C70.3083 44.4425 70.2694 44.3438 70.2694 44.2245V43.891L70.4179 43.9525C70.4179 44.0121 70.3863 44.0829 70.3232 44.1668C70.2601 44.2506 70.1747 44.3326 70.0652 44.4145C69.9557 44.4965 69.8295 44.5654 69.6828 44.6213C69.5362 44.6772 69.3766 44.707 69.2058 44.707C68.894 44.707 68.6119 44.6269 68.3594 44.4667C68.107 44.3065 67.9066 44.0848 67.7599 43.8016C67.6133 43.5184 67.5391 43.1943 67.5391 42.8272C67.5391 42.4602 67.6133 42.1286 67.7599 41.8454C67.9066 41.5623 68.1033 41.3405 68.352 41.1803C68.6007 41.0201 68.8754 40.94 69.178 40.94C69.371 40.94 69.5511 40.9698 69.7125 41.0276C69.8759 41.0872 70.0151 41.1617 70.1357 41.2511C70.2545 41.3424 70.3473 41.4337 70.4141 41.5269C70.4791 41.62 70.5125 41.6983 70.5125 41.7616L70.2694 41.8492V40.029C70.2694 39.9116 70.3083 39.8129 70.3844 39.7328C70.4605 39.6545 70.5589 39.6135 70.6758 39.6135ZM69.3079 43.9618C69.5065 43.9618 69.681 43.9115 69.8295 43.8128C69.978 43.714 70.0949 43.578 70.1784 43.4048C70.2619 43.2334 70.3028 43.0396 70.3028 42.8272C70.3028 42.6149 70.2601 42.4155 70.1784 42.2423C70.0949 42.0709 69.978 41.9349 69.8295 41.8343C69.681 41.7355 69.5065 41.6852 69.3079 41.6852C69.1093 41.6852 68.9423 41.7355 68.7938 41.8343C68.6453 41.9349 68.5284 42.069 68.4448 42.2423C68.3613 42.4137 68.3205 42.6093 68.3205 42.8272C68.3205 43.0452 68.3613 43.2334 68.4448 43.4048C68.5284 43.5762 68.6453 43.7122 68.7938 43.8128C68.9423 43.9134 69.1149 43.9618 69.3079 43.9618Z"></path>
<path fill="#62BB46" d="M72.313 40.5655C72.159 40.5655 72.0513 40.5413 71.9882 40.491C71.9251 40.4407 71.8936 40.3532 71.8936 40.2265V40.0979C71.8936 39.9656 71.9288 39.8762 71.9994 39.8296C72.0699 39.7812 72.1757 39.7589 72.3205 39.7589C72.4782 39.7589 72.5896 39.7831 72.6527 39.8334C72.7158 39.8837 72.7474 39.9712 72.7474 40.0979V40.2265C72.7474 40.3587 72.7139 40.4482 72.6453 40.4947C72.5785 40.5432 72.4671 40.5655 72.313 40.5655ZM72.7251 44.2264C72.7251 44.3438 72.6861 44.4425 72.61 44.5226C72.5339 44.6027 72.4355 44.6418 72.3186 44.6418C72.2017 44.6418 72.1051 44.6027 72.0272 44.5226C71.9511 44.4444 71.9121 44.3456 71.9121 44.2264V41.4207C71.9121 41.3033 71.9511 41.2046 72.0272 41.1244C72.1033 41.0462 72.2017 41.0052 72.3186 41.0052C72.4355 41.0052 72.5321 41.0443 72.61 41.1244C72.6861 41.2046 72.7251 41.3014 72.7251 41.4207V44.2264Z"></path>
<path fill="#62BB46" d="M75.4944 40.9382C75.8285 40.9382 76.0828 41.009 76.2554 41.1487C76.4299 41.2884 76.5487 41.4766 76.6136 41.7095C76.6786 41.9423 76.712 42.2013 76.712 42.4863V44.2246C76.712 44.3419 76.673 44.4407 76.5969 44.5208C76.5208 44.6009 76.4224 44.64 76.3055 44.64C76.1886 44.64 76.0921 44.6009 76.0141 44.5208C75.938 44.4425 75.899 44.3438 75.899 44.2246V42.4863C75.899 42.3373 75.8805 42.2032 75.8415 42.0821C75.8025 41.9628 75.7338 41.866 75.6355 41.7933C75.5352 41.7206 75.3942 41.6852 75.2086 41.6852C75.023 41.6852 74.8763 41.7206 74.752 41.7933C74.6276 41.866 74.5329 41.9628 74.468 42.0821C74.403 42.2013 74.3696 42.3373 74.3696 42.4863V44.2246C74.3696 44.3419 74.3306 44.4407 74.2545 44.5208C74.1784 44.6009 74.0801 44.64 73.9631 44.64C73.8462 44.64 73.7497 44.6009 73.6717 44.5208C73.5956 44.4425 73.5566 44.3438 73.5566 44.2246V41.4188C73.5566 41.3015 73.5956 41.2027 73.6717 41.1226C73.7478 41.0444 73.8462 41.0034 73.9631 41.0034C74.0801 41.0034 74.1766 41.0425 74.2545 41.1226C74.3306 41.2027 74.3696 41.2996 74.3696 41.4188V41.7113L74.2675 41.6908C74.3084 41.6144 74.3659 41.5306 74.4438 41.4431C74.5199 41.3555 74.6109 41.2717 74.7148 41.1953C74.8188 41.1189 74.9357 41.0555 75.0675 41.009C75.1993 40.9624 75.3403 40.9382 75.4944 40.9382Z"></path>
<path fill="#62BB46" d="M79.0955 40.9381C79.2848 40.9381 79.4593 40.968 79.617 41.0257C79.7748 41.0853 79.9122 41.1598 80.0272 41.2493C80.1423 41.3406 80.2333 41.4318 80.2982 41.525C80.3632 41.6181 80.3966 41.6964 80.3966 41.7597L80.2203 41.8473V41.3517C80.2203 41.2344 80.2592 41.1356 80.3353 41.0555C80.4114 40.9754 80.5098 40.9363 80.6267 40.9363C80.7437 40.9363 80.8402 40.9754 80.9181 41.0518C80.9942 41.1282 81.0332 41.2288 81.0332 41.3499V44.3736C81.0332 44.7667 80.9478 45.0834 80.7789 45.3218C80.61 45.5603 80.3873 45.7317 80.1126 45.8379C79.8379 45.9441 79.5409 45.9981 79.2254 45.9981C79.1345 45.9981 79.0175 45.9869 78.8727 45.9646C78.728 45.9422 78.5906 45.9143 78.4607 45.8826C78.3289 45.8509 78.2305 45.8211 78.1637 45.7951C78.0282 45.7354 77.9354 45.6628 77.8834 45.5734C77.8315 45.4858 77.8222 45.3908 77.8538 45.292C77.8946 45.1598 77.9596 45.0703 78.0505 45.0238C78.1414 44.9772 78.2361 44.9697 78.3345 45.007C78.379 45.02 78.4533 45.048 78.5572 45.089C78.6611 45.13 78.7744 45.1672 78.8987 45.2007C79.0231 45.2343 79.1326 45.2511 79.2273 45.2511C79.5651 45.2511 79.8156 45.184 79.979 45.048C80.1423 44.912 80.2221 44.7238 80.2221 44.4835V43.8929L80.3038 43.9544C80.3038 44.014 80.2741 44.0848 80.2128 44.1686C80.1516 44.2525 80.0681 44.3344 79.9623 44.4164C79.8565 44.4984 79.7303 44.5673 79.5873 44.6232C79.4426 44.6791 79.2904 44.7089 79.127 44.7089C78.8059 44.7089 78.5182 44.6288 78.2602 44.4686C78.0022 44.3084 77.7999 44.0867 77.6514 43.8035C77.503 43.5203 77.4287 43.1961 77.4287 42.8291C77.4287 42.4621 77.503 42.1305 77.6514 41.8473C77.7999 41.5641 78.0004 41.3424 78.2547 41.1822C78.5071 41.022 78.7892 40.9419 79.101 40.9419L79.0955 40.9381ZM79.2235 41.6852C79.0212 41.6852 78.843 41.7355 78.689 41.8343C78.5349 41.9349 78.4161 42.069 78.3308 42.2423C78.2454 42.4137 78.2027 42.6093 78.2027 42.8273C78.2027 43.0452 78.2454 43.2334 78.3308 43.4048C78.4161 43.5762 78.5368 43.7122 78.689 43.8128C78.843 43.9134 79.0212 43.9618 79.2235 43.9618C79.4259 43.9618 79.6115 43.9115 79.7655 43.8128C79.9196 43.7141 80.0384 43.5781 80.1237 43.4048C80.2091 43.2315 80.2518 43.0396 80.2518 42.8273C80.2518 42.6149 80.2091 42.4155 80.1237 42.2423C80.0384 42.069 79.9177 41.9349 79.7655 41.8343C79.6115 41.7355 79.4314 41.6852 79.2235 41.6852Z"></path>
<path fill="#62BB46" d="M85.3943 44.7089C85.0788 44.7089 84.7948 44.6698 84.5424 44.5897C84.29 44.5096 84.0487 44.3717 83.8185 44.1724C83.7591 44.1221 83.7146 44.0662 83.683 44.0028C83.6515 43.9395 83.6348 43.8762 83.6348 43.8128C83.6348 43.7085 83.6719 43.6172 83.7461 43.5371C83.8204 43.457 83.915 43.4179 84.0264 43.4179C84.1118 43.4179 84.1897 43.4458 84.2566 43.4998C84.4273 43.6396 84.5981 43.7476 84.767 43.8184C84.9359 43.8911 85.1456 43.9265 85.3925 43.9265C85.5595 43.9265 85.7136 43.9004 85.8528 43.8482C85.992 43.796 86.1052 43.7252 86.1906 43.6377C86.276 43.5501 86.3187 43.4495 86.3187 43.3359C86.3187 43.1999 86.2778 43.0844 86.1962 42.9894C86.1145 42.8943 85.9901 42.8142 85.8231 42.749C85.656 42.6838 85.4444 42.6317 85.1865 42.5963C84.9433 42.5609 84.728 42.505 84.5442 42.4304C84.3586 42.3559 84.2046 42.2609 84.0802 42.1454C83.9559 42.0299 83.8631 41.8939 83.8 41.7374C83.7368 41.5809 83.7053 41.4058 83.7053 41.2102C83.7053 40.9158 83.7814 40.6643 83.9317 40.4556C84.0821 40.247 84.2863 40.0886 84.5442 39.9806C84.8022 39.8725 85.0862 39.8166 85.3962 39.8166C85.6895 39.8166 85.9604 39.8613 86.211 39.9489C86.4616 40.0365 86.6658 40.1501 86.8235 40.2861C86.9534 40.3904 87.0203 40.5097 87.0203 40.6457C87.0203 40.7444 86.9813 40.8357 86.9052 40.9177C86.8291 40.9996 86.7381 41.0406 86.6342 41.0406C86.5674 41.0406 86.5061 41.0201 86.4523 40.9791C86.3799 40.9158 86.2834 40.8562 86.1609 40.7984C86.0384 40.7425 85.9103 40.6941 85.7748 40.655C85.6393 40.6159 85.5131 40.5972 85.3962 40.5972C85.2013 40.5972 85.038 40.6214 84.9062 40.6717C84.7725 40.7221 84.6723 40.7891 84.6055 40.8748C84.5387 40.9605 84.5034 41.0611 84.5034 41.1729C84.5034 41.3089 84.5424 41.4207 84.6222 41.5101C84.702 41.5995 84.8152 41.6685 84.9637 41.7206C85.1122 41.7728 85.2904 41.8194 85.4983 41.8604C85.7693 41.9107 86.0068 41.9684 86.2129 42.0373C86.4189 42.1044 86.5878 42.192 86.7233 42.2982C86.8588 42.4044 86.9609 42.5385 87.0277 42.6987C87.0945 42.8589 87.1298 43.0546 87.1298 43.2856C87.1298 43.5799 87.0481 43.8333 86.8866 44.0457C86.7233 44.2581 86.5117 44.422 86.2463 44.5357C85.9809 44.6493 85.6969 44.7052 85.3906 44.7052L85.3943 44.7089Z"></path>
<path fill="#62BB46" d="M91.3584 42.8272C91.3584 43.198 91.2768 43.5259 91.1116 43.8091C90.9464 44.0922 90.7255 44.3121 90.449 44.4723C90.1706 44.6307 89.8606 44.7108 89.5191 44.7108C89.1775 44.7108 88.8657 44.6307 88.5892 44.4723C88.3108 44.3139 88.0899 44.0922 87.9265 43.8091C87.7614 43.5259 87.6797 43.198 87.6797 42.8272C87.6797 42.4565 87.7614 42.1286 87.9265 41.8454C88.0917 41.5623 88.3126 41.3406 88.5892 41.1803C88.8676 41.0201 89.1775 40.94 89.5191 40.94C89.8606 40.94 90.1724 41.0201 90.449 41.1803C90.7255 41.3406 90.9483 41.5623 91.1116 41.8454C91.2768 42.1286 91.3584 42.4565 91.3584 42.8272ZM90.5455 42.8272C90.5455 42.5962 90.4991 42.395 90.4063 42.2255C90.3135 42.056 90.1891 41.9237 90.0332 41.8287C89.8773 41.7337 89.7047 41.6852 89.5154 41.6852C89.326 41.6852 89.1534 41.7337 88.9975 41.8287C88.8416 41.9237 88.7172 42.056 88.6244 42.2255C88.5316 42.395 88.4852 42.5962 88.4852 42.8272C88.4852 43.0583 88.5316 43.252 88.6244 43.4216C88.7172 43.5911 88.8416 43.7234 88.9975 43.8184C89.1534 43.9134 89.326 43.9618 89.5154 43.9618C89.7047 43.9618 89.8773 43.9134 90.0332 43.8184C90.1891 43.7234 90.3135 43.5911 90.4063 43.4216C90.4991 43.252 90.5455 43.0545 90.5455 42.8272Z"></path>
<path fill="#62BB46" d="M93.6785 40.9382C93.9365 40.9382 94.1592 40.9661 94.3523 41.0201C94.5435 41.0742 94.6919 41.1506 94.7996 41.2474C94.9054 41.3443 94.9592 41.4617 94.9592 41.5977C94.9592 41.689 94.9314 41.7728 94.8776 41.8529C94.8237 41.933 94.7439 41.9721 94.64 41.9721C94.5676 41.9721 94.5082 41.9628 94.4599 41.9423C94.4117 41.9218 94.3708 41.8958 94.3356 41.8641C94.3003 41.8324 94.2558 41.8026 94.2075 41.7765C94.163 41.7486 94.0943 41.7281 94.0015 41.7113C93.9087 41.6964 93.84 41.6871 93.7955 41.6871C93.5653 41.6871 93.3704 41.7374 93.2108 41.8361C93.0512 41.9368 92.9268 42.0709 92.8414 42.2404C92.756 42.41 92.7134 42.6056 92.7134 42.8273C92.7134 43.049 92.7579 43.239 92.8451 43.4085C92.9324 43.5781 93.0549 43.7141 93.2108 43.8128C93.3667 43.9134 93.5467 43.9619 93.7491 43.9619C93.8623 43.9619 93.9588 43.9544 94.0405 43.9414C94.1221 43.9283 94.1889 43.9078 94.2428 43.8799C94.3059 43.8445 94.3616 43.8054 94.4117 43.7644C94.4618 43.7234 94.536 43.7029 94.6344 43.7029C94.7513 43.7029 94.8423 43.7402 94.9054 43.8147C94.9685 43.8892 95.0001 43.9805 95.0001 44.0904C95.0001 44.2003 94.9369 44.3065 94.8107 44.3997C94.6845 44.4928 94.5193 44.5673 94.3133 44.6232C94.1073 44.6791 93.8864 44.7089 93.647 44.7089C93.2906 44.7089 92.9806 44.627 92.7189 44.4612C92.4572 44.2953 92.2549 44.0699 92.1138 43.7849C91.9709 43.4998 91.9004 43.1794 91.9004 42.8273C91.9004 42.4565 91.9765 42.1286 92.1268 41.8455C92.2772 41.5623 92.4869 41.3406 92.756 41.1804C93.0252 41.0201 93.3314 40.94 93.6804 40.94L93.6785 40.9382Z"></path>
<path fill="#62BB46" d="M95.939 40.5655C95.785 40.5655 95.6773 40.5413 95.6142 40.491C95.5511 40.4407 95.5195 40.3532 95.5195 40.2265V40.0979C95.5195 39.9656 95.5548 39.8762 95.6253 39.8296C95.6959 39.7812 95.8017 39.7589 95.9464 39.7589C96.1042 39.7589 96.2156 39.7831 96.2787 39.8334C96.3418 39.8837 96.3733 39.9712 96.3733 40.0979V40.2265C96.3733 40.3587 96.3399 40.4482 96.2712 40.4947C96.2044 40.5432 96.0931 40.5655 95.939 40.5655ZM96.3511 44.2264C96.3511 44.3438 96.3121 44.4425 96.236 44.5226C96.1599 44.6027 96.0615 44.6418 95.9446 44.6418C95.8276 44.6418 95.7311 44.6027 95.6532 44.5226C95.5771 44.4444 95.5381 44.3456 95.5381 44.2264V41.4207C95.5381 41.3033 95.5771 41.2046 95.6532 41.1244C95.7293 41.0462 95.8276 41.0052 95.9446 41.0052C96.0615 41.0052 96.158 41.0443 96.236 41.1244C96.3121 41.2046 96.3511 41.3014 96.3511 41.4207V44.2264Z"></path>
<path fill="#62BB46" d="M98.8903 44.7089C98.5061 44.7089 98.1738 44.6288 97.8917 44.4686C97.6096 44.3084 97.3924 44.0885 97.2421 43.8128C97.0917 43.5371 97.0156 43.2241 97.0156 42.8757C97.0156 42.4677 97.0973 42.1212 97.2625 41.8324C97.4277 41.5455 97.643 41.3238 97.9084 41.1692C98.1738 41.0146 98.4559 40.9382 98.7548 40.9382C98.9849 40.9382 99.2021 40.9847 99.4081 41.0816C99.6141 41.1766 99.7942 41.307 99.9538 41.4729C100.112 41.6387 100.238 41.8287 100.329 42.0467C100.422 42.2646 100.468 42.4957 100.468 42.7397C100.464 42.8478 100.42 42.9372 100.34 43.0043C100.258 43.0713 100.164 43.1067 100.056 43.1067H97.4704L97.268 42.4267H99.7515L99.603 42.5627V42.3802C99.5937 42.2497 99.5473 42.1305 99.4638 42.0262C99.3803 41.9218 99.2763 41.8399 99.152 41.7784C99.0276 41.7169 98.8958 41.6871 98.7566 41.6871C98.6174 41.6871 98.4949 41.7057 98.378 41.7411C98.2611 41.7765 98.159 41.838 98.0736 41.9237C97.9882 42.0094 97.9195 42.1249 97.8713 42.2702C97.823 42.4156 97.797 42.5981 97.797 42.8198C97.797 43.0639 97.8471 43.2707 97.9492 43.4421C98.0513 43.6135 98.1813 43.7402 98.3427 43.8296C98.5024 43.9171 98.6731 43.9619 98.8532 43.9619C99.0202 43.9619 99.1538 43.9488 99.2522 43.9209C99.3506 43.8929 99.4323 43.8613 99.4916 43.8221C99.5529 43.783 99.6086 43.7513 99.6568 43.7234C99.7385 43.6824 99.8146 43.6619 99.887 43.6619C99.9854 43.6619 100.069 43.6955 100.134 43.7644C100.199 43.8315 100.232 43.9116 100.232 44.0029C100.232 44.1258 100.169 44.2357 100.043 44.3363C99.926 44.4351 99.7608 44.5226 99.5492 44.5972C99.3376 44.6717 99.1186 44.7089 98.8921 44.7089H98.8903Z"></path>
<path fill="#62BB46" d="M101.218 41.0741H102.821C102.929 41.0741 103.02 41.1095 103.092 41.1822C103.165 41.2549 103.2 41.3461 103.2 41.4542C103.2 41.5623 103.165 41.6461 103.092 41.715C103.02 41.7858 102.929 41.8212 102.821 41.8212H101.218C101.11 41.8212 101.019 41.7858 100.947 41.7132C100.874 41.6405 100.839 41.5492 100.839 41.4412C100.839 41.3331 100.874 41.2493 100.947 41.1803C101.019 41.1095 101.11 41.0741 101.218 41.0741ZM101.941 40.2246C102.058 40.2246 102.155 40.2637 102.229 40.3438C102.303 40.424 102.34 40.5208 102.34 40.6401V43.6638C102.34 43.7271 102.353 43.7793 102.378 43.8203C102.402 43.8612 102.437 43.891 102.48 43.9078C102.522 43.9246 102.569 43.9358 102.619 43.9358C102.673 43.9358 102.723 43.9264 102.767 43.9059C102.812 43.8855 102.864 43.8761 102.923 43.8761C102.986 43.8761 103.044 43.9059 103.096 43.9637C103.148 44.0233 103.174 44.1034 103.174 44.2078C103.174 44.3344 103.105 44.4388 102.968 44.5207C102.83 44.6027 102.682 44.6437 102.524 44.6437C102.43 44.6437 102.324 44.6363 102.209 44.6195C102.094 44.6046 101.986 44.5655 101.884 44.504C101.782 44.4425 101.698 44.3493 101.63 44.2227C101.563 44.096 101.527 43.9209 101.527 43.6992V40.6419C101.527 40.5246 101.566 40.4258 101.646 40.3457C101.726 40.2675 101.823 40.2265 101.941 40.2265V40.2246Z"></path>
<path fill="#62BB46" d="M106.632 41.0071C106.749 41.0071 106.846 41.0462 106.924 41.1263C107 41.2064 107.039 41.3033 107.039 41.4225V44.3102C107.039 44.7275 106.961 45.0592 106.805 45.3051C106.649 45.551 106.441 45.7299 106.179 45.8379C105.918 45.946 105.624 46.0019 105.299 46.0019C105.155 46.0019 105.003 45.9907 104.839 45.9683C104.676 45.946 104.544 45.9124 104.44 45.8659C104.305 45.8062 104.212 45.7336 104.16 45.6442C104.108 45.5566 104.099 45.4616 104.13 45.3628C104.171 45.2306 104.236 45.1411 104.327 45.0946C104.418 45.0461 104.512 45.0405 104.611 45.0778C104.683 45.1002 104.778 45.1355 104.895 45.184C105.012 45.2324 105.147 45.2548 105.301 45.2548C105.509 45.2548 105.682 45.2268 105.819 45.1691C105.957 45.1132 106.06 45.0182 106.131 44.884C106.202 44.7499 106.235 44.5673 106.235 44.3363V43.8817L106.378 44.0457C106.302 44.1947 106.205 44.3177 106.09 44.4164C105.975 44.5133 105.838 44.5878 105.68 44.6381C105.522 44.6884 105.342 44.7126 105.138 44.7126C104.899 44.7126 104.691 44.6567 104.512 44.5468C104.334 44.435 104.195 44.2823 104.097 44.0848C103.997 43.8873 103.948 43.6619 103.948 43.4085V41.4244C103.948 41.307 103.987 41.2083 104.063 41.1282C104.139 41.0499 104.238 41.0089 104.355 41.0089C104.472 41.0089 104.568 41.0481 104.646 41.1282C104.722 41.2083 104.761 41.3052 104.761 41.4244V43.1626C104.761 43.457 104.826 43.6638 104.954 43.7849C105.082 43.9041 105.262 43.9656 105.493 43.9656C105.65 43.9656 105.784 43.9358 105.892 43.8743C105.999 43.8128 106.083 43.7234 106.142 43.6023C106.202 43.483 106.229 43.3359 106.229 43.1645V41.4263C106.229 41.3089 106.268 41.2102 106.344 41.13C106.421 41.0518 106.519 41.0108 106.636 41.0108L106.632 41.0071Z"></path>
<path fill="#58595B" d="M88.389 6.07904C87.6039 6.07904 87.0007 6.65472 86.8188 7.41297C85.6717 6.59324 84.313 6.07904 82.804 6.07904C80.7512 6.07904 78.9694 6.95839 77.672 8.3538C76.3746 9.7194 75.6191 11.5992 75.6191 13.6932C75.6191 15.7873 76.3746 17.6373 77.672 19.0327C78.9694 20.3983 80.7512 21.2478 82.804 21.2478C84.313 21.2478 85.6717 20.7616 86.8188 19.9437C87.0007 20.6721 87.6039 21.2478 88.389 21.2478C89.2651 21.2478 89.989 20.5194 89.989 19.64V7.71664C89.989 6.80562 89.2632 6.07904 88.389 6.07904ZM85.6104 16.8194C84.8847 17.5776 83.8583 18.0024 82.8022 18.0024C81.7461 18.0024 80.6881 17.5776 79.9939 16.8194C79.2701 16.0313 78.8469 14.9377 78.8469 13.6951C78.8469 12.4525 79.2701 11.3291 79.9939 10.5708C80.6881 9.75107 81.7145 9.3263 82.8022 9.3263C83.8899 9.3263 84.8847 9.75107 85.6104 10.5708C86.3343 11.3291 86.7872 12.4208 86.7872 13.6951C86.7872 14.9694 86.3343 16.0313 85.6104 16.8194Z"></path>
<path fill="#58595B" d="M101.017 6.07904C99.8407 6.07904 98.7233 6.44233 97.8175 7.01987C97.5465 6.44419 96.973 6.07904 96.3382 6.07904C95.4325 6.07904 94.7383 6.80748 94.7383 7.68683V19.64C94.7383 20.5194 95.4325 21.2478 96.3382 21.2478C97.1233 21.2478 97.7878 20.6721 97.9382 19.9437C97.9994 19.8226 97.9994 19.7313 97.9994 19.64V12.3891C97.9994 10.69 99.3284 9.32443 101.019 9.32443C102.71 9.32443 104.16 10.69 104.16 12.3891V19.64C104.16 20.5194 104.915 21.2478 105.76 21.2478C106.604 21.2478 107.33 20.5194 107.33 19.64V12.3891C107.33 8.96114 104.522 6.07904 101.019 6.07904H101.017Z"></path>
<path fill="#58595B" d="M113.737 0.0111709C112.832 0.0111709 112.078 0.769423 112.078 1.68044V19.5804C112.078 20.4914 112.834 21.2497 113.737 21.2497C114.641 21.2497 115.428 20.4914 115.428 19.5804V1.67858C115.428 0.769423 114.673 0.00930786 113.737 0.00930786V0.0111709Z"></path>
<path fill="#58595B" d="M127.015 6.07904C122.88 6.07904 119.678 9.53682 119.648 13.6634C119.678 17.79 122.88 21.218 127.015 21.2478C129.159 21.2478 130.941 20.6107 132.418 19.2451C133.112 18.6079 132.812 17.6969 132.418 17.274C132.027 16.7877 130.789 16.6983 130.154 17.3653C129.398 17.9409 128.101 18.2148 127.013 18.1235C125.957 18.0322 124.749 17.4864 124.114 16.7579C123.57 16.2419 123.238 15.4538 123.088 14.7552H132.687C133.534 14.7552 134.167 14.2689 134.258 13.5423C134.287 13.4808 134.287 13.3299 134.287 13.2685V13.1176C134.046 9.02262 130.937 6.07904 127.012 6.07904H127.015ZM122.939 12.1767C123.181 10.9322 124.448 9.08224 127.015 8.96114C129.642 9.17353 131.182 10.9639 131.483 12.1767H122.939Z"></path>
<path fill="#58595B" d="M149.371 6.07904C148.465 6.07904 147.8 6.77581 147.8 7.68683V14.8464C147.8 16.6051 146.412 17.9409 144.692 17.9409C142.971 17.9409 141.551 16.607 141.551 14.8464V7.68683C141.551 6.77581 140.887 6.07904 139.951 6.07904C139.136 6.07904 138.381 6.77581 138.381 7.68683V14.8464C138.381 18.3359 141.219 21.218 144.692 21.218C145.688 21.218 146.715 20.9758 147.559 20.4896C147.077 22.0675 145.566 23.2208 143.786 23.2506C143.181 23.2506 142.609 23.0997 142.034 22.8258C141.31 22.4308 140.281 22.7643 139.89 23.4928C139.528 24.3423 139.829 25.2831 140.675 25.6464C141.581 26.101 142.698 26.4047 143.784 26.4047C147.799 26.4047 151 23.2189 151 19.1538V7.68683C151 6.77581 150.245 6.07904 149.371 6.07904Z"></path>
<path fill="#58595B" d="M69.7276 0C68.7866 0 68.0572 0.728443 68.0572 1.66927V8.95371H60.1929V1.66927C60.1929 0.728443 59.4338 0 58.4927 0C57.5517 0 56.8223 0.728443 56.8223 1.66927V19.5785C56.8223 20.5194 57.5517 21.2478 58.4927 21.2478C59.4338 21.2478 60.1929 20.5194 60.1929 19.5785V12.2941H68.0572V19.5785C68.0572 20.5194 68.7866 21.2478 69.7276 21.2478C70.6687 21.2478 71.4278 20.5194 71.4278 19.5785V1.66927C71.4278 0.728443 70.6687 0 69.7276 0Z"></path>
<path fill="#808285" d="M5.71674 37.7095C2.16976 33.8587 0 28.6999 0 23.0326V2.3027C0 1.03584 1.02827 0 2.2867 0H5.71674V37.7095Z"></path>
<path fill="#00539F" d="M31.4459 25.911C31.4459 20.3461 26.9672 15.8339 21.4398 15.8339C15.9123 15.8339 11.4354 20.3443 11.4336 25.911V42.1324C14.42 43.7234 17.8241 44.6251 21.4398 44.6251C25.0554 44.6251 28.4576 43.7234 31.4459 42.1324V25.911Z"></path>
<path fill="#62BB46" d="M40.5928 0H11.4355V13.697C11.456 13.6802 11.4782 13.6634 11.5005 13.6448C11.6638 13.5107 11.8272 13.3803 11.9961 13.2536C12.0629 13.2014 12.1334 13.153 12.2021 13.1027C12.3265 13.0114 12.4508 12.922 12.577 12.8344C12.6569 12.7804 12.7367 12.7263 12.8183 12.6742C12.9371 12.5959 13.0578 12.5177 13.1784 12.4413C13.2638 12.3891 13.3492 12.337 13.4346 12.2848C13.5552 12.2121 13.6777 12.1413 13.8021 12.0724C13.8893 12.024 13.9765 11.9755 14.0638 11.9271C14.1918 11.8582 14.3199 11.793 14.4498 11.7278C14.5352 11.6849 14.6206 11.6421 14.706 11.6011C14.8489 11.5321 14.9937 11.4669 15.1403 11.4036C15.2145 11.3701 15.2888 11.3365 15.3649 11.3048C15.5858 11.2117 15.8085 11.1223 16.0349 11.0384C16.0461 11.0347 16.0591 11.031 16.072 11.0254C16.2874 10.9471 16.5045 10.8726 16.7235 10.8037C16.8015 10.7795 16.8813 10.7571 16.9593 10.7329C17.1152 10.6863 17.2692 10.6416 17.427 10.5988C17.5198 10.5745 17.6126 10.5522 17.7054 10.5298C17.852 10.4944 17.9987 10.459 18.1453 10.4274C18.2437 10.4069 18.342 10.3864 18.4404 10.3677C18.587 10.3398 18.7337 10.3137 18.8822 10.2876C18.9805 10.2709 19.0808 10.256 19.181 10.2411C19.3332 10.2187 19.4854 10.2001 19.6394 10.1833C19.736 10.1721 19.8306 10.1609 19.9271 10.1516C20.096 10.1349 20.2649 10.1237 20.4357 10.1125C20.5174 10.1069 20.599 10.0995 20.6826 10.0957C20.935 10.0827 21.1893 10.0771 21.4454 10.0771C30.1282 10.0771 37.1683 17.1659 37.1683 25.911V37.7095C40.7153 33.8568 42.8851 28.6999 42.8851 23.0307V2.3027C42.8795 1.03584 41.8512 0 40.5928 0Z"></path>
<path fill="white" d="M15.9141 37.866C15.9141 37.7319 16.0199 37.6276 16.1554 37.6276C16.2908 37.6276 16.4004 37.7319 16.4004 37.866V40.4258C16.4004 40.56 16.2871 40.6643 16.1554 40.6643C16.0236 40.6643 15.9141 40.56 15.9141 40.4258V37.866Z"></path>
<path fill="white" d="M19.9812 39.6322C19.9812 40.2004 19.5116 40.6643 18.9362 40.6643C18.3608 40.6643 17.8838 40.2004 17.8838 39.6322C17.8838 39.2726 18.0675 38.9559 18.3534 38.7696C18.2606 38.6522 18.2086 38.5013 18.2086 38.3411C18.2086 37.9499 18.5334 37.6294 18.9362 37.6294C19.339 37.6294 19.6564 37.9499 19.6564 38.3411C19.6564 38.5013 19.6044 38.6541 19.5116 38.7696C19.7918 38.9559 19.9812 39.2726 19.9812 39.6322ZM19.5023 39.6322C19.5023 39.3248 19.248 39.0677 18.9362 39.0677C18.6244 39.0677 18.3664 39.3229 18.3608 39.6322C18.3645 39.9396 18.6188 40.1911 18.9362 40.1911C19.2536 40.1911 19.5023 39.9396 19.5023 39.6322ZM18.6856 38.3392C18.6856 38.4734 18.7951 38.587 18.9362 38.587C19.068 38.587 19.1775 38.4734 19.1775 38.3392C19.1775 38.2051 19.068 38.1008 18.9362 38.1008C18.7951 38.1008 18.6856 38.2088 18.6856 38.3392Z"></path>
<path fill="white" d="M23.188 38.8236C23.4033 39.0323 23.5072 39.3099 23.5072 39.5875C23.5072 39.8651 23.3977 40.1389 23.188 40.3457C22.9764 40.5581 22.6961 40.6624 22.4196 40.6624H22.4103C22.1374 40.6624 21.8535 40.5581 21.6474 40.3457C21.5472 40.2544 21.5472 40.0979 21.6474 39.9992C21.7402 39.9042 21.9017 39.9042 21.9982 39.9992C22.1115 40.1166 22.2618 40.1725 22.4196 40.1725C22.5681 40.1725 22.7221 40.1166 22.8372 39.9992C22.9504 39.8856 23.0135 39.7346 23.0135 39.5875C23.0135 39.431 22.956 39.2838 22.8372 39.172C22.724 39.0546 22.5736 39.0025 22.4196 39.0025C22.2655 39.0025 22.1133 39.0546 21.9982 39.172C21.9017 39.267 21.744 39.267 21.6474 39.172C21.6307 39.1552 21.6177 39.1329 21.5992 39.1161C21.5992 39.1068 21.5992 39.1031 21.5955 39.1031C21.5955 39.0938 21.5918 39.0863 21.5862 39.0807C21.5862 39.0677 21.5825 39.0584 21.5825 39.0509C21.5825 39.0472 21.5788 39.0472 21.5788 39.0416C21.5751 39.0155 21.5751 38.9894 21.5788 38.9671L21.7105 37.8437C21.7235 37.7692 21.7625 37.7095 21.8201 37.6704C21.8293 37.6667 21.833 37.6667 21.8368 37.6611C21.8405 37.6574 21.846 37.6574 21.8498 37.6518C21.885 37.635 21.9203 37.6257 21.9648 37.6257H23.2585C23.3996 37.6257 23.5091 37.7338 23.5091 37.8735C23.5091 38.0039 23.3996 38.1157 23.2585 38.1157H22.1783L22.1263 38.5442C22.2228 38.5181 22.3231 38.505 22.4196 38.505C22.6961 38.505 22.9764 38.6094 23.188 38.8218V38.8236Z"></path>
<path fill="white" d="M27.2267 39.8576C27.2267 39.9917 27.1172 40.0961 26.9817 40.0961H26.9371V40.4258C26.9371 40.56 26.8313 40.6643 26.6958 40.6643C26.5603 40.6643 26.4545 40.56 26.4545 40.4258V40.0961H25.0718C25.0198 40.0961 24.966 40.083 24.9233 40.0439C24.8138 39.9619 24.8008 39.8148 24.8843 39.7104L26.5084 37.7151C26.5084 37.7151 26.5121 37.7114 26.5176 37.7058C26.5214 37.7021 26.5269 37.6965 26.5306 37.689C26.5436 37.6853 26.5492 37.6797 26.5529 37.676C26.5566 37.6723 26.5659 37.6667 26.5715 37.663C26.5808 37.6592 26.5845 37.6536 26.5975 37.6536C26.6012 37.6443 26.6067 37.6406 26.616 37.6406C26.6197 37.6369 26.629 37.6369 26.642 37.6313C26.6457 37.6313 26.655 37.6313 26.6606 37.6276H26.7348C26.7348 37.6276 26.7478 37.6313 26.7571 37.6313C26.7608 37.635 26.7756 37.635 26.7831 37.6406C26.7868 37.6406 26.7961 37.6443 26.7998 37.6443C26.809 37.6536 26.8183 37.6574 26.822 37.6611C26.8313 37.6648 26.835 37.6704 26.8443 37.6741C26.8443 37.6741 26.848 37.6741 26.848 37.6779C26.8517 37.6779 26.861 37.6816 26.861 37.6872C26.8703 37.6965 26.874 37.7002 26.8777 37.7039C26.8814 37.7077 26.887 37.717 26.8907 37.7207C26.8944 37.7244 26.9 37.73 26.9093 37.7431C26.9093 37.7468 26.913 37.7561 26.9186 37.7598C26.9223 37.7692 26.9223 37.7729 26.9278 37.7859C26.9278 37.7896 26.9316 37.799 26.9316 37.8027C26.9353 37.812 26.9353 37.8157 26.9353 37.8288C26.9353 37.8381 26.939 37.8418 26.939 37.8511V39.6173H26.9835C27.119 39.6173 27.2285 39.7253 27.2285 39.8557L27.2267 39.8576ZM26.4545 38.5479L25.5822 39.6191H26.4545V38.5479Z"></path>
<path fill="#808285" d="M56.8223 34.0859V28.6757C56.8223 28.3907 57.0376 28.1708 57.316 28.1708H60.256C60.5159 28.1708 60.7497 28.3907 60.7497 28.6757C60.7497 28.9608 60.5159 29.1899 60.256 29.1899H57.8208V30.8685H59.9145C60.1836 30.8685 60.4082 31.107 60.4082 31.3734C60.4082 31.6584 60.1836 31.8876 59.9145 31.8876H57.8208V33.5736H60.256C60.5159 33.5736 60.7497 33.8028 60.7497 34.0878C60.7497 34.3729 60.5159 34.5927 60.256 34.5927H57.3438C57.3253 34.5927 57.3253 34.5834 57.3253 34.5834L57.316 34.5927C57.0376 34.5927 56.8223 34.3635 56.8223 34.0878V34.0859Z"></path>
<path fill="#808285" d="M64.1201 31.2895C64.1294 29.4749 65.6217 27.9976 67.4184 27.9883C68.2091 27.9883 68.9274 28.2547 69.4953 28.7037C69.7107 28.8862 69.7478 29.2085 69.5844 29.4377C69.4044 29.6668 69.0722 29.7041 68.8661 29.5383C68.4708 29.2085 67.9771 29.0334 67.4184 29.0334C66.7985 29.0334 66.2231 29.2905 65.7999 29.6929C65.3953 30.114 65.1428 30.6654 65.1428 31.2877C65.1428 31.9099 65.3953 32.48 65.7999 32.8824C66.2231 33.2848 66.7985 33.5419 67.4184 33.5419C67.9752 33.5419 68.4615 33.3668 68.8661 33.0371C69.0722 32.8806 69.4044 32.9178 69.5844 33.1377C69.7459 33.3668 69.7107 33.6966 69.4953 33.8717C68.9292 34.3207 68.2109 34.5871 67.4184 34.5871C65.6198 34.5871 64.1294 33.1116 64.1201 31.2858V31.2895Z"></path>
<path fill="#808285" d="M78.356 28.9701C78.9129 29.5756 79.2637 30.3822 79.2637 31.2895C79.2637 32.1968 78.9129 33.0128 78.356 33.609C77.8252 34.2052 77.0345 34.5908 76.2085 34.5908C75.3826 34.5908 74.5548 34.2052 74.0072 33.609C73.4504 33.0128 73.1182 32.1968 73.1182 31.2895C73.1182 30.3822 73.4504 29.5756 74.0072 28.9701C74.5548 28.3646 75.3455 27.9883 76.2085 27.9883C77.0716 27.9883 77.8271 28.3646 78.356 28.9701ZM78.2391 31.2895C78.2391 30.6654 77.996 30.0879 77.6285 29.6855C77.2517 29.2737 76.7468 29.0353 76.2085 29.0353C75.6332 29.0353 75.1302 29.2737 74.7515 29.6855C74.3747 30.0897 74.1409 30.6673 74.1409 31.2895C74.1409 31.9118 74.3747 32.4912 74.7515 32.8843C75.1283 33.296 75.6332 33.5438 76.2085 33.5438C76.7468 33.5438 77.2517 33.296 77.6285 32.8843C77.996 32.4893 78.2391 31.9118 78.2391 31.2895Z"></path>
<path fill="#808285" d="M84.0365 34.0859C84.0365 34.3617 83.8119 34.5908 83.5502 34.5908C83.2718 34.5908 83.0565 34.3617 83.0565 34.0859V28.7502C83.0472 28.5937 83.1196 28.4298 83.2551 28.3292C83.4796 28.1727 83.7859 28.2193 83.9381 28.4391L86.841 32.5377V28.7595C86.841 28.4931 87.0563 28.264 87.3255 28.264C87.5946 28.264 87.8192 28.4931 87.8192 28.7595V34.0859C87.8192 34.3617 87.5946 34.5908 87.3255 34.5908C87.1825 34.5908 87.047 34.5181 86.9579 34.4082C86.9394 34.3896 86.9227 34.371 86.9134 34.3523L84.0365 30.2816V34.0859Z"></path>
<path fill="#808285" d="M96.7359 28.9701C97.2927 29.5756 97.6435 30.3822 97.6435 31.2895C97.6435 32.1968 97.2927 33.0128 96.7359 33.609C96.2051 34.2052 95.4144 34.5908 94.5884 34.5908C93.7625 34.5908 92.9347 34.2052 92.3871 33.609C91.8303 33.0128 91.498 32.1968 91.498 31.2895C91.498 30.3822 91.8303 29.5756 92.3871 28.9701C92.9347 28.3646 93.7253 27.9883 94.5884 27.9883C95.4515 27.9883 96.2069 28.3646 96.7359 28.9701ZM96.619 31.2895C96.619 30.6654 96.3758 30.0879 96.0083 29.6855C95.6316 29.2737 95.1267 29.0353 94.5884 29.0353C94.013 29.0353 93.51 29.2737 93.1314 29.6855C92.7546 30.0897 92.5208 30.6673 92.5208 31.2895C92.5208 31.9118 92.7546 32.4912 93.1314 32.8843C93.5082 33.296 94.013 33.5438 94.5884 33.5438C95.1267 33.5438 95.6316 33.296 96.0083 32.8843C96.3758 32.4893 96.619 31.9118 96.619 31.2895Z"></path>
<path fill="#808285" d="M106.71 28.6776V34.0878C106.71 34.3635 106.477 34.5927 106.207 34.5927C105.938 34.5927 105.714 34.3635 105.714 34.0878V30.2276L104.42 32.0608C104.322 32.1987 104.177 32.2714 104.015 32.2714H103.997C103.835 32.2714 103.681 32.1987 103.583 32.0608L102.298 30.2276V34.0878C102.298 34.3635 102.074 34.5927 101.795 34.5927C101.517 34.5927 101.302 34.3635 101.302 34.0878V28.6776C101.302 28.4018 101.526 28.1727 101.795 28.1727H101.823C101.966 28.1727 102.13 28.2454 102.219 28.3832L104.008 30.9132L105.797 28.3832C105.896 28.2454 106.04 28.1727 106.202 28.1727H106.211C106.48 28.182 106.714 28.4018 106.714 28.6776H106.71Z"></path>
<path fill="#808285" d="M111.194 28.6776C111.194 28.3925 111.41 28.1727 111.688 28.1727C111.966 28.1727 112.191 28.3925 112.191 28.6776V34.0878C112.191 34.3729 111.957 34.5927 111.688 34.5927C111.419 34.5927 111.194 34.3729 111.194 34.0878V28.6776Z"></path>
<path fill="#808285" d="M115.84 31.2895C115.849 29.4749 117.341 27.9976 119.138 27.9883C119.929 27.9883 120.647 28.2547 121.215 28.7037C121.43 28.8862 121.467 29.2085 121.304 29.4377C121.124 29.6668 120.792 29.7041 120.586 29.5383C120.191 29.2085 119.697 29.0334 119.138 29.0334C118.518 29.0334 117.943 29.2905 117.52 29.6929C117.115 30.114 116.863 30.6654 116.863 31.2877C116.863 31.9099 117.115 32.48 117.52 32.8824C117.943 33.2848 118.518 33.5419 119.138 33.5419C119.695 33.5419 120.181 33.3668 120.586 33.0371C120.792 32.8806 121.124 32.9178 121.304 33.1377C121.466 33.3668 121.43 33.6966 121.215 33.8717C120.649 34.3207 119.931 34.5871 119.138 34.5871C117.34 34.5871 115.849 33.1116 115.84 31.2858V31.2895Z"></path>
</svg>
