<svg width="178" height="49" viewBox="0 0 178 49" xmlns="http://www.w3.org/2000/svg"><g fill="none"><path d="M169.794 20.517a4.103 4.103 0 1 0 8.206 0 4.103 4.103 0 0 0-8.206 0" fill="#006ED2"/><path d="M62.326 39.396c1.65 0 2.661 1.109 2.661 2.884v4.435H63.92V42.53c0-1.386-.693-2.163-1.858-2.163-1.08 0-1.982.804-1.982 2.218v4.131h-1.053v-4.214c0-1.345-.708-2.135-1.844-2.135-1.137 0-1.996.943-1.996 2.26v4.09h-1.068v-7.168h1.068v1.207c.471-.708 1.108-1.359 2.315-1.359 1.164 0 1.912.624 2.3 1.428.514-.79 1.276-1.428 2.524-1.428m7.935.942c-1.552 0-2.62 1.233-2.62 2.786 0 1.552 1.137 2.8 2.648 2.8 1.553 0 2.634-1.233 2.634-2.772 0-1.567-1.15-2.814-2.662-2.814m0 6.543c-2.148 0-3.715-1.692-3.715-3.73 0-2.037 1.58-3.756 3.743-3.756 2.149 0 3.73 1.691 3.73 3.729 0 2.038-1.595 3.757-3.758 3.757m6.422-.166h-1.068v-7.167h1.068v1.87c.526-1.191 1.566-2.05 2.925-1.995v1.15h-.083c-1.567 0-2.842 1.123-2.842 3.286v2.856zm5.91-2.038c0 .873.485 1.192 1.206 1.192.36 0 .666-.07 1.04-.25v.915a2.682 2.682 0 0 1-1.29.305c-1.15 0-2.024-.568-2.024-2.024v-4.325h-.998v-.942h.998v-2.163h1.068v2.163h2.273v.942h-2.273v4.187zm6.624-4.339c-1.359 0-2.481.929-2.481 2.426 0 1.469 1.15 2.453 2.481 2.453 1.359 0 2.634-.97 2.634-2.44 0-1.483-1.275-2.44-2.634-2.44m.014 8.623c-1.192 0-2.301-.332-3.258-.998l.486-.832c.817.596 1.732.915 2.758.915 1.58 0 2.606-.873 2.606-2.55v-.846c-.624.832-1.497 1.51-2.814 1.51-1.719 0-3.369-1.274-3.369-3.367 0-2.108 1.664-3.397 3.37-3.397 1.344 0 2.217.665 2.8 1.442v-1.29h1.067v5.92c0 2.315-1.442 3.493-3.646 3.493m6.231-4.381c0 .916.832 1.443 1.802 1.443 1.317 0 2.399-.805 2.399-1.941v-.693a7.483 7.483 0 0 0-2.108-.305c-1.344 0-2.093.581-2.093 1.497m-.125-3.66-.319-.873c.79-.36 1.567-.596 2.607-.596 1.954 0 3.05.998 3.05 2.883v4.38h-1.027v-1.081c-.498.652-1.33 1.234-2.592 1.234-1.33 0-2.675-.748-2.675-2.246 0-1.525 1.247-2.328 3.064-2.328.915 0 1.566.124 2.203.304v-.25c0-1.288-.79-1.954-2.134-1.954-.846 0-1.511.222-2.177.527m10.417-.582c-1.358 0-2.481.929-2.481 2.426 0 1.469 1.15 2.453 2.481 2.453 1.359 0 2.634-.97 2.634-2.44 0-1.483-1.275-2.44-2.634-2.44m.014 8.623c-1.192 0-2.3-.332-3.257-.998l.485-.832c.817.596 1.732.915 2.758.915 1.58 0 2.606-.873 2.606-2.55v-.846c-.624.832-1.497 1.51-2.814 1.51-1.719 0-3.368-1.274-3.368-3.367 0-2.108 1.663-3.397 3.368-3.397 1.345 0 2.218.665 2.8 1.442v-1.29h1.068v5.92c0 2.315-1.442 3.493-3.646 3.493m10.972-6.224c-.111-1.303-.86-2.44-2.287-2.44-1.248 0-2.19 1.04-2.33 2.44h4.617zm-2.093 3.216c.984 0 1.677-.402 2.26-1.012l.664.596c-.72.804-1.593 1.345-2.952 1.345-1.968 0-3.577-1.511-3.577-3.743 0-2.08 1.456-3.743 3.438-3.743 2.121 0 3.341 1.691 3.341 3.798 0 .098 0 .209-.013.333h-5.684c.152 1.553 1.261 2.426 2.523 2.426m7.058.901a4.933 4.933 0 0 1-2.967-1.053l.54-.763c.777.583 1.636.915 2.482.915.86 0 1.483-.443 1.483-1.137v-.027c0-.721-.845-.999-1.788-1.262-1.123-.319-2.37-.707-2.37-2.023v-.029c0-1.234 1.025-2.051 2.44-2.051.873 0 1.843.305 2.578.79l-.485.804c-.666-.43-1.428-.693-2.121-.693-.846 0-1.387.444-1.387 1.04v.027c0 .68.888.943 1.844 1.234 1.11.333 2.301.763 2.301 2.052v.027c0 1.36-1.123 2.15-2.55 2.15" fill="#626C74"/><path d="M15.509 17.214c0-1.65-1.228-2.666-4-2.666H5.263v5.403h6.421c2.386 0 3.825-.842 3.825-2.667v-.07zM14.14 7.39c0-1.614-1.263-2.527-3.544-2.527H5.263v5.193h4.982c2.387 0 3.895-.772 3.895-2.596v-.07zm-2.456 17.298H0V.127h11.403c5.018 0 8.106 2.49 8.106 6.35v.07c0 2.773-1.474 4.316-3.229 5.299 2.842 1.087 4.597 2.737 4.597 6.035v.07c0 4.491-3.65 6.737-9.193 6.737M23.583.127h5.333v24.56h-5.333zm20.671 24.561V22.02c-1.228 1.58-2.806 3.018-5.509 3.018-4.034 0-6.385-2.667-6.385-6.983V5.881h5.333v10.491c0 2.526 1.193 3.824 3.228 3.824s3.333-1.298 3.333-3.824V5.881h5.333v18.807h-5.333zM62.027 9.81c-2.21 0-3.649 1.58-4.07 4h8.035c-.316-2.385-1.719-4-3.965-4m9.088 7.333H58.027c.526 2.422 2.21 3.685 4.597 3.685 1.79 0 3.087-.561 4.56-1.93l3.054 2.702c-1.755 2.175-4.281 3.509-7.685 3.509-5.649 0-9.824-3.965-9.824-9.72v-.07c0-5.368 3.825-9.789 9.298-9.789 6.28 0 9.158 4.877 9.158 10.21v.07c0 .527-.035.843-.07 1.333" fill="#006ED2"/><path d="M81.63 25.038c-2.632 0-5.58-.877-8.07-2.841l2.28-3.51c2.035 1.475 4.175 2.246 5.93 2.246 1.544 0 2.246-.56 2.246-1.403v-.07c0-1.158-1.825-1.544-3.895-2.176-2.632-.772-5.614-2-5.614-5.649v-.07c0-3.824 3.088-5.965 6.877-5.965 2.386 0 4.982.808 7.017 2.176l-2.035 3.684c-1.86-1.088-3.719-1.754-5.087-1.754-1.298 0-1.965.561-1.965 1.298v.07c0 1.053 1.79 1.544 3.824 2.245 2.632.878 5.684 2.141 5.684 5.58v.07c0 4.175-3.122 6.07-7.192 6.07m16.653-.036c-3.264 0-5.474-1.298-5.474-5.649v-8.912h-2.245V5.881h2.245V0h5.333v5.881h4.421v4.561h-4.421v8.035c0 1.229.526 1.825 1.72 1.825.982 0 1.859-.246 2.631-.667v4.28c-1.123.667-2.421 1.088-4.21 1.088m21.623-9.683c0-2.773-2-5.194-4.947-5.194-3.053 0-4.878 2.351-4.878 5.123v.07c0 2.772 2 5.193 4.947 5.193 3.053 0 4.878-2.35 4.878-5.122v-.07zm-4.947 9.789c-5.825 0-10.14-4.316-10.14-9.72v-.07c0-5.403 4.35-9.789 10.21-9.789 5.824 0 10.14 4.316 10.14 9.72v.07c0 5.403-4.35 9.789-10.21 9.789m25.723-.421V14.197c0-2.527-1.193-3.825-3.228-3.825s-3.333 1.298-3.333 3.825v10.49h-5.333V5.882h5.333v2.667c1.228-1.58 2.807-3.018 5.509-3.018 4.035 0 6.385 2.667 6.385 6.983v12.175h-5.333zM158.339 9.81c-2.21 0-3.65 1.58-4.07 4h8.034c-.315-2.385-1.719-4-3.964-4m9.087 7.333H154.34c.526 2.422 2.21 3.685 4.596 3.685 1.79 0 3.088-.561 4.562-1.93l3.052 2.702c-1.754 2.175-4.28 3.509-7.684 3.509-5.65 0-9.825-3.965-9.825-9.72v-.07c0-5.368 3.825-9.789 9.299-9.789 6.28 0 9.157 4.877 9.157 10.21v.07c0 .527-.035.843-.07 1.333m-6.206 15.351H16.855v-.41h144.366z" fill="#626C74"/></g></svg>