<svg id="Layer_1" data-name="Layer 1" xmlns="http://www.w3.org/2000/svg" viewBox="0 0 400 83.37"><defs><style>.cls-1{fill:#23254f;}.cls-2{fill:#007db8;}</style></defs><title>The Co-operative Bank_Logo with Strapline_RGB-01_Digital_400x83px</title><path class="cls-1" d="M84.05,118.16c0,.35-.08.43-.51.43H74.65c-.43,0-.52-.08-.52-.51V101.49c0-.34.09-.51.52-.51h9c.34,0,.42.17.42.51l-.08.94c0,.34-.26.43-.69.43H76.53v5.64h6c.35,0,.52.17.52.43v.94c0,.34-.09.43-.52.43H76.44v6.41h7.1c.34,0,.51.09.51.43Z" transform="translate(-64.9 -40.87)"/><path class="cls-1" d="M90.47,117.14a4.56,4.56,0,0,0,1.62-.34c.17-.09.34,0,.43.25l.17.86c.09.25,0,.34-.34.51a6.6,6.6,0,0,1-2.4.43,4.15,4.15,0,0,1-2.82-.94c-.77-.86-.77-1.88-.77-3.42v-6.67H85c-.34,0-.34-.09-.34-.34v-.77c0-.26.09-.35.34-.35h1.46v-2.9c0-.35.08-.43.43-.52l1.28-.17h.08c.26,0,.35.17.35.43v3.16h3c.25,0,.34.09.34.35v.85c0,.26-.09.34-.34.34h-3v6.93a3.25,3.25,0,0,0,.42,2A2.8,2.8,0,0,0,90.47,117.14Z" transform="translate(-64.9 -40.87)"/><path class="cls-1" d="M104.66,118.08c0,.34-.08.51-.43.51h-1.37c-.34,0-.42-.17-.42-.51V110.9c0-1.8-.43-3.17-2.48-3.17a6.32,6.32,0,0,0-3.59,1.46v8.89c0,.34-.09.51-.43.51H94.57a.4.4,0,0,1-.43-.43v-17a.46.46,0,0,1,.52-.52,12.87,12.87,0,0,0,1.28-.17c.26,0,.34.09.34.43v6.67a6.33,6.33,0,0,1,4.19-1.54c2.91,0,4,1.8,4,4.62v7.44Z" transform="translate(-64.9 -40.87)"/><path class="cls-1" d="M108.51,104.48a1.2,1.2,0,1,1,0-2.39,1.21,1.21,0,1,1,0,2.39Zm1.11,13.6a.45.45,0,0,1-.51.51h-1.2a.45.45,0,0,1-.51-.51V106.79a.45.45,0,0,1,.51-.51h1.2a.45.45,0,0,1,.51.51Z" transform="translate(-64.9 -40.87)"/><path class="cls-1" d="M121.16,118.08a8.32,8.32,0,0,1-3.42.77c-4,0-6-2.65-6-6.42s2.31-6.49,6.15-6.49a6.64,6.64,0,0,1,3.25.77c.17.08.26.17.26.34s0,.08-.09.17l-.17.85c-.08.17-.08.35-.25.35a.31.31,0,0,1-.26-.09,6.38,6.38,0,0,0-2.65-.6c-2.39,0-3.93,1.8-3.93,4.7,0,2.66,1.11,4.88,3.84,4.88a7.65,7.65,0,0,0,2.91-.6.27.27,0,0,0,.17-.09c.09,0,.17.09.26.26l.26.68c0,.09.08.18.08.26A.88.88,0,0,1,121.16,118.08Z" transform="translate(-64.9 -40.87)"/><path class="cls-1" d="M134.16,118.25c0,.26-.09.34-.34.34h-1.11c-1.11,0-1.63-.85-1.63-1.88H131a4.79,4.79,0,0,1-3.85,2.14c-3.51,0-5.13-3-5.13-6.24,0-4.28,2.56-6.67,5.47-6.67a4.3,4.3,0,0,1,3.42,1.54v-.86c0-.34.17-.43.51-.43h1.12c.34,0,.42.17.42.52v9a2.89,2.89,0,0,0,.09,1.12.47.47,0,0,0,.43.25h.17c.25,0,.34.09.34.34v.86Zm-3.25-8.72a3.68,3.68,0,0,0-3.08-1.88c-2,0-3.42,1.71-3.42,4.78,0,2.83,1.29,4.54,3.17,4.54A3.94,3.94,0,0,0,131,114.4v-4.87Z" transform="translate(-64.9 -40.87)"/><path class="cls-1" d="M138.26,118.08c0,.34-.17.51-.42.51h-1.29c-.34,0-.42-.17-.42-.51v-17c0-.34.08-.43.34-.51l1.37-.17c.25,0,.34.08.34.43v17.27Z" transform="translate(-64.9 -40.87)"/><path class="cls-1" d="M151.43,117.14a4.62,4.62,0,0,0,1.63-.34c.17-.09.34,0,.42.25l.18.86c.08.25,0,.34-.35.51a6.54,6.54,0,0,1-2.39.43,4.15,4.15,0,0,1-2.82-.94c-.77-.86-.77-1.88-.77-3.42v-6.67H146c-.34,0-.34-.09-.34-.34v-.77c0-.26.08-.35.34-.35h1.45v-2.9c0-.35.09-.43.43-.52l1.28-.17h.09c.26,0,.34.17.34.43v3.16h3c.26,0,.35.09.35.35v.85c0,.26-.09.34-.35.34h-3v6.93a3.24,3.24,0,0,0,.43,2A3,3,0,0,0,151.43,117.14Z" transform="translate(-64.9 -40.87)"/><path class="cls-1" d="M165.63,118.08c0,.34-.09.51-.43.51h-1.37c-.34,0-.43-.17-.43-.51V110.9c0-1.8-.42-3.17-2.48-3.17a6.35,6.35,0,0,0-3.59,1.46v8.89c0,.34-.08.51-.42.51h-1.37a.4.4,0,0,1-.43-.43v-17a.46.46,0,0,1,.51-.52c.94-.08,1.2-.17,1.29-.17.25,0,.34.09.34.43v6.67a6.31,6.31,0,0,1,4.19-1.54c2.9,0,4,1.8,4,4.62v7.44Z" transform="translate(-64.9 -40.87)"/><path class="cls-1" d="M178.62,112c0,.6-.08.68-.77.68H170c.08,2.4,1.45,4.36,4,4.36a9,9,0,0,0,3.07-.51c.26-.09.52-.09.6.17l.26.94c.09.26-.09.34-.26.43a10.42,10.42,0,0,1-3.93.77c-3.93,0-6.07-2.57-6.07-6.42,0-3.67,2.31-6.41,6-6.41a4.81,4.81,0,0,1,3.51,1.37,5.81,5.81,0,0,1,1.45,4.19Zm-2.22-.77v-.34c0-1.71-.94-3.25-2.91-3.25-2.13,0-3.33,1.71-3.5,3.59Z" transform="translate(-64.9 -40.87)"/><path class="cls-1" d="M190.94,118.08c0,.34-.09.51-.52.51h-1.19a.45.45,0,0,1-.52-.51V110.9c0-1.8-.42-3.17-2.48-3.17a5.85,5.85,0,0,0-3.5,1.46V118a.46.46,0,0,1-.51.52H181a.47.47,0,0,1-.52-.52V106.62c0-.34.09-.51.52-.51h1.11c.34,0,.51.08.51.42v.77a6.55,6.55,0,0,1,4.19-1.53c2.91,0,4.11,1.79,4.11,4.61Z" transform="translate(-64.9 -40.87)"/><path class="cls-1" d="M194.27,121.67c-.17.08-.25.17-.34.17s-.17-.09-.34-.17l-.17-.17a.31.31,0,0,1-.09-.26c0-.08.09-.08.17-.25a2.54,2.54,0,0,0,.86-1.71c0-.69-.86-1.12-.86-1.89a1.34,1.34,0,0,1,1.37-1.36,1.61,1.61,0,0,1,1.45,1.71A4.88,4.88,0,0,1,194.27,121.67Z" transform="translate(-64.9 -40.87)"/><path class="cls-1" d="M214.54,118.08c0,.34-.09.51-.52.51h-1.19a.45.45,0,0,1-.52-.51V110.9c0-1.8-.42-3.17-2.48-3.17a5.85,5.85,0,0,0-3.5,1.46V118a.46.46,0,0,1-.52.52h-1.19a.47.47,0,0,1-.52-.52V106.62c0-.34.09-.51.52-.51h1.11c.34,0,.51.08.51.42v.77a6.55,6.55,0,0,1,4.19-1.53c2.91,0,4.11,1.79,4.11,4.61Z" transform="translate(-64.9 -40.87)"/><path class="cls-1" d="M222.4,118.85c-3.93,0-5.73-2.82-5.73-6.5s2.06-6.41,5.9-6.41,5.73,2.73,5.73,6.41S226.17,118.85,222.4,118.85Zm.09-11.2c-2.74,0-3.59,2.39-3.59,4.7s.77,4.87,3.5,4.87,3.59-2.39,3.59-4.7S225.14,107.65,222.49,107.65Z" transform="translate(-64.9 -40.87)"/><path class="cls-1" d="M245.4,106.28c.26,0,.35.25.26.51l-3.42,11.37a.54.54,0,0,1-.6.43h-1.28a.57.57,0,0,1-.6-.43l-2.48-8.55h0l-2.39,8.55a.54.54,0,0,1-.6.43H233a.56.56,0,0,1-.6-.43L229,106.79c-.09-.26,0-.51.34-.51h1.37c.34,0,.6.08.6.34l2.39,9.32h.09l2.65-9.32a.46.46,0,0,1,.51-.34h1c.25,0,.34.08.42.34l2.74,9.41h.08l2.4-9.32a.57.57,0,0,1,.6-.43Z" transform="translate(-64.9 -40.87)"/><path class="cls-1" d="M264.39,118.25c0,.26-.09.34-.35.34h-1.11c-1.11,0-1.62-.85-1.62-1.88h-.09a4.79,4.79,0,0,1-3.84,2.14c-3.51,0-5.13-3-5.13-6.24,0-4.28,2.56-6.67,5.47-6.67a4.3,4.3,0,0,1,3.42,1.54v-.86c0-.34.17-.43.51-.43h1.11c.34,0,.43.17.43.52v9a2.89,2.89,0,0,0,.09,1.12.45.45,0,0,0,.42.25h.17c.26,0,.35.09.35.34v.86Zm-3.34-8.72a3.68,3.68,0,0,0-3.08-1.88c-2,0-3.42,1.71-3.42,4.78,0,2.83,1.29,4.54,3.17,4.54a3.94,3.94,0,0,0,3.42-2.57v-4.87Z" transform="translate(-64.9 -40.87)"/><path class="cls-1" d="M276.7,118.08c0,.34-.09.51-.51.51H275a.45.45,0,0,1-.51-.51V110.9c0-1.8-.43-3.17-2.48-3.17a5.88,5.88,0,0,0-3.51,1.46V118a.46.46,0,0,1-.51.52h-1.2a.46.46,0,0,1-.51-.52V106.62c0-.34.08-.51.51-.51h1.11c.34,0,.52.08.52.42v.77a6.51,6.51,0,0,1,4.19-1.53c2.9,0,4.1,1.79,4.1,4.61v7.7Z" transform="translate(-64.9 -40.87)"/><path class="cls-1" d="M289.78,118.08c0,.34-.17.51-.34.51h-1.11a.45.45,0,0,1-.51-.51v-.94a5.3,5.3,0,0,1-3.77,1.62c-3.67,0-5.3-3-5.3-6.41,0-3.76,2.23-6.58,5.56-6.58a4.43,4.43,0,0,1,3.33,1.45V101c0-.35.09-.52.43-.52,1.28-.17,1.37-.17,1.37-.17.26,0,.34.09.34.43Zm-2.14-8.64a3.7,3.7,0,0,0-3-1.79c-2.31,0-3.59,1.88-3.59,4.7s1.2,4.7,3.42,4.7a4.39,4.39,0,0,0,3.25-1.71v-5.9Z" transform="translate(-64.9 -40.87)"/><path class="cls-1" d="M310.82,118a.59.59,0,0,1-.6.6h-1.37c-1.54,0-2.14-.43-2.48-1.2h-.08a5.58,5.58,0,0,1-3.6,1.54c-3.67,0-5.38-2.9-5.38-6.32,0-4.54,2.82-6.84,5.64-6.84a4,4,0,0,1,3.16,1.45l.09-.6a.57.57,0,0,1,.6-.51h2.31a.54.54,0,0,1,.6.6v8.8c0,.26.08.43.34.43h.17c.34,0,.51.09.51.51V118Zm-5-8.21a3.26,3.26,0,0,0-2.05-.85c-1.29,0-2.4,1-2.4,3.42,0,1.62.43,3.5,2.4,3.5a2.84,2.84,0,0,0,2.13-1.11v-5Z" transform="translate(-64.9 -40.87)"/><path class="cls-1" d="M316.37,117.91c0,.51-.25.68-.68.68h-2.48a.62.62,0,0,1-.68-.68V101.32c0-.51.25-.69.6-.69l2.65-.34c.34,0,.51.26.51.6v17Z" transform="translate(-64.9 -40.87)"/><path class="cls-1" d="M336.13,106.71l-3.42,11.11a.82.82,0,0,1-.94.69h-2.14c-.51,0-.77-.26-.94-.77l-1.88-6.33h-.09l-1.88,6.41a.85.85,0,0,1-.94.69h-2a.85.85,0,0,1-.86-.77l-3.33-11.12v-.17c0-.26.25-.34.6-.34h2.65a.77.77,0,0,1,.85.6l1.37,7h0l2.14-7a.76.76,0,0,1,.85-.6h1.8c.51,0,.77.17.85.51l2.06,7.18h0l1.53-7.09a.79.79,0,0,1,.86-.69h2.56c.35,0,.43.17.43.34A.7.7,0,0,0,336.13,106.71Z" transform="translate(-64.9 -40.87)"/><path class="cls-1" d="M349.89,118a.58.58,0,0,1-.59.6h-1.37c-1.54,0-2.14-.43-2.48-1.2h-.09a5.55,5.55,0,0,1-3.59,1.54c-3.68,0-5.39-2.9-5.39-6.32,0-4.54,2.83-6.84,5.65-6.84a4,4,0,0,1,3.16,1.45l.09-.6a.56.56,0,0,1,.59-.51h2.31a.54.54,0,0,1,.6.6v8.8c0,.26.09.43.34.43h.18c.34,0,.51.09.51.51V118Zm-5-8.21a3.23,3.23,0,0,0-2.05-.85c-1.28,0-2.39,1-2.39,3.42,0,1.62.43,3.5,2.39,3.5a2.88,2.88,0,0,0,2.14-1.11v-5Z" transform="translate(-64.9 -40.87)"/><path class="cls-1" d="M363.15,106.88l-5,13.16c-1.19,3.08-2.73,4.19-6.07,4.19a8.15,8.15,0,0,1-1.54-.17c-.51-.08-.51-.42-.43-.85l.26-1.63c.09-.59.26-.59.6-.59s.68.08,1,.08c1.71,0,2.22-.51,2.73-1.62l.34-.77-4.78-11.89c0-.08-.09-.17-.09-.26a.4.4,0,0,1,.43-.42h3.08a.7.7,0,0,1,.77.51l2.39,7.61,2.22-7.35c.17-.52.43-.77.94-.77h2.65a.4.4,0,0,1,.43.42A.51.51,0,0,1,363.15,106.88Z" transform="translate(-64.9 -40.87)"/><path class="cls-1" d="M368.28,118.93A11,11,0,0,1,364,118a.43.43,0,0,1-.34-.43.62.62,0,0,1,.09-.34l.51-1.62c.08-.34.17-.43.34-.43a.89.89,0,0,1,.43.09,9.68,9.68,0,0,0,3.33.77c.86,0,1.37-.35,1.37-.86s-.26-.77-1.2-1.11l-2.3-.86a3.83,3.83,0,0,1-2.66-3.59c0-2.73,2.66-3.84,4.88-3.84a8.58,8.58,0,0,1,4,.85.45.45,0,0,1,.34.43.29.29,0,0,1-.09.25l-.51,1.8a.56.56,0,0,1-.43.34.31.31,0,0,1-.25-.08,9.11,9.11,0,0,0-2.82-.6c-.86,0-1.2.43-1.2.85s.08.6.94.94l2.56,1a3.46,3.46,0,0,1,2.31,3.33C373.49,117.82,370.84,118.93,368.28,118.93Z" transform="translate(-64.9 -40.87)"/><polygon class="cls-1" points="0 0 0 2.65 9.15 2.65 9.15 36 12.4 36 12.4 2.65 21.55 2.65 21.55 0 0 0"/><path class="cls-1" d="M88.41,40.87h3V54h.08c.77-2.73,3.34-4.27,6.5-4.27,4,0,6.84,2.14,6.84,7.1v20h-3V57.71c0-3.68-1.54-5.47-4.53-5.47-3.51,0-5.82,2.73-5.82,6.84V77h-3V40.87Z" transform="translate(-64.9 -40.87)"/><path class="cls-1" d="M122.27,61.22c-.08-6.59-2-9-5.64-9s-5.56,2.39-5.64,9Zm2.91,6.84c-.43,5.64-3.5,9.4-8.55,9.4-5.64,0-8.89-3.93-8.89-13.94,0-9.14,3.33-13.85,9.15-13.85s8.55,4,8.55,12.91V63.7H110.9V65c0,7.61,2.74,10,5.65,10,3.16,0,5.13-2.22,5.64-6.92Z" transform="translate(-64.9 -40.87)"/><path class="cls-1" d="M150.58,60c0-3.93-.94-5.64-3.08-5.64-2.74,0-3.08,3.42-3.08,9,0,6.07.34,8.9,3.08,8.9,2.39,0,3-1.63,3.08-6.42h7.52c-.08,8.38-3.33,11.72-10.69,11.72-10.17,0-11-7.18-11-15.22,0-7.61,2.23-13.26,11-13.26,8.47,0,10.69,4.45,10.69,10.86h-7.52Z" transform="translate(-64.9 -40.87)"/><path class="cls-1" d="M171.1,54.46c-2.39,0-3.08,2.31-3.08,8.89s.69,9,3.08,9,3-2.22,3-8.89-.51-9-3-9m-11.2,9c0-8.12,1.79-14.28,11.11-14.28,9.92,0,11.12,6.07,11.12,14.19S180.33,77.63,171,77.63c-9.92,0-11.11-6.07-11.11-14.19" transform="translate(-64.9 -40.87)"/><path class="cls-1" d="M204,54.46c-2.39,0-3.08,2.31-3.08,8.89s.69,9,3.08,9,3-2.22,3-8.89-.43-9-3-9m-11.2,9c0-8.12,1.79-14.28,11.11-14.28,9.92,0,11.12,6.07,11.12,14.19s-1.8,14.28-11.12,14.28c-9.83,0-11.11-6.07-11.11-14.19" transform="translate(-64.9 -40.87)"/><path class="cls-1" d="M227.7,71.73c2.91,0,3.08-3.25,3.08-8.12,0-4.36-.08-8.46-3.16-8.46-2.4,0-2.91,2.9-2.91,8.12,0,4.7.17,8.46,3,8.46M216.76,49.84h7.78v3.34h.09a5.64,5.64,0,0,1,5.81-4c5.47,0,8.38,3.93,8.38,14,0,8.38-1.2,14.45-7.87,14.45A6.26,6.26,0,0,1,224.88,74h-.08V85.67h-8.13V49.84Z" transform="translate(-64.9 -40.87)"/><path class="cls-1" d="M254.3,60c0-3.76-.52-5.82-2.74-5.82-2.65,0-3.08,2.23-3.08,5.82Zm-5.82,4.7v1.63c0,4.19.6,6.24,3,6.24,2.13,0,2.73-1.54,2.9-5h7.53c-.17,6.67-3.77,9.92-10.52,9.92-10.18,0-11-7.18-11-15.22,0-7.61,2.22-13.26,11-13.26,10.09,0,10.77,6.33,10.77,15.57H248.48Z" transform="translate(-64.9 -40.87)"/><path class="cls-1" d="M263.7,49.84h7.78v3.77h.09a6.89,6.89,0,0,1,6.5-4.54,6.52,6.52,0,0,1,1.28.09v7.61a9.78,9.78,0,0,0-2.22-.17c-3.25,0-5.3,1.37-5.3,4.87V76.78H263.7Z" transform="translate(-64.9 -40.87)"/><path class="cls-1" d="M305.52,55.49h-3.34V49.93h3.34V40.87h8.12v9h3.76V55.4h-3.76V69.08c0,1.88.68,2.48,2.56,2.48.35,0,.77-.08,1.12-.08v5.38a42.24,42.24,0,0,1-4.62.35c-5.65,0-7.18-1-7.18-7.27Z" transform="translate(-64.9 -40.87)"/><path class="cls-1" d="M319.62,76.86h8.13v-27h-8.13Zm0-29.84h8.13V40.87h-8.13Z" transform="translate(-64.9 -40.87)"/><polygon class="cls-1" points="264.47 8.98 272.85 8.98 276.01 28.9 276.1 28.9 279.35 8.98 287.39 8.98 280.72 36 271.14 36 264.47 8.98"/><path class="cls-1" d="M365.71,60c0-3.76-.51-5.82-2.73-5.82-2.65,0-3.08,2.23-3.08,5.82Zm-5.81,4.7v1.63c0,4.19.6,6.24,2.91,6.24,2.13,0,2.73-1.54,2.9-5h7.53c-.17,6.67-3.77,9.92-10.52,9.92-10.18,0-11-7.18-11-15.22,0-7.61,2.22-13.26,11-13.26,10.09,0,10.77,6.33,10.77,15.57H359.9Z" transform="translate(-64.9 -40.87)"/><rect class="cls-1" x="118.43" y="19.15" width="8.12" height="6.58"/><path class="cls-1" d="M293.2,68.31c0,2.74-1.54,3.68-3.25,3.68-1.45,0-2.31-1.28-2.31-3.42a3.31,3.31,0,0,1,1.29-3c.77-.6,1.88-.69,4.44-2a32.75,32.75,0,0,0-.17,4.7m7.53,2.74V57.11c0-5.73-3-8-9.58-8-3.33,0-5.64.43-7.52,1.8-1.63,1.11-2.74,3-3,5.9h7.27a2.51,2.51,0,0,1,2.82-2.39c1.8,0,2.57,1,2.57,2.73,0,2-.43,2.48-2.91,3.08-2.22.6-5.21,1.11-7.27,2.22s-3.33,3.77-3.33,6.93c0,5.81,2.65,8.29,7.18,8.29a6.72,6.72,0,0,0,6.33-3.84h.08a17.88,17.88,0,0,0,.43,3.07h7.78c-.85-1.19-.85-3.76-.85-5.81" transform="translate(-64.9 -40.87)"/><path class="cls-2" d="M393.33,75c3,0,5.82-1.54,5.82-11.54S396.32,52,393.33,52s-5.81,1.54-5.81,11.46S390.25,75,393.33,75m-8.89-34.11h3V54.12h.09c.68-2.82,2.9-4.62,6.24-4.62,5.9,0,8.55,4.7,8.55,13.94s-2.65,14-8.55,14a6.68,6.68,0,0,1-6.59-5h-.08v4.44h-2.74v-36Z" transform="translate(-64.9 -40.87)"/><path class="cls-2" d="M417.87,61.73h-.08c-.35.94-2.06,1.45-3.25,1.79l-2.48.69c-3,.77-4.62,2.39-4.62,5.56S409.06,75,411.71,75c3.68,0,6.25-2.73,6.25-7.61V61.73Zm-12.82-3.68c0-5.47,2.65-8.55,8.29-8.55S421,52.41,421,56.6V72.42c0,1.54.51,2.22,1.54,2.22h.85v2.22a5.07,5.07,0,0,1-1.45.35c-2.39,0-3.85-.6-3.85-3.34v-.94H418c-1.2,3.51-3.94,4.53-6.93,4.53-4.7,0-6.84-2.9-6.84-7.61,0-3.5,1.62-6.33,5.39-7.44l5.73-1.62c2.13-.6,2.56-1.11,2.56-4.28,0-3.42-1.88-4.61-4.62-4.61-3.59,0-5.13,2.13-5.13,6.07h-3.07Z" transform="translate(-64.9 -40.87)"/><path class="cls-2" d="M425.57,50.1h2.73v3.76h.09a7.5,7.5,0,0,1,6.84-4.36c4.1,0,6.84,2.14,6.84,7.18V77h-3V57.54c0-3.68-1.54-5.47-4.62-5.47-3.51,0-5.9,2.73-5.9,6.84V77h-3V50.1Z" transform="translate(-64.9 -40.87)"/><polygon class="cls-2" points="381.27 0 381.27 36 384.27 36 384.27 26.68 388.29 21.89 396.24 36 400 36 390.42 19.15 398.55 9.23 394.78 9.23 384.35 22.57 384.27 22.57 384.27 0 381.27 0"/></svg>