<svg width="149" height="80" viewBox="0 0 149 80" fill="none" xmlns="http://www.w3.org/2000/svg">
<g clip-path="url(#clip0)">
<path d="M123.247 0V22.5371C119.568 22.9325 116.021 23.7232 112.473 24.7776V0H115.626V1.58155H119.962V0H123.247Z" fill="#E6007E"/>
<path d="M136.123 6.72168V22.4054C132.576 22.1418 129.028 22.1418 125.349 22.4054V6.72168H128.503V8.30323H132.839V6.72168H136.123Z" fill="#009FE3"/>
<path d="M149 0V24.9094C145.452 23.855 141.905 23.0643 138.357 22.6689V0H141.51V1.58155H145.846V0H149Z" fill="#005A9B"/>
<path d="M19.052 36.1119C16.9497 34.794 15.2416 34.0032 12.8765 34.0032C8.01499 34.0032 6.17549 40.1976 6.17549 44.6787C6.17549 49.0279 7.8836 55.0905 12.4824 55.0905C14.8474 55.0905 17.3439 53.9044 19.052 52.85V36.1119ZM11.2998 59.308C3.28483 59.308 0 51.0048 0 44.5469C0 37.8253 3.67901 29.6539 11.694 29.6539C14.3219 29.6539 16.6869 30.3129 19.052 31.2355V14.1021H24.7019V54.2997C20.6287 57.331 16.4242 59.308 11.2998 59.308Z" fill="#005A9B"/>
<path d="M39.024 59.3081C34.8194 59.3081 29.6951 56.804 29.6951 50.8731V30.4448H35.6078V49.4234C35.6078 53.1137 38.2356 55.2224 41.7832 55.2224C43.8855 55.2224 45.7251 54.2998 47.1704 53.3773V30.4448H52.9517V54.5634C48.8785 57.4629 44.4111 59.3081 39.024 59.3081Z" fill="#005A9B"/>
<path d="M75.5511 36.1119C73.4488 34.794 71.7407 34.0032 69.3756 34.0032C64.5141 34.0032 62.6746 40.1976 62.6746 44.6787C62.6746 49.0279 64.3827 55.0905 68.9814 55.0905C71.3465 55.0905 73.843 53.9044 75.5511 52.85V36.1119ZM67.6675 59.308C59.6525 59.308 56.3677 51.0048 56.3677 44.6787C56.3677 37.9571 60.0467 29.7857 68.0617 29.7857C70.6895 29.7857 73.0546 30.4447 75.4197 31.3673V14.1021H81.0696V54.2997C77.1278 57.331 72.7918 59.308 67.6675 59.308Z" fill="#005A9B"/>
<path d="M86.4565 51.7956V14.1021H91.9751V51.7956C91.9751 54.8269 93.289 55.4859 96.8366 55.6177V59.1762C90.2669 59.8351 86.4565 56.9356 86.4565 51.7956Z" fill="#005A9B"/>
<path d="M110.239 34.135C106.823 34.135 105.378 37.2981 104.852 40.8566H115.101C114.97 37.2981 113.393 34.135 110.239 34.135ZM116.152 58.5172C112.21 59.7034 106.955 59.7034 103.538 56.8038C100.516 54.1679 98.6768 49.6869 98.6768 45.074C98.6768 37.9571 101.567 30.0493 109.977 30.0493C117.992 30.0493 120.751 35.7165 120.882 44.8104H104.589C104.327 51.2684 107.743 55.2223 111.948 55.0905C114.838 55.0905 116.809 54.0361 119.831 52.7182L121.408 56.0131C119.568 57.1992 117.992 58.1218 116.152 58.5172Z" fill="#005A9B"/>
<path d="M133.101 68.7974C136.386 68.402 140.854 67.743 142.562 64.7117C143.35 63.1302 143.35 59.8353 143.35 57.8583C140.459 59.0445 137.7 59.5717 134.415 59.5717C130.211 59.5717 125.086 56.4086 125.086 51.005V30.4448H130.999V49.4234C130.999 53.1137 133.496 55.0906 137.175 54.9588C139.277 54.9588 141.642 53.7727 143.087 52.8501V30.4448H149V55.7496C149 58.9127 148.869 63.7891 147.423 66.4251C145.058 71.1697 138.226 72.883 133.233 73.0148V68.7974H133.101Z" fill="#005A9B"/>
<path d="M43.8855 66.425H47.8273C48.6157 66.425 49.1412 66.5568 49.5354 66.9522C49.9296 67.3476 50.1924 67.743 50.1924 68.402C50.1924 68.7974 50.061 69.1928 49.9296 69.4564C49.6668 69.7199 49.404 69.9835 49.0098 70.1153C49.5354 70.2471 49.9296 70.5107 50.1924 70.7743C50.4552 71.1697 50.5866 71.5651 50.5866 72.0923C50.5866 72.3559 50.5866 72.7512 50.4552 73.0148C50.3238 73.2784 50.1924 73.542 49.9296 73.6738C49.6668 73.9374 49.404 74.0692 49.0098 74.201C48.6157 74.3328 48.2215 74.3328 47.6959 74.3328H44.0169V66.425H43.8855ZM45.3308 69.7199H47.6959C48.0901 69.7199 48.3529 69.5881 48.4843 69.4564C48.7471 69.3246 48.8784 68.9292 48.8784 68.6656C48.8784 68.2702 48.747 68.0066 48.6157 67.743C48.3529 67.6112 48.0901 67.4794 47.6959 67.4794H45.3308V69.7199ZM45.3308 73.2784H47.8273C48.2215 73.2784 48.6157 73.1466 48.8784 72.883C49.1412 72.6194 49.2726 72.3559 49.2726 71.9605C49.2726 71.5651 49.1412 71.3015 48.8784 71.0379C48.6157 70.7743 48.3529 70.7743 47.8273 70.7743H45.3308V73.2784Z" fill="#005A9B"/>
<path d="M56.7618 74.4647H55.4478V73.6739C55.3165 73.9375 55.0537 74.2011 54.7909 74.3329C54.5281 74.4647 54.1339 74.5965 53.8711 74.5965C53.0828 74.5965 52.5572 74.4647 52.163 74.0693C51.7688 73.6739 51.6375 73.1468 51.6375 72.356V68.6657H52.9514V72.2242C52.9514 72.7514 53.0828 73.1468 53.2142 73.2786C53.3456 73.5421 53.7397 73.5421 54.0025 73.5421C54.2653 73.5421 54.5281 73.5421 54.6595 73.4103C54.7909 73.2786 54.9223 73.2786 55.0537 73.015C55.1851 72.8832 55.1851 72.7514 55.3165 72.4878C55.3165 72.356 55.4478 72.0924 55.4478 71.8288V68.4021H56.7618V74.4647Z" fill="#005A9B"/>
<path d="M58.2068 66.425H59.5207V67.6112H58.2068V66.425ZM58.2068 68.6656H59.5207V74.5964H58.2068V68.6656Z" fill="#005A9B"/>
<path d="M62.2802 66.425H60.9663V74.5964H62.2802V66.425Z" fill="#005A9B"/>
<path d="M69.1126 74.4646H67.9301V73.6738C67.7987 74.0692 67.5359 74.201 67.1417 74.4646C66.7475 74.5964 66.4847 74.7282 66.0906 74.7282C65.565 74.7282 65.1708 74.5964 64.908 74.4646C64.5138 74.3328 64.2511 74.0692 63.9883 73.8056C63.7255 73.542 63.5941 73.1466 63.4627 72.7512C63.3313 72.3559 63.3313 71.9605 63.3313 71.5651C63.3313 71.0379 63.4627 70.6425 63.5941 70.2471C63.7255 69.8517 63.9883 69.5881 64.1197 69.3246C64.251 69.061 64.6452 68.9292 64.908 68.7974C65.1708 68.6656 65.565 68.6656 65.8278 68.6656C65.9592 68.6656 66.2219 68.6656 66.3533 68.6656C66.4847 68.6656 66.7475 68.7974 66.8789 68.7974C67.0103 68.9292 67.2731 68.9292 67.4045 69.061C67.5359 69.1928 67.6673 69.3246 67.7987 69.4564V66.425H69.1126V74.4646ZM64.6452 71.5651C64.6452 71.8287 64.6452 72.0923 64.7766 72.3559C64.7766 72.6194 64.908 72.7512 65.0394 73.0148C65.1708 73.1466 65.3022 73.4102 65.565 73.4102C65.8278 73.542 65.9592 73.542 66.3533 73.542C66.6161 73.542 66.8789 73.542 67.1417 73.4102C67.4045 73.2784 67.5359 73.1466 67.6673 72.883C67.7987 72.7512 67.9301 72.4877 67.9301 72.2241C67.9301 71.9605 68.0615 71.6969 68.0615 71.4333C68.0615 70.7743 67.9301 70.2471 67.6673 69.8517C67.4045 69.4563 67.0103 69.3246 66.4847 69.3246C66.2219 69.3246 65.9592 69.3246 65.6964 69.4564C65.4336 69.5881 65.3022 69.7199 65.1708 69.9835C65.0394 70.2471 64.908 70.3789 64.908 70.6425C64.6452 71.0379 64.6452 71.3015 64.6452 71.5651Z" fill="#005A9B"/>
<path d="M70.5583 66.425H71.8723V67.6112H70.5583V66.425ZM70.5583 68.6656H71.8723V74.5964H70.5583V68.6656Z" fill="#005A9B"/>
<path d="M73.3171 68.6655H74.4997V69.5881C74.6311 69.3245 74.8939 69.0609 75.288 68.7973C75.5508 68.6655 75.945 68.5337 76.3392 68.5337C76.9962 68.5337 77.5217 68.6655 77.9159 69.0609C78.3101 69.4563 78.4415 69.8516 78.4415 70.5106V74.5963H77.1275V70.906C77.1275 70.3788 76.9962 70.1152 76.8648 69.8516C76.7334 69.5881 76.3392 69.5881 76.0764 69.5881C75.8136 69.5881 75.6822 69.5881 75.5508 69.7199C75.4194 69.8517 75.288 69.8516 75.1566 69.9834C75.0253 70.1152 74.8939 70.247 74.8939 70.5106C74.7625 70.6424 74.7625 70.906 74.7625 71.1696V74.5963H73.4485V68.6655H73.3171Z" fill="#005A9B"/>
<path d="M85.1429 74.2011C85.1429 75.1237 84.8801 75.7827 84.3545 76.1781C83.8289 76.5735 83.172 76.8371 82.2522 76.8371C81.9894 76.8371 81.7267 76.8371 81.3325 76.7053C81.0697 76.7053 80.8069 76.5735 80.5441 76.4417C80.2813 76.3099 80.1499 76.0463 79.8871 75.9145C79.7557 75.6509 79.6244 75.3873 79.6244 74.9919H80.9383C80.9383 75.1237 81.0697 75.2555 81.0697 75.3873C81.2011 75.5191 81.3325 75.6509 81.3325 75.6509C81.4639 75.6509 81.5953 75.7827 81.7267 75.7827C81.858 75.7827 81.9894 75.7827 82.2522 75.7827C82.7778 75.7827 83.172 75.6509 83.4348 75.3873C83.6976 75.1237 83.829 74.7283 83.829 74.3329V73.4104C83.6976 73.6739 83.4348 73.9375 83.0406 74.2011C82.7778 74.3329 82.3836 74.4647 81.9894 74.4647C81.4639 74.4647 81.0697 74.3329 80.8069 74.2011C80.5441 74.0693 80.1499 73.8057 80.0185 73.5421C79.7558 73.2786 79.6244 72.8832 79.493 72.6196C79.3616 72.2242 79.3616 71.8288 79.3616 71.4334C79.3616 71.038 79.3616 70.6426 79.493 70.2472C79.6244 69.8519 79.7558 69.5883 80.0185 69.3247C80.2813 69.0611 80.5441 68.7975 80.8069 68.6657C81.0697 68.5339 81.4639 68.4021 81.858 68.4021C82.2522 68.4021 82.515 68.5339 82.9092 68.6657C83.172 68.7975 83.4348 69.0611 83.5662 69.4565V68.6657H84.8801V74.2011H85.1429ZM82.3836 73.4104C82.6464 73.4104 82.9092 73.4103 83.172 73.2786C83.4348 73.1468 83.5662 73.015 83.6976 72.7514C83.829 72.6196 83.9603 72.356 83.9603 72.0924C83.9603 71.8288 84.0917 71.5652 84.0917 71.3016C84.0917 71.038 84.0917 70.7744 83.9603 70.5108C83.9603 70.2472 83.829 70.1154 83.6976 69.8519C83.5662 69.7201 83.4348 69.5883 83.172 69.4565C82.9092 69.3247 82.7778 69.3247 82.515 69.3247C82.2522 69.3247 81.9894 69.3247 81.7267 69.4565C81.5953 69.5883 81.3325 69.7201 81.2011 69.9836C81.0697 70.1154 80.9383 70.379 80.9383 70.6426C80.9383 70.9062 80.8069 71.1698 80.8069 71.4334C80.8069 71.697 80.8069 71.9606 80.9383 72.0924C80.9383 72.356 81.0697 72.4878 81.2011 72.7514C81.3325 72.8832 81.4639 73.015 81.7267 73.1468C81.858 73.4104 81.9894 73.4104 82.3836 73.4104Z" fill="#005A9B"/>
<path d="M90.7929 71.8286C90.7929 72.0922 90.7929 72.3558 90.9243 72.6194C91.0557 72.883 91.1871 73.0148 91.3185 73.1466C91.4498 73.2784 91.7126 73.4102 91.9754 73.4102C92.2382 73.4102 92.501 73.542 92.7638 73.542C93.0266 73.542 93.2893 73.542 93.5521 73.4102C93.8149 73.2784 93.9463 73.2784 94.0777 73.1466C94.2091 73.0148 94.3405 72.883 94.3405 72.7512C94.3405 72.6194 94.4719 72.4876 94.4719 72.3558C94.4719 72.0922 94.3405 71.8286 94.2091 71.6968C94.0777 71.5651 93.9463 71.4333 93.8149 71.4333C93.5521 71.3015 93.158 71.1697 92.7638 71.1697C92.3696 71.0379 91.9754 70.9061 91.3185 70.7743C90.9243 70.6425 90.6615 70.5107 90.3987 70.3789C90.1359 70.2471 90.0045 70.1153 89.8731 69.8517C89.7417 69.7199 89.6103 69.4563 89.6103 69.3245C89.6103 69.0609 89.4789 68.9291 89.4789 68.6655C89.4789 68.2702 89.6103 67.8748 89.7417 67.6112C89.8731 67.3476 90.1359 67.084 90.3987 66.8204C90.6615 66.6886 91.0557 66.425 91.3185 66.425C91.7126 66.2932 91.9754 66.2932 92.3696 66.2932C92.7638 66.2932 93.158 66.2932 93.5521 66.425C93.9463 66.5568 94.2091 66.6886 94.6033 66.9522C94.8661 67.2158 95.1289 67.4794 95.2603 67.743C95.3916 68.0066 95.523 68.4019 95.523 68.7973H94.0777C94.0777 68.2702 93.8149 67.8748 93.5521 67.743C93.2893 67.4794 92.8952 67.4794 92.3696 67.4794C92.2382 67.4794 91.9754 67.4794 91.844 67.4794C91.7126 67.4794 91.4498 67.6112 91.3185 67.6112C91.1871 67.743 91.0557 67.743 90.9243 67.8748C90.7929 68.0066 90.7929 68.1384 90.7929 68.402C90.7929 68.6655 90.9243 68.9291 91.0557 69.0609C91.1871 69.1927 91.4498 69.3245 91.7126 69.4563C91.7126 69.4563 91.844 69.4563 92.1068 69.5881C92.3696 69.5881 92.501 69.7199 92.7638 69.7199C93.0266 69.8517 93.2893 69.8517 93.5521 69.9835C93.8149 69.9835 93.9463 70.1153 94.0777 70.1153C94.3405 70.2471 94.6033 70.3789 94.7347 70.5107C94.8661 70.6425 95.1289 70.7743 95.2603 71.0379C95.3916 71.1697 95.523 71.4333 95.523 71.6968C95.523 71.9604 95.6544 72.0922 95.6544 72.3558C95.6544 72.7512 95.523 73.1466 95.3916 73.542C95.2602 73.8056 94.9975 74.0692 94.6033 74.3328C94.3405 74.5964 93.9463 74.7282 93.5521 74.7282C93.158 74.8599 92.7638 74.8599 92.3696 74.8599C91.844 74.8599 91.4498 74.8599 91.0557 74.7282C90.6615 74.5964 90.2673 74.4646 90.0045 74.201C89.7417 73.9374 89.4789 73.6738 89.2162 73.2784C89.0848 72.883 88.9534 72.4876 88.9534 71.9604H90.7929V71.8286Z" fill="#005A9B"/>
<path d="M99.5963 74.5963C99.0707 74.5963 98.6765 74.4645 98.2823 74.3327C97.8882 74.2009 97.6254 73.9373 97.3626 73.6737C97.0998 73.4101 96.9684 73.0148 96.837 72.7512C96.7056 72.3558 96.5742 71.9604 96.5742 71.565C96.5742 71.1696 96.7056 70.6424 96.837 70.3788C96.9684 69.9834 97.0998 69.7199 97.3626 69.4563C97.6254 69.1927 97.8882 68.9291 98.2823 68.7973C98.6765 68.6655 99.0707 68.5337 99.5963 68.5337C100.122 68.5337 100.516 68.6655 100.91 68.7973C101.304 68.9291 101.567 69.1927 101.83 69.4563C102.093 69.7199 102.224 70.1152 102.356 70.3788C102.487 70.7742 102.618 71.1696 102.618 71.565C102.618 71.9604 102.487 72.4876 102.356 72.7512C102.224 73.1465 102.093 73.4101 101.83 73.6737C101.567 73.9373 101.304 74.2009 100.91 74.3327C100.516 74.5963 100.122 74.5963 99.5963 74.5963ZM99.5963 73.6737C99.8591 73.6737 100.122 73.6737 100.385 73.5419C100.647 73.4101 100.779 73.2783 100.91 73.0148C101.042 72.883 101.173 72.6194 101.173 72.3558C101.173 72.0922 101.304 71.8286 101.304 71.565C101.304 71.3014 101.304 71.0378 101.173 70.7742C101.173 70.5106 101.042 70.247 100.91 70.1152C100.779 69.9834 100.647 69.7199 100.385 69.5881C100.122 69.4563 99.9905 69.4563 99.5963 69.4563C99.3335 69.4563 99.0707 69.4563 98.8079 69.5881C98.5451 69.7199 98.4137 69.8517 98.2823 70.1152C98.1509 70.247 98.0195 70.5106 98.0195 70.7742C98.0195 71.0378 97.8882 71.3014 97.8882 71.565C97.8882 71.8286 97.8882 72.0922 98.0195 72.3558C98.0195 72.6194 98.1509 72.883 98.2823 73.0148C98.4137 73.2783 98.5451 73.4101 98.8079 73.5419C99.0707 73.5419 99.3335 73.6737 99.5963 73.6737Z" fill="#005A9B"/>
<path d="M107.611 70.6426C107.611 70.2472 107.348 69.9837 107.217 69.8519C106.954 69.7201 106.691 69.5883 106.297 69.5883C106.166 69.5883 105.903 69.5883 105.772 69.7201C105.64 69.7201 105.377 69.8519 105.246 69.9836C105.115 70.1154 104.983 70.379 104.852 70.6426C104.72 70.9062 104.72 71.3016 104.72 71.697C104.72 71.9606 104.72 72.2242 104.852 72.4878C104.852 72.7514 104.983 72.8832 105.115 73.1468C105.246 73.2786 105.377 73.5421 105.64 73.5421C105.903 73.6739 106.034 73.6739 106.297 73.6739C106.691 73.6739 106.954 73.5421 107.217 73.2786C107.48 73.015 107.611 72.7514 107.611 72.2242H108.925C108.794 73.015 108.531 73.5421 108.005 73.9375C107.611 74.3329 106.954 74.5965 106.166 74.5965C105.772 74.5965 105.246 74.4647 104.983 74.3329C104.589 74.2011 104.326 73.9375 104.063 73.6739C103.801 73.4104 103.669 73.1468 103.538 72.7514C103.407 72.356 103.406 71.9606 103.406 71.5652C103.406 71.1698 103.407 70.7744 103.538 70.379C103.669 69.9837 103.801 69.7201 104.063 69.3247C104.326 69.0611 104.589 68.7975 104.983 68.6657C105.377 68.5339 105.772 68.4021 106.297 68.4021C106.691 68.4021 106.954 68.4021 107.217 68.5339C107.48 68.6657 107.742 68.7975 108.005 68.9293C108.268 69.0611 108.399 69.3247 108.531 69.5883C108.662 69.8519 108.794 70.1154 108.794 70.5108H107.611V70.6426Z" fill="#005A9B"/>
<path d="M109.976 66.425H111.29V67.6112H109.976V66.425ZM109.976 68.6656H111.29V74.5964H109.976V68.6656Z" fill="#005A9B"/>
<path d="M113.655 71.8288C113.655 72.0923 113.655 72.2241 113.787 72.4877C113.787 72.7513 113.918 72.8831 114.049 73.0149C114.181 73.1467 114.312 73.2785 114.575 73.4103C114.838 73.5421 114.969 73.5421 115.232 73.5421C115.626 73.5421 115.889 73.4103 116.152 73.2785C116.415 73.1467 116.546 72.8831 116.677 72.4877H117.86C117.728 72.7513 117.728 73.1467 117.466 73.2785C117.334 73.5421 117.071 73.6739 116.809 73.9375C116.546 74.0693 116.283 74.2011 116.02 74.3329C115.758 74.4647 115.363 74.4647 115.101 74.4647C114.575 74.4647 114.181 74.3329 113.918 74.2011C113.524 74.0693 113.261 73.8057 112.998 73.5421C112.735 73.2785 112.604 72.8831 112.473 72.6195C112.341 72.2241 112.341 71.8288 112.341 71.4334C112.341 71.038 112.341 70.6426 112.473 70.2472C112.604 69.8518 112.735 69.5882 112.998 69.1928C113.261 68.9292 113.524 68.6657 113.918 68.5339C114.312 68.4021 114.706 68.2703 115.101 68.2703C115.626 68.2703 116.02 68.4021 116.283 68.5339C116.677 68.6657 116.94 68.9292 117.203 69.3246C117.466 69.5882 117.597 69.9836 117.728 70.379C117.86 70.7744 117.86 71.1698 117.86 71.697H113.655V71.8288ZM116.677 71.038C116.677 70.7744 116.677 70.6426 116.546 70.5108C116.415 70.379 116.415 70.1154 116.283 69.9836C116.152 69.8518 116.02 69.72 115.889 69.5882C115.758 69.4564 115.495 69.4564 115.232 69.4564C114.969 69.4564 114.838 69.4564 114.575 69.5882C114.444 69.72 114.181 69.72 114.049 69.8518C113.918 69.9836 113.787 70.1154 113.787 70.379C113.655 70.5108 113.655 70.7744 113.655 71.038H116.677Z" fill="#005A9B"/>
<path d="M118.385 68.6655H119.305V66.9521H120.619V68.6655H121.802V69.5881H120.619V72.7512C120.619 72.883 120.619 73.0148 120.619 73.1465C120.619 73.2783 120.619 73.2783 120.751 73.4101C120.751 73.5419 120.882 73.5419 120.882 73.5419C121.013 73.5419 121.013 73.5419 121.276 73.5419C121.408 73.5419 121.408 73.5419 121.539 73.5419C121.67 73.5419 121.67 73.5419 121.802 73.5419V74.5963C121.67 74.5963 121.539 74.5963 121.408 74.5963C121.276 74.5963 121.145 74.5963 121.013 74.5963C120.619 74.5963 120.356 74.5963 120.225 74.4645C119.962 74.4645 119.831 74.3327 119.699 74.2009C119.568 74.0691 119.568 73.9373 119.437 73.6737C119.437 73.5419 119.305 73.2783 119.305 73.0148V69.5881H118.385V68.6655Z" fill="#005A9B"/>
<path d="M122.064 68.6655H123.51L125.086 73.0148L126.532 68.6655H127.846L125.612 74.8599C125.481 75.1235 125.349 75.3871 125.349 75.6507C125.218 75.9143 125.086 76.0461 124.955 76.3097C124.824 76.4415 124.561 76.705 124.43 76.705C124.167 76.8368 123.904 76.8368 123.641 76.8368C123.378 76.8368 122.984 76.8368 122.721 76.705V75.6507C122.853 75.6507 122.984 75.6507 122.984 75.6507C123.116 75.6507 123.247 75.6507 123.247 75.6507C123.378 75.6507 123.51 75.6507 123.641 75.6507C123.773 75.6507 123.773 75.5189 123.904 75.5189C123.904 75.3871 124.035 75.3871 124.035 75.2553C124.035 75.1235 124.167 74.9917 124.167 74.8599L124.298 74.4645L122.064 68.6655Z" fill="#005A9B"/>
<path d="M18.3945 71.8288C18.3945 71.9606 18.3945 72.0924 18.2631 72.2242V72.356L18.3945 72.8832L18.2631 73.4103V73.6739V73.8057V74.4647V74.5965V74.9919V75.1237V75.2555V76.178L18.3945 76.4416V76.5734V76.837V76.9688V77.2324L18.2631 77.3642V77.496V77.6278C18.2631 77.7596 18.1317 78.0232 18.0003 78.2868L17.8689 78.6822C17.7375 78.6822 17.7375 78.6822 17.7375 78.814L17.6061 78.9458L17.4747 79.2093L17.0805 79.0776C16.9491 79.3411 16.8177 79.3411 16.6863 79.4729L16.5549 79.6047L16.4236 79.7365L16.2922 79.8683H16.1608L16.0294 80.0001H15.7666L15.5038 80.1319L15.241 80.0001L14.8468 80.1319H14.7154H14.584L14.1899 80.0001H13.9271L13.7957 79.8683L13.2701 79.7365L12.7445 79.6047L12.6131 79.4729H12.3504L12.219 79.2093H12.0876L11.9562 78.9458L11.6934 78.814L11.4306 78.5504L11.0364 78.2868V78.0232C11.0364 78.0232 11.0364 77.8914 10.905 77.496C10.905 77.3642 10.905 77.2324 11.0364 76.9688V76.837L11.1678 76.7052L11.2992 76.4416L11.4306 76.178L11.6934 76.0463H11.8248L12.219 75.7827H12.6131C12.7445 75.6509 12.8759 75.6509 13.0073 75.6509C13.2701 75.7827 13.2701 75.9145 13.2701 76.0463C13.2701 76.178 13.2701 76.178 13.1387 76.3098L13.2701 76.4416L13.0073 76.5734H12.7445L12.6131 76.837H12.3504L12.219 76.9688L12.0876 77.1006V77.3642L11.9562 77.496V77.6278L12.0876 77.8914L12.3504 78.0232L12.4817 78.2868L12.8759 78.5504H13.1387L13.4015 78.6822H13.6643L13.7957 78.814H13.9271L14.0585 78.9458H14.7154L15.1096 78.814H15.3724L15.6352 78.6822C15.7666 78.6822 15.7666 78.6822 15.7666 78.6822C15.7666 78.6822 15.7666 78.6822 15.898 78.6822L16.0294 78.5504H16.1608V78.4186L16.2922 78.2868C16.2922 78.155 16.4236 78.155 16.5549 78.0232C16.5549 78.0232 16.5549 77.8914 16.6863 77.7596L16.9491 77.6278V77.496C16.9491 77.3642 17.0805 77.3642 17.0805 77.2324V76.7052V76.4416L16.9491 76.178L17.0805 76.0463V75.6509V75.3873V75.2555V74.5965L16.9491 74.4647L17.0805 74.2011V73.8057V73.1467L16.9491 73.015L17.0805 72.8832V72.7514V72.4878L16.9491 72.2242V71.697L17.0805 71.9606L16.9491 72.0924L16.8177 72.2242H16.6863V72.356L16.4236 72.4878L16.2922 72.6196L16.0294 72.8832L15.6352 73.2785H15.5038V73.4103L15.1096 73.8057H14.9782L14.8468 73.9375V74.0693L14.4527 74.2011V74.3329H14.1899L13.9271 74.4647H13.6643L13.5329 74.5965H13.4015C13.2701 74.7283 13.1387 74.7283 12.8759 74.7283C12.6131 74.7283 12.3504 74.5965 12.219 74.4647L11.8248 74.2011V73.9375L11.6934 73.4103V73.015V72.8832L11.8248 72.7514L11.6934 72.4878L11.8248 72.356V72.2242V71.9606V71.697V71.5652V71.4334C11.8248 71.3016 11.8248 71.038 11.9562 70.7744V70.379V69.9836L11.8248 69.5883V69.4565V69.3247L11.9562 68.9293C11.9562 68.7975 11.9562 68.6657 11.9562 68.5339C12.0876 68.5339 12.219 68.4021 12.3504 68.4021C12.4817 68.4021 12.4818 68.4021 12.6131 68.4021L12.7445 68.6657L13.0073 68.7975C13.0073 68.9293 13.0073 69.0611 12.8759 69.1929L13.0073 69.4565V69.5883L13.1387 69.7201L13.0073 69.9836L13.1387 70.379L13.0073 70.5108L12.8759 71.1698V71.697L12.7445 71.8288V72.356L12.6131 72.4878V72.6196V72.7514L12.7445 73.015L12.6131 73.1467V73.4103V73.5421L12.7445 73.8057H12.8759V73.9375L13.0073 73.8057H13.4015C13.4015 73.8057 13.5329 73.6739 13.6643 73.6739C13.9271 73.5421 14.0585 73.4103 14.1899 73.4103V73.2785C14.4527 73.1467 14.7154 73.015 15.1096 72.7514V72.6196C15.1096 72.6196 15.1096 72.6196 14.9782 72.6196C14.9782 72.6196 15.1096 72.6196 15.1096 72.4878V72.356L15.241 72.2242L15.3724 72.0924L15.5038 71.9606H15.6352H15.7666L15.898 71.8288H16.0294L16.2922 71.5652L16.4236 71.3016C16.5549 71.3016 16.5549 71.1698 16.6863 71.1698L16.8177 70.7744V70.379H16.9491L17.0805 69.5883C17.0805 69.4565 16.9491 69.4565 16.9491 69.3247C16.9491 69.1929 16.9491 69.0611 17.0805 68.9293V68.7975C17.2119 68.6657 17.3433 68.5339 17.6061 68.5339L18.0003 68.9293V69.3247L18.1317 69.5883L18.2631 69.8519V69.9836V70.1154V70.2472V70.379V70.6426V70.9062V71.1698V71.3016V71.5652L18.3945 71.8288Z" fill="#E6007E"/>
<path d="M25.0962 71.3014L24.9648 71.565C24.9648 71.8286 24.9648 71.9604 24.9648 72.0922V72.224V72.3558L24.8334 72.4876V72.6194L24.702 72.7512L24.5706 73.1466H24.4392V73.2784L24.3078 73.4102L24.1764 73.6738L23.9136 73.8055V73.9373L23.6508 74.0691C23.5195 74.2009 23.3881 74.3327 23.2567 74.3327C23.1253 74.4645 22.9939 74.5963 22.7311 74.5963C22.5997 74.5963 22.4683 74.7281 22.4683 74.7281L22.3369 74.8599H22.2055L22.0741 74.9917H21.9427H21.8113L21.5486 74.8599H20.8916L20.6288 74.5963L20.366 74.3327L20.4974 74.0691L20.2346 73.542L20.366 73.4102V73.0148V72.7512V72.4876C20.366 72.3558 20.366 72.224 20.4974 72.0922C20.4974 71.9604 20.6288 71.8286 20.6288 71.6968H20.7602V71.565V71.4332V71.1696C20.8916 71.0378 20.8916 71.0378 20.8916 71.0378V70.906C20.8916 70.7743 21.023 70.6425 21.023 70.5107L21.2858 70.1153C21.2858 70.1153 21.4172 70.1153 21.4172 69.9835L21.6799 69.7199V69.4563L22.0741 69.3245C22.2055 69.1927 22.3369 69.0609 22.3369 68.9291H22.4683C22.5997 68.9291 22.5997 68.7973 22.7311 68.7973C22.8625 68.7973 22.8625 68.7973 22.9939 68.7973H23.1253L23.5195 68.6655L23.6508 68.7973L23.7822 68.9291H23.6508L23.9136 69.0609H24.045C24.1764 69.1927 24.3078 69.3245 24.4392 69.4563V69.5881H24.5706L24.8334 69.9835L25.0962 70.6425V70.7743V71.3014ZM24.1764 71.565C24.045 71.4332 24.045 71.3014 24.045 71.3014V71.1696L23.9136 70.906V70.6425V70.5107C23.7822 70.3789 23.7822 70.3789 23.7822 70.2471C23.6508 70.2471 23.6508 70.1153 23.6508 69.9835H23.5195L23.3881 69.8517L23.2567 69.7199L22.9939 69.5881H22.8625H22.7311L22.4683 69.8517L22.3369 70.2471L22.0741 70.3789V70.5107L21.9427 70.6425V71.0378L21.8113 71.1696C21.8113 71.3014 21.8113 71.4332 21.8113 71.565L21.5486 71.8286H21.6799C21.6799 71.9604 21.6799 72.0922 21.5486 72.0922C21.5486 72.224 21.4172 72.224 21.4172 72.3558V72.4876V72.6194L21.023 72.883V73.0148V73.4102V73.542V73.6738L21.1544 73.8055L21.2858 73.9373H21.4172H21.5486H21.9427V73.8055H22.0741H22.2055H22.3369L22.4683 73.6738H22.5997C22.5997 73.542 22.8625 73.4102 22.9939 73.4102V73.2784L23.2567 73.1466L23.3881 72.883L23.6508 72.7512V72.6194L23.7822 72.4876L23.9136 72.3558V72.224L24.045 72.0922C24.045 71.9604 24.045 71.9604 24.045 71.8286C24.045 71.8286 24.1764 71.6968 24.1764 71.565Z" fill="#E6007E"/>
<path d="M33.8994 73.6739C33.8994 73.8057 33.768 73.9375 33.6366 74.0693H33.5052L33.3738 74.2011L33.111 74.3329L32.9796 74.4647C32.7168 74.5965 32.5855 74.5965 32.1913 74.5965H32.0599L31.6657 74.4647L31.5343 74.3329L31.0087 73.9375L30.8773 73.5421L30.6145 73.4103V73.2785C30.6145 73.2785 30.6146 73.1467 30.4832 73.0149V72.6195C30.4832 72.4877 30.4832 72.3559 30.3518 72.2241L30.4832 71.8288L30.3518 72.2241H30.089V72.4877C29.9576 72.4877 29.9576 72.4877 29.8262 72.4877L29.6948 72.8831L29.5634 73.1467C29.432 73.2785 29.432 73.2785 29.432 73.2785L28.9064 73.6739L28.6436 73.9375L28.3809 74.0693L28.2495 74.2011L27.9867 74.3329L27.5925 74.4647L27.3297 74.3329C27.1983 74.3329 27.0669 74.2011 26.9355 74.0693L26.8041 73.9375C26.8041 73.9375 26.8041 73.9375 26.8041 73.8057V73.6739L26.5414 73.5421V73.4103L26.2786 73.2785V73.1467C26.2786 73.1467 26.2786 73.1467 26.2786 73.0149C26.2786 72.8831 26.2786 72.7513 26.2786 72.7513V72.3559V72.0923C26.2786 71.9605 26.2786 71.9605 26.2786 71.9605V71.8288L26.41 71.697V71.5652V71.1698L26.5414 70.2472C26.5414 70.1154 26.5414 69.8518 26.41 69.5882C26.41 69.3246 26.6727 69.1928 26.9355 69.061H27.0669H27.1983L27.4611 69.3246L27.3297 69.72V70.379V70.7744L27.1983 70.9062V71.038L27.3297 71.1698V71.3016V71.4334C27.3297 71.5652 27.3297 71.697 27.3297 71.8288V71.9605V72.2241V72.3559V72.4877C27.4611 72.4877 27.4611 72.6195 27.4611 72.7513C27.4611 72.8831 27.4611 72.8831 27.3297 73.0149C27.3297 73.1467 27.4611 73.2785 27.4611 73.2785L27.5925 73.4103C27.5925 73.4103 27.7239 73.2785 27.8553 73.2785C27.8553 73.1467 27.9867 73.1467 28.1181 73.1467V73.0149C28.1181 73.0149 28.2495 73.0149 28.3809 73.0149V72.8831L28.6436 72.7513C28.6436 72.7513 28.775 72.6195 28.9064 72.6195L29.1692 72.4877C29.1692 72.3559 29.3006 72.2241 29.5634 72.0923C29.6948 71.9605 29.6948 71.9605 29.8262 71.9605L29.9576 71.697H30.089L30.2204 71.5652L30.4832 71.4334L30.6145 71.3016V71.1698H30.7459C30.7459 71.038 30.8773 70.9062 31.0087 70.7744L31.2715 70.2472L31.4029 69.9836L31.5343 69.8518H31.4029C31.5343 69.72 31.5343 69.4564 31.6657 69.3246H32.0599L32.3227 69.5882L32.4541 69.8518L32.3227 70.5108L32.0599 70.7744L31.9285 71.3016L31.7971 71.4334V71.1698L31.5343 71.3016V71.5652L31.4029 71.697V72.0923V72.7513H31.5343V73.1467L31.6657 73.4103L31.7971 73.5421V73.6739C31.7971 73.6739 31.9285 73.6739 32.0599 73.8057H32.4541H32.7168L33.111 73.6739C33.2424 73.6739 33.2424 73.6739 33.3738 73.6739C33.768 73.2785 33.8994 73.4103 33.8994 73.6739Z" fill="#E6007E"/>
<path d="M39.9441 69.3246L39.8127 69.8518H39.2871L39.0243 69.9836L38.8929 69.8518L38.7615 69.9836L38.4987 70.1154L38.3673 70.2472L38.1046 70.379L37.9732 70.6426H37.8418C37.7104 70.7744 37.579 70.9062 37.579 70.9062L37.4476 71.1698H37.3162C37.3162 71.3016 37.3162 71.3016 37.1848 71.5652L36.7906 71.697V71.9605L36.6592 72.0923V72.3559H36.5278V72.4877C36.5278 72.4877 36.5278 72.6195 36.6592 72.6195L36.3965 72.7513V72.8831L36.2651 73.1467L36.3965 73.2785L36.2651 73.5421C36.2651 73.6739 36.2651 73.6739 36.2651 73.6739C36.2651 73.6739 36.2651 73.6739 36.2651 73.8057V73.9375L36.5278 74.2011L36.3965 74.4647L36.2651 74.5965L35.8709 74.7283L35.3453 74.4647V74.2011V74.0693V73.8057C35.3453 73.6739 35.3453 73.5421 35.3453 73.4103C35.3453 73.4103 35.3453 73.4103 35.3453 73.2785V73.1467V73.0149C35.3453 73.0149 35.2139 72.8831 35.2139 72.7513C35.2139 72.6195 35.2139 72.6195 35.3453 72.4877C35.3453 72.4877 35.3453 72.3559 35.3453 72.0923V71.9605V71.8287V71.697V71.4334L35.2139 71.3016V71.1698V71.038C35.2139 71.038 35.2139 70.9062 35.2139 70.7744C35.2139 70.6426 35.2139 70.5108 35.2139 70.5108V70.379V70.1154L35.0825 69.9836L35.2139 69.72V69.5882V69.1928V69.061C35.2139 69.061 35.0825 68.9292 35.0825 68.7974C35.0825 68.6657 35.3453 68.4021 35.7395 68.2703L36.1337 68.4021L36.2651 68.6656L36.3965 68.7974V69.1928C36.3965 69.3246 36.3964 69.5882 36.5278 69.8518V70.1154V70.2472C36.5278 70.2472 36.5278 70.379 36.3965 70.379V70.6426V70.9062V71.038V71.1698C36.3965 71.1698 36.5278 71.038 36.5278 70.9062V70.6426L36.6592 70.5108V70.2472L36.7906 70.1154V69.9836L36.922 69.8518L37.0534 69.5882C37.1848 69.4564 37.3162 69.3246 37.4476 69.3246L37.579 69.1928H37.7104V69.061L37.8418 68.9292L37.9732 68.7974H38.1046H38.236V68.6656L38.3673 68.5339L38.6301 68.4021L39.0243 68.2703C39.1557 68.2703 39.1557 68.2703 39.2871 68.2703H39.4185H39.5499H39.6813C39.8127 69.061 39.9441 69.1928 39.9441 69.3246Z" fill="#E6007E"/>
</g>
<defs>
<clipPath id="clip0">
<rect width="149" height="80" fill="white"/>
</clipPath>
</defs>
</svg>
