<?xml version="1.0" encoding="UTF-8" standalone="no"?><!DOCTYPE svg PUBLIC "-//W3C//DTD SVG 1.1//EN" "http://www.w3.org/Graphics/SVG/1.1/DTD/svg11.dtd"><svg width="100%" height="100%" viewBox="0 0 334 182" version="1.1" xmlns="http://www.w3.org/2000/svg" xmlns:xlink="http://www.w3.org/1999/xlink" xml:space="preserve" xmlns:serif="http://www.serif.com/" style="fill-rule:evenodd;clip-rule:evenodd;stroke-linejoin:round;stroke-miterlimit:2;"><g><g><path d="M0,93.333l30,0l0,9.167l-20,0l0,9.167l18.75,-0l0,9.166l-18.75,0l0,17.5l-10,0l0,-45Z" style="fill-rule:nonzero;"/><path d="M35,122.917c0,-2.5 0.417,-4.584 1.25,-6.667c0.833,-2.083 2.083,-3.75 3.75,-5c1.667,-1.25 3.333,-2.5 5.417,-3.333c2.083,-0.834 4.166,-1.25 6.666,-1.25c2.5,-0 4.584,0.416 6.667,1.25c2.083,0.833 3.75,1.666 5.417,3.333c1.666,1.25 2.916,2.917 3.75,5c0.833,2.083 1.25,4.167 1.25,6.667c-0,2.5 -0.417,4.583 -1.25,6.666c-0.834,2.084 -2.084,3.75 -3.75,5c-1.667,1.25 -3.334,2.5 -5.417,3.334c-2.083,0.833 -4.167,1.25 -6.667,1.25c-2.5,-0 -4.583,-0.417 -6.666,-1.25c-2.084,-0.834 -3.75,-1.667 -5.417,-3.334c-1.667,-1.25 -2.917,-2.916 -3.75,-5c-0.833,-2.083 -1.25,-4.166 -1.25,-6.666Zm9.583,-0c0,2.5 0.834,4.166 2.084,5.833c1.25,1.25 3.333,2.083 5.416,2.083c2.5,0 4.167,-0.833 5.417,-2.083c1.25,-1.25 2.083,-3.333 2.083,-5.833c0,-2.5 -0.833,-4.167 -2.083,-5.834c-1.25,-1.25 -3.333,-2.083 -5.417,-2.083c-2.5,0 -4.166,0.833 -5.416,2.083c-1.667,1.667 -2.084,3.75 -2.084,5.834Z" style="fill-rule:nonzero;"/><path d="M104.167,138.333l-9.167,0l0,-4.166c-0.417,0.416 -0.833,1.25 -1.25,1.666c-0.417,0.417 -1.25,1.25 -2.083,1.667c-0.834,0.417 -1.667,0.833 -2.5,1.25c-0.834,0.417 -2.084,0.417 -3.334,0.417c-2.5,-0 -4.166,-0.417 -5.833,-1.25c-1.667,-0.834 -2.5,-1.667 -3.333,-2.917c-0.834,-1.25 -1.25,-2.917 -1.667,-4.583c-0.417,-1.667 -0.417,-3.75 -0.417,-5.834l0,-17.083l9.584,0l-0,17.917c-0,0.833 0.416,1.666 0.416,2.5c0.417,0.833 0.834,1.25 1.25,2.083c0.834,0.417 1.667,0.833 2.917,0.833c1.25,0 2.083,-0.416 2.917,-0.833c0.833,-0.417 1.25,-0.833 1.666,-1.667c0.417,-0.833 0.834,-1.666 0.834,-2.5l-0,-18.333l10,0l-0,30.833Z" style="fill-rule:nonzero;"/><path d="M111.25,107.5l9.167,0l-0,4.167c0.416,-0.417 0.833,-1.25 1.25,-1.667c0.416,-0.417 1.25,-1.25 2.083,-1.667c0.833,-0.416 1.667,-0.833 2.5,-1.25c0.833,-0.416 2.083,-0.416 3.333,-0.416c2.5,-0 4.167,0.416 5.834,1.25c1.666,0.833 2.5,1.666 3.333,2.916c0.833,1.25 1.25,2.917 1.667,4.584c0.416,1.666 0.416,3.75 0.416,5.833l0,17.083l-9.583,0l0,-17.916c0,-0.834 -0.417,-1.667 -0.417,-2.5c-0.416,-0.834 -0.833,-1.25 -1.25,-2.084c-0.833,-0.416 -1.666,-0.833 -2.916,-0.833c-1.25,0 -2.084,0.417 -2.917,0.833c-0.833,0.417 -1.25,0.834 -1.667,1.667c-0.416,0.833 -0.833,1.667 -0.833,2.5l0,18.333l-9.583,0l-0,-30.833l-0.417,0Z" style="fill-rule:nonzero;"/><path d="M179.583,138.333l-8.75,0l0,-4.166c-0.416,0.416 -0.833,1.25 -1.666,1.666c-0.417,0.417 -1.25,1.25 -2.084,1.667c-0.833,0.417 -1.666,0.833 -2.916,1.25c-0.834,0.417 -2.084,0.417 -2.917,0.417c-2.083,-0 -4.167,-0.417 -6.25,-1.25c-1.667,-0.834 -3.333,-2.084 -4.583,-3.334c-1.25,-1.25 -2.5,-2.916 -2.917,-5c-0.833,-2.083 -1.25,-4.166 -1.25,-6.25c0,-2.083 0.417,-4.166 0.833,-6.25c0.834,-2.083 1.667,-3.75 2.917,-5.416c1.25,-1.667 2.5,-2.917 4.583,-3.75c1.667,-0.834 3.75,-1.25 5.834,-1.25c2.083,-0 3.75,0.416 5.416,0.833c1.667,0.417 2.917,1.667 4.167,3.333l0,-20.416l9.583,-0l0,47.916Zm-8.75,-15.416c0,-2.5 -0.833,-4.167 -2.083,-5.834c-1.25,-1.25 -3.333,-2.083 -5.417,-2.083c-2.5,0 -4.166,0.833 -5.416,2.083c-1.25,1.25 -2.084,3.334 -2.084,5.834c0,2.5 0.834,4.166 2.084,5.833c1.25,1.25 3.333,2.083 5.416,2.083c2.5,0 4.167,-0.833 5.417,-2.083c1.667,-1.667 2.083,-3.333 2.083,-5.833Z" style="fill-rule:nonzero;"/><path d="M206.667,134.583c-1.25,1.667 -2.5,2.917 -4.167,3.75c-1.667,0.834 -3.75,1.25 -5.417,1.25c-1.25,0 -2.916,0 -4.166,-0.416c-1.25,-0.417 -2.5,-0.834 -3.334,-1.667c-0.833,-0.833 -1.666,-1.667 -2.5,-2.917c-0.416,-1.25 -0.833,-2.5 -0.833,-4.166c0,-1.667 0.417,-3.334 0.833,-4.584c0.834,-1.25 1.667,-2.083 2.5,-2.916c1.25,-0.834 2.5,-1.25 3.75,-1.667c1.25,-0.417 2.917,-0.833 4.584,-0.833c1.666,-0.417 2.916,-0.417 4.583,-0.417l4.167,-0c-0,-1.667 -0.417,-2.917 -1.667,-4.167c-1.25,-0.833 -2.5,-1.666 -4.167,-1.666c-1.666,-0 -2.916,0.416 -4.166,0.833c-1.25,0.833 -2.5,1.667 -3.334,2.5l-5,-5c1.667,-1.667 3.75,-2.917 6.25,-3.75c2.5,-0.833 5,-1.25 7.5,-1.25c2.917,-0 5,0.417 7.084,1.25c1.666,0.833 3.333,1.667 4.166,2.917c1.25,1.25 1.667,2.916 2.084,5c0.416,2.083 0.833,4.166 0.833,6.666l0,15.834l-8.75,-0l0,-4.584l-0.833,0Zm-0.417,-9.583l-4.583,0c-1.25,0 -2.084,0.417 -2.917,0.417c-0.833,0.416 -1.667,0.833 -2.5,1.25c-0.833,0.416 -1.25,1.25 -1.25,2.5c0,1.25 0.417,2.083 1.25,2.5c0.833,0.416 2.083,0.833 2.917,0.833c0.833,0 1.666,0 2.5,-0.417c0.833,-0.416 1.666,-0.416 2.5,-1.25c0.833,-0.416 1.25,-1.25 1.666,-1.666c0.417,-0.834 0.417,-1.667 0.417,-2.5l0,-1.667Z" style="fill-rule:nonzero;"/><path d="M242.5,115l-8.333,0l-0,12.917c-0,0.833 0.416,1.25 0.416,1.666c0.417,0.417 0.834,0.834 1.25,1.25c0.417,0.417 1.25,0.417 2.5,0.417l2.084,0c0.833,0 1.25,-0.417 1.666,-0.833l0,7.916c-1.25,0.417 -2.083,0.834 -3.333,0.834l-3.333,-0c-1.667,-0 -2.917,-0 -4.584,-0.417c-1.25,-0.417 -2.5,-0.833 -3.75,-1.667c-0.833,-0.833 -1.666,-1.666 -2.5,-2.916c-0.416,-1.25 -0.833,-2.5 -0.833,-4.167l0,-14.583l-6.25,-0l0,-7.5l6.25,-0l0,-9.167l9.583,0l0,9.167l8.334,-0l-0,7.083l0.833,0Z" style="fill-rule:nonzero;"/><path d="M246.667,97.917c-0,-1.667 0.416,-2.917 1.666,-3.75c1.25,-1.25 2.5,-1.667 3.75,-1.667c1.25,0 2.917,0.417 3.75,1.667c1.25,1.25 1.667,2.5 1.667,3.75c0,1.666 -0.417,2.916 -1.667,3.75c-1.25,1.25 -2.5,1.666 -3.75,1.666c-1.25,0 -2.916,-0.416 -3.75,-1.666c-0.833,-1.25 -1.666,-2.084 -1.666,-3.75Zm0.833,9.583l9.583,0l0,30.833l-9.583,0l-0,-30.833Z" style="fill-rule:nonzero;"/><path d="M262.5,122.917c0,-2.5 0.417,-4.584 1.25,-6.667c0.833,-2.083 2.083,-3.75 3.75,-5c1.667,-1.25 3.333,-2.5 5.417,-3.333c2.083,-0.834 4.166,-1.25 6.666,-1.25c2.5,-0 4.584,0.416 6.667,1.25c2.083,0.833 3.75,1.666 5.417,3.333c1.666,1.25 2.916,2.917 3.75,5c0.833,2.083 1.25,4.167 1.25,6.667c-0,2.5 -0.417,4.583 -1.25,6.666c-0.834,2.084 -2.084,3.75 -3.75,5c-1.667,1.25 -3.334,2.5 -5.417,3.334c-2.083,0.833 -4.167,1.25 -6.667,1.25c-2.5,-0 -4.583,-0.417 -6.666,-1.25c-2.084,-0.834 -3.75,-1.667 -5.417,-3.334c-1.667,-1.25 -2.917,-2.916 -3.75,-5c-0.833,-2.083 -1.25,-4.166 -1.25,-6.666Zm9.583,-0c0,2.5 0.834,4.166 2.084,5.833c1.25,1.25 3.333,2.083 5.416,2.083c2.5,0 4.167,-0.833 5.417,-2.083c1.25,-1.25 2.083,-3.333 2.083,-5.833c0,-2.5 -0.833,-4.167 -2.083,-5.834c-1.25,-1.25 -3.333,-2.083 -5.417,-2.083c-2.5,0 -4.166,0.833 -5.416,2.083c-1.667,1.667 -2.084,3.75 -2.084,5.834Z" style="fill-rule:nonzero;"/><path d="M302.5,107.5l9.167,0l-0,4.167c0.416,-0.417 0.833,-1.25 1.25,-1.667c0.416,-0.417 1.25,-1.25 2.083,-1.667c0.833,-0.416 1.667,-0.833 2.5,-1.25c0.833,-0.416 2.083,-0.416 3.333,-0.416c2.5,-0 4.167,0.416 5.834,1.25c1.666,0.833 2.5,1.666 3.333,2.916c0.833,1.25 1.25,2.917 1.667,4.584c0.416,1.666 0.416,3.75 0.416,5.833l0,17.083l-9.583,0l0,-17.916c0,-0.834 -0.417,-1.667 -0.417,-2.5c-0.416,-0.834 -0.833,-1.25 -1.25,-2.084c-0.833,-0.416 -1.666,-0.833 -2.916,-0.833c-1.25,0 -2.084,0.417 -2.917,0.833c-0.833,0.417 -1.25,0.834 -1.667,1.667c-0.416,0.833 -0.833,1.667 -0.833,2.5l-0,18.333l-9.583,0l-0,-30.833l-0.417,0Z" style="fill-rule:nonzero;"/></g><g><path d="M91.667,149.167l4.166,-0l0,12.916l16.25,0l0,-12.916l4.167,-0l0,30.833l-4.167,0l0,-14.167l-16.25,0l0,14.167l-4.166,0l-0,-30.833Z" style="fill-rule:nonzero;"/><path d="M122.083,170c0,-1.667 0.417,-2.917 0.834,-4.167c0.416,-1.25 1.25,-2.5 2.5,-3.333c0.833,-0.833 2.083,-1.667 3.333,-2.5c1.25,-0.417 2.917,-0.833 4.167,-0.833c1.666,-0 2.916,0.416 4.166,0.833c1.25,0.417 2.5,1.25 3.334,2.5c0.833,0.833 1.666,2.083 2.5,3.333c0.416,1.25 0.833,2.917 0.833,4.167c0,1.667 -0.417,2.917 -0.833,4.167c-0.417,1.25 -1.25,2.5 -2.5,3.333c-0.834,0.833 -2.084,1.667 -3.334,2.5c-1.25,0.417 -2.916,0.833 -4.166,0.833c-1.667,0 -2.917,-0.416 -4.167,-0.833c-1.25,-0.417 -2.5,-1.25 -3.333,-2.5c-0.834,-0.833 -1.667,-2.083 -2.5,-3.333c-0.834,-1.25 -0.834,-2.5 -0.834,-4.167Zm4.167,0c0,1.25 0,2.083 0.417,2.917c0.416,0.833 0.833,1.666 1.25,2.083c0.416,0.833 1.25,1.25 2.083,1.667c0.833,0.416 1.667,0.416 2.917,0.416c1.25,0 2.083,0 2.916,-0.416c0.834,-0.417 1.667,-0.834 2.084,-1.667c0.416,-0.833 0.833,-1.25 1.25,-2.083c0.416,-0.834 0.416,-1.667 0.416,-2.917c0,-1.25 0,-2.083 -0.416,-2.917c-0.417,-0.833 -0.834,-1.666 -1.25,-2.083c-0.417,-0.833 -1.25,-1.25 -2.084,-1.667c-0.833,-0.416 -1.666,-0.416 -2.916,-0.416c-1.25,-0 -2.084,-0 -2.917,0.416c-0.833,0.417 -1.667,0.834 -2.083,1.667c-0.417,0.833 -0.834,1.25 -1.25,2.083c-0.417,0.834 -0.417,1.667 -0.417,2.917Z" style="fill-rule:nonzero;"/><path d="M149.167,159.583l3.75,0l-0,3.334c-0,-0.417 0.416,-0.834 0.833,-1.25c0.417,-0.417 0.833,-0.834 1.25,-1.25c0.417,-0.417 1.25,-0.834 2.083,-0.834c0.834,-0.416 1.667,-0.416 2.5,-0.416c1.667,-0 2.917,0.416 3.75,0.833c1.25,0.833 2.084,1.667 2.5,2.917c0.834,-1.25 1.667,-2.084 2.917,-2.917c1.25,-0.833 2.5,-0.833 3.75,-0.833c1.667,-0 2.917,0.416 3.75,0.833c0.833,0.417 1.667,1.25 2.5,2.083c0.417,0.834 0.833,1.667 1.25,2.917c0.417,1.25 0.417,2.083 0.417,3.333l-0,12.084l-3.75,-0l-0,-13.75c-0,-0.834 -0.417,-1.25 -0.834,-2.084c-0.416,-0.416 -0.833,-0.833 -1.25,-1.25c-0.416,-0.416 -1.25,-0.416 -2.5,-0.416c-2.083,-0 -3.333,0.416 -4.166,1.666c-0.834,1.25 -1.25,2.5 -1.25,4.584l-0,11.25l-4.167,-0l0,-13.75c0,-0.834 -0.417,-1.667 -0.417,-2.084c-0.416,-0.416 -0.833,-1.25 -1.25,-1.25c-0.416,-0.416 -1.25,-0.416 -2.5,-0.416c-0.833,-0 -1.25,-0 -2.083,0.416c-0.833,0.417 -1.25,0.834 -1.667,1.25c-0.416,0.417 -0.833,1.25 -1.25,2.084c-0.416,0.833 -0.416,2.083 -0.416,2.916l-0,10.834l-3.75,-0l-0,-20.834Z" style="fill-rule:nonzero;"/><path d="M189.167,171.25c-0,0.833 -0,1.667 0.416,2.5c0.417,0.833 0.834,1.25 1.667,2.083c0.833,0.417 1.25,0.834 2.083,1.25c0.834,0.417 1.667,0.417 2.5,0.417c1.25,0 2.5,-0.417 3.334,-0.833c0.833,-0.417 1.666,-1.25 2.5,-2.084l2.916,2.084c-2.083,2.916 -5.416,4.166 -9.166,4.166c-1.667,0 -2.917,-0.416 -4.584,-0.833c-1.25,-0.417 -2.5,-1.25 -3.333,-2.5c-0.833,-0.833 -1.667,-2.083 -2.083,-3.333c-0.417,-1.25 -0.834,-2.917 -0.834,-4.167c0,-1.25 0.417,-2.917 0.834,-4.167c0.416,-1.25 1.25,-2.5 2.083,-3.333c0.833,-0.833 2.083,-1.667 3.333,-2.5c1.25,-0.417 2.917,-0.833 4.167,-0.833c1.667,-0 3.333,0.416 4.583,0.833c1.25,0.833 2.5,1.667 3.334,2.5c0.833,0.833 1.25,2.083 1.666,3.333c0.417,1.25 0.417,2.5 0.417,4.167l0,1.25l-15.833,0Zm12.5,-2.917c-0,-0.833 -0,-1.666 -0.417,-2.5c-0.417,-0.833 -0.417,-1.25 -1.25,-2.083c-0.417,-0.417 -1.25,-0.833 -1.667,-1.25c-0.833,-0.417 -1.666,-0.417 -2.5,-0.417c-0.833,0 -1.666,0 -2.5,0.417c-0.833,0.417 -1.666,0.833 -2.083,1.25c-0.417,0.417 -0.833,1.25 -1.25,2.083c-0.417,0.834 -0.417,1.25 -0.417,2.084l12.084,-0l-0,0.416Z" style="fill-rule:nonzero;"/><path d="M223.75,149.167l4.167,-0l-0,27.083l14.166,0l0,3.75l-18.333,0l0,-30.833Z" style="fill-rule:nonzero;"/><path d="M244.583,170c0,-1.667 0.417,-2.917 0.834,-4.167c0.416,-1.25 1.25,-2.5 2.5,-3.333c0.833,-0.833 2.083,-1.667 3.333,-2.5c1.25,-0.417 2.917,-0.833 4.167,-0.833c1.666,-0 2.916,0.416 4.166,0.833c1.25,0.417 2.5,1.25 3.334,2.5c0.833,0.833 1.666,2.083 2.5,3.333c0.416,1.25 0.833,2.917 0.833,4.167c0,1.667 -0.417,2.917 -0.833,4.167c-0.417,1.25 -1.25,2.5 -2.5,3.333c-0.834,0.833 -2.084,1.667 -3.334,2.5c-1.25,0.417 -2.916,0.833 -4.166,0.833c-1.667,0 -2.917,-0.416 -4.167,-0.833c-1.25,-0.417 -2.5,-1.25 -3.333,-2.5c-0.834,-0.833 -1.667,-2.083 -2.5,-3.333c-0.417,-1.25 -0.834,-2.5 -0.834,-4.167Zm4.167,0c0,1.25 0,2.083 0.417,2.917c0.416,0.833 0.833,1.666 1.25,2.083c0.416,0.833 1.25,1.25 2.083,1.667c0.833,0.416 1.667,0.416 2.917,0.416c1.25,0 2.083,0 2.916,-0.416c0.834,-0.417 1.667,-0.834 2.084,-1.667c0.416,-0.833 0.833,-1.25 1.25,-2.083c0.416,-0.834 0.416,-1.667 0.416,-2.917c0,-1.25 0,-2.083 -0.416,-2.917c-0.417,-0.833 -0.834,-1.666 -1.25,-2.083c-0.417,-0.833 -1.25,-1.25 -2.084,-1.667c-0.833,-0.416 -1.666,-0.416 -2.916,-0.416c-1.25,-0 -2.084,-0 -2.917,0.416c-0.833,0.417 -1.667,0.834 -2.083,1.667c-0.417,0.833 -0.834,1.25 -1.25,2.083c-0.417,0.834 -0.417,1.667 -0.417,2.917Z" style="fill-rule:nonzero;"/><path d="M271.667,162.083c1.25,-0.833 2.5,-1.666 3.75,-2.5c1.666,-0.416 2.916,-0.833 4.583,-0.833c1.667,0 2.917,0 3.75,0.417c1.25,0.416 2.083,0.833 2.5,1.666c0.833,0.834 1.25,1.25 1.667,2.084c0.416,0.833 0.416,1.666 0.416,2.5l0,14.166l-3.333,0l0,-3.333c-0.833,1.25 -2.083,2.5 -2.917,2.917c-1.25,0.416 -2.5,0.833 -4.166,0.833c-0.834,0 -2.084,0 -2.917,-0.417c-0.833,-0.416 -1.667,-0.833 -2.5,-1.25c-0.833,-0.416 -1.25,-1.25 -1.667,-2.083c-0.416,-0.833 -0.416,-1.667 -0.416,-2.5c-0,-1.25 0.416,-2.5 0.833,-3.333c0.417,-0.834 1.25,-1.667 2.5,-2.084c0.833,-0.416 2.083,-0.833 3.75,-1.25c1.25,-0.416 2.917,-0.416 4.583,-0.416l2.917,-0c-0,-0.417 -0,-1.25 -0.417,-1.667c0,-0.417 -0.416,-0.833 -0.833,-1.25c-0.417,-0.417 -0.833,-0.833 -1.667,-0.833c-0.416,-0.417 -1.25,-0.417 -2.083,-0.417c-0.833,0 -1.25,0 -2.083,0.417c-0.417,-0 -1.25,0.416 -1.667,0.416c-0.417,0.417 -0.833,0.417 -1.25,0.834c-0.417,0.416 -0.833,0.416 -1.25,0.833l-2.083,-2.917Zm13.333,8.334l-5,-0c-0.833,-0 -1.667,0.416 -2.5,0.416c-0.833,0.417 -1.667,0.834 -2.083,1.25c-0.417,0.417 -0.834,1.25 -0.834,2.084c0,1.25 0.417,2.083 1.25,2.5c0.834,0.416 2.084,0.833 3.334,0.833c1.25,0 2.083,0 2.916,-0.417c0.834,-0.416 1.25,-0.833 1.667,-1.25c0.417,-0.416 0.833,-1.25 0.833,-2.083c0,-0.833 0.417,-1.25 0.417,-2.083l0,-1.25Z" style="fill-rule:nonzero;"/><path d="M294.167,159.583l3.75,0l-0,3.334c0.416,-1.25 1.25,-2.084 2.5,-2.5c1.25,-0.834 2.5,-0.834 4.166,-0.834c0.834,0 2.084,0 2.917,0.417c0.833,0.417 1.667,0.833 2.5,1.25c0.833,0.833 1.25,1.667 1.667,2.5c0.416,0.833 0.416,2.083 0.416,3.75l0,13.333l-3.75,0l0,-12.083c0,-0.833 0,-1.667 -0.416,-2.5c-0.417,-0.833 -0.417,-1.25 -1.25,-1.667c-0.417,-0.416 -0.834,-0.833 -1.667,-0.833c-0.417,-0 -1.25,-0.417 -1.667,-0.417c-0.833,0 -1.666,0 -2.083,0.417c-0.833,0.417 -1.25,0.833 -1.667,1.25c-0.416,0.417 -0.833,1.25 -1.25,2.083c-0.416,0.834 -0.416,2.084 -0.416,2.917l-0,10.833l-3.75,0l-0,-21.25Z" style="fill-rule:nonzero;"/><path d="M329.583,165c-0.416,-0.417 -1.25,-1.25 -1.666,-1.667c-0.834,-0.416 -1.667,-0.416 -2.5,-0.416c-0.834,-0 -1.667,-0 -2.5,0.416c-0.834,0.417 -0.834,0.834 -0.834,1.667c0,0.417 0,1.25 0.417,1.667c0.417,0.416 0.833,0.833 1.25,0.833c0.417,0.417 1.25,0.417 1.667,0.417c0.416,-0 1.25,0.416 1.666,0.416c0.834,0 1.667,0.417 2.5,0.834c0.834,0.416 1.25,0.833 2.084,1.25c0.416,0.416 0.833,0.833 1.25,1.666c0.416,0.834 0.416,1.667 0.416,2.5c0,1.25 -0.416,2.084 -0.833,2.917c-0.417,0.833 -1.25,1.667 -2.083,2.083c-0.834,0.417 -1.667,0.834 -2.5,1.25c-0.834,0.417 -2.084,0.417 -2.917,0.417c-1.667,0 -3.333,-0.417 -4.583,-0.833c-1.25,-0.417 -2.5,-1.667 -3.334,-2.917l2.917,-2.5c0.833,0.833 1.25,1.25 2.083,1.667c0.834,0.416 1.667,0.833 2.917,0.833l1.667,0c0.416,0 0.833,-0.417 1.25,-0.417c0.416,-0.416 0.833,-0.416 0.833,-0.833c0.417,-0.833 0.417,-1.25 0.417,-1.667c-0,-0.416 -0,-1.25 -0.417,-1.25c-0.417,-0.416 -0.833,-0.833 -1.25,-0.833c-0.417,-0.417 -1.25,-0.417 -1.667,-0.417c-0.416,0 -1.25,-0.416 -1.666,-0.416c-0.834,-0 -1.667,-0.417 -2.5,-0.834c-0.834,-0.416 -1.25,-0.416 -2.084,-1.25c-0.416,-0.416 -1.25,-0.833 -1.25,-1.666c-0.416,-0.834 -0.416,-1.667 -0.416,-2.5c-0,-1.25 0.416,-2.084 0.833,-2.917c0.417,-0.833 1.25,-1.667 1.667,-2.083c0.833,-0.417 1.666,-0.834 2.5,-1.25c0.833,-0.417 2.083,-0.417 2.916,-0.417c1.25,0 2.917,0.417 4.167,0.833c1.25,0.417 2.5,1.25 2.917,2.5l-3.334,2.917Z" style="fill-rule:nonzero;"/></g><path d="M6.667,74.167l-6.667,-9.167l84.583,-63.333c2.084,-1.667 4.584,-1.667 6.667,-0l22.5,15.833l0,-7.917c0,-3.333 2.5,-5.833 5.833,-5.833l29.584,0c3.333,0 5.833,2.5 5.833,5.833l0,37.5l23.75,17.5l-6.667,9.167l-26.25,-19.167c-1.25,-1.25 -2.5,-2.916 -2.5,-4.583l0,-34.583l-17.916,-0l-0,13.333c-0,2.083 -1.25,4.167 -2.917,5c-2.083,0.833 -4.167,0.833 -5.833,-0.417l-28.334,-20l-81.666,60.834Z" style="fill:#ffe000;fill-rule:nonzero;"/></g></svg>