<svg width="154" height="91" viewBox="0 0 154 91" fill="none" xmlns="http://www.w3.org/2000/svg">
<g clip-path="url(#clip0_2034_1342)">
<path d="M40.5794 0.0791016H49.0568V59.4479H40.5794V33.5951H8.55702V59.4479H0.0797119V0.0791016H8.55702V25.7464H40.5529V0.0791016H40.5794Z" fill="#6D838F"/>
<path d="M105.767 59.4484V0.0795474L122.987 0C129.02 0 133.803 1.48488 137.338 4.45465C140.872 7.42442 142.653 11.4548 142.653 16.5193C142.653 19.9664 141.776 22.9627 140.048 25.4817C138.321 28.0007 135.823 29.8833 132.581 31.1295C134.494 32.3758 136.354 34.0728 138.188 36.2471C140.022 38.3949 142.573 42.1601 145.868 47.5163C147.941 50.8838 149.615 53.4293 150.864 55.1263L154.027 59.3688H143.875L141.271 55.4445C141.191 55.3119 141.005 55.0733 140.766 54.7286L139.118 52.3952L136.487 48.0466L133.644 43.4063C131.89 40.9669 130.269 39.0312 128.807 37.5729C127.346 36.141 126.017 35.0804 124.821 34.444C123.625 33.8076 121.632 33.4894 118.842 33.4894L114.324 33.569V59.4219H105.767V59.4484ZM119.107 7.21229L114.271 7.29184V26.012L119.798 25.9324C124.13 25.9324 127.08 25.5612 128.701 24.8188C130.322 24.0763 131.571 22.9627 132.448 21.4778C133.351 19.9929 133.803 18.2959 133.803 16.4133C133.803 14.5572 133.298 12.8602 132.315 11.3488C131.305 9.83736 129.923 8.77672 128.116 8.14035C126.283 7.53048 123.28 7.21229 119.107 7.21229Z" fill="#6D838F"/>
<path d="M114.218 59.5276H106.644C100.904 59.5276 99.0702 58.9973 90.5398 52.2623C88.7593 54.0389 82.6471 60.6148 71.1934 60.6148C57.6404 60.6148 52.3786 50.2736 52.3786 43.5386C52.3786 34.4967 58.1719 28.4777 64.2309 24.9245C61.3608 20.9207 60.4307 17.7388 60.4307 14.2652C60.4307 8.16656 66.7023 0.0527344 77.0664 0.0527344C81.0261 0.0527344 84.9591 0.742145 87.0319 1.90884C87.962 2.43916 88.0152 2.38612 88.0418 3.84449C88.0683 6.15136 88.3607 10.6325 88.3607 12.3561C88.3607 13.5493 88.4404 14.8485 88.3075 14.7955C88.3075 14.7955 87.5103 12.8333 87.3508 12.3561C86.3144 9.01507 84.2682 6.81426 84.1619 6.68168C82.6737 4.71951 78.9267 2.6778 75.5251 2.6778C70.8745 2.6778 65.6925 5.5415 65.6925 12.8068C65.6925 18.8259 69.8647 23.8639 77.9168 32.5876C80.5477 35.4513 90.0614 44.3341 92.5594 46.4023C94.7386 43.4591 96.5191 38.2885 96.5191 33.5687C96.5191 32.402 96.2002 30.9436 95.0575 29.7769C94.0476 28.7693 92.028 28.2655 90.9118 28.0269C90.0614 27.8413 88.6796 27.4435 88.6796 27.4435C88.6796 27.4435 90.9384 27.4435 91.5762 27.4435C93.4364 27.4435 96.7582 27.4966 101.356 27.6026C102.525 27.6292 103.163 27.7352 103.163 27.7352C103.163 33.9929 97.9807 43.5651 94.5791 47.7281C99.6814 52.0502 103.083 54.1449 105.262 55.3647C107.734 56.823 111.507 59.3685 114.297 59.3685L114.218 59.5276ZM88.5201 50.8039C84.1884 47.2508 76.5084 39.906 74.5153 37.7582C72.4956 35.5839 67.5527 30.1216 65.3736 26.9397C61.3608 29.5648 58.411 33.7278 58.411 39.906C58.411 49.5577 65.2141 56.5048 73.9041 56.5048C81.0792 56.5048 85.8892 53.5086 88.5201 50.8039Z" fill="#B5C04E"/>
<path d="M6.96255 71.5661H1.70078V67.2705H0V77.3995H1.70078V73.104H6.96255V77.3995H8.66333V67.2705H6.96255V71.5661Z" fill="#6D838F"/>
<path d="M12.2775 67.2705H10.5767V77.426H12.2775V67.2705Z" fill="#6D838F"/>
<path d="M22.0304 74.6949L15.493 67.2705H14.1643V77.3995H15.7854V70.0282L22.2164 77.3995H23.6249V67.2705H22.0304V74.6949Z" fill="#6D838F"/>
<path d="M30.7469 75.9676C28.4349 75.9676 26.867 74.5092 26.867 72.3349C26.867 70.2137 28.4615 68.6758 30.6937 68.6758C31.8099 68.6758 32.8463 68.9939 34.0421 69.6834L34.2547 69.7894V67.9598L34.175 67.9333C32.7931 67.35 31.7567 67.1113 30.7203 67.1113C27.5048 67.1113 25.1662 69.3652 25.1662 72.4675C25.1662 74.4297 26.6544 77.532 30.6406 77.532C32.3679 77.532 33.4575 77.0813 34.2813 76.657L34.361 76.6305V74.7479L34.1484 74.8804C33.0589 75.5699 31.8364 75.9676 30.7469 75.9676Z" fill="#6D838F"/>
<path d="M43.609 67.2705H41.483L37.4968 71.5661V67.2705H35.8226V77.3995H37.4968V72.7062L42.36 77.3995H44.6986L39.1976 72.0699L43.609 67.2705Z" fill="#6D838F"/>
<path d="M47.0105 67.2705H45.3363V77.3995H51.5016V75.8616H47.0105V67.2705Z" fill="#6D838F"/>
<path d="M54.1591 73.0509H58.1984V71.513H54.1591V68.8084H58.3579V67.2705H52.4583V77.3995H58.4908V75.8616H54.1591V73.0509Z" fill="#6D838F"/>
<path d="M63.1413 70.585L60.537 67.2705H58.4908L62.3175 72.0964V77.3995H63.9917V72.0964L67.8185 67.2705H65.7722L63.1413 70.585Z" fill="#6D838F"/>
<path d="M75.7643 67.1914L71.0605 77.4H72.1501L73.718 73.9795H78.3951L79.9631 77.4H81.0526L76.3489 67.1914H75.7643ZM77.97 73.0779H74.1432L76.0566 68.8884L77.97 73.0779Z" fill="#6D838F"/>
<path d="M89.9286 75.676L82.594 67.2705H81.7436V77.3995H82.78V68.994L90.1146 77.3995H90.965V67.2705H89.9286V75.676Z" fill="#6D838F"/>
<path d="M96.4393 67.2705H92.8252V77.426H96.5722C98.3793 77.426 99.8409 76.8427 100.771 75.7556C101.542 74.8805 101.967 73.6608 101.967 72.335C101.967 68.5963 99.0968 67.2705 96.4393 67.2705ZM100.877 72.335C100.877 75.1987 98.6185 76.498 96.5191 76.498H93.8616V68.1455H96.4659C99.0702 68.172 100.877 69.8691 100.877 72.335Z" fill="#6D838F"/>
<path d="M112.304 75.2518L112.278 75.1987C111.587 74.0585 111.055 73.21 110.258 72.6002C111.241 72.1229 111.773 71.2744 111.773 70.1607C111.773 68.3842 110.471 67.2705 108.398 67.2705H105.767V77.426H107.468V73.1305H107.92C108.557 73.1305 109.115 73.2896 110.444 75.3313L111.799 77.426H113.819L113.527 77.0283C112.916 76.2063 112.676 75.8881 112.304 75.2518ZM110.046 70.1077C110.046 70.5319 109.939 70.8767 109.7 71.1153C109.408 71.4335 108.903 71.5661 108.238 71.5661H107.468V68.7289H108.238C109.434 68.7289 110.019 69.1796 110.046 70.1077Z" fill="#6D838F"/>
<path d="M121.552 73.1569C121.552 73.9258 121.473 74.7213 120.968 75.2251C120.675 75.5168 120.011 75.9941 118.735 75.9941C117.912 75.9941 117.247 75.7289 116.689 75.1986C116.264 74.7743 116.131 74.3236 116.131 73.2629V67.2969H114.43V73.5811C114.43 75.4372 115.546 77.585 118.682 77.585C121.552 77.585 123.227 76.0736 123.227 73.4485V67.3234H121.526V73.1569H121.552Z" fill="#6D838F"/>
<path d="M130.88 73.8198H132.793V75.6229C132.209 75.8085 131.518 75.9676 130.774 75.9676C128.488 75.9676 126.894 74.4827 126.894 72.3349C126.894 70.2932 128.515 68.6758 130.588 68.6758C131.757 68.6758 132.926 68.9939 134.069 69.6303L134.255 69.7364V67.9863L134.175 67.9598C132.634 67.2969 131.784 67.1113 130.588 67.1113C127.479 67.1113 125.14 69.3652 125.14 72.3614C125.14 75.3312 127.425 77.5055 130.535 77.5055C131.916 77.5055 133.033 77.2669 134.361 76.6835L134.441 76.657V72.2554H130.854V73.8198H130.88Z" fill="#6D838F"/>
<path d="M141.749 72.0168C142.626 71.5661 143.025 70.9032 143.025 69.9221C143.025 68.5963 142.041 67.2705 139.836 67.2705H136.859V77.426H140.394C142.839 77.426 143.928 76.0472 143.928 74.6684C143.902 73.3691 143.104 72.3615 141.749 72.0168ZM139.357 71.4865H138.534V68.8084H139.703C140.766 68.8084 141.297 69.2327 141.297 70.0547C141.297 71.0358 140.686 71.4865 139.357 71.4865ZM142.174 74.4298C142.174 74.9601 141.909 75.8616 140.181 75.8616H138.534V73.0244H140.101C141.43 73.0244 142.174 73.5547 142.174 74.4298Z" fill="#6D838F"/>
<path d="M151.635 67.2705L149.031 70.585L146.426 67.2705H144.38L148.207 72.0964V77.3995H149.881V72.0964L153.708 67.2705H151.635Z" fill="#6D838F"/>
<path d="M4.88976 86.0176C5.44782 85.6994 5.76672 85.1691 5.76672 84.5857C5.76672 83.6842 4.99606 82.7031 3.29528 82.7031H0.106323V90.0745H3.6939C6.13877 90.0745 6.32479 88.404 6.32479 87.9002C6.32479 86.9987 5.7933 86.3093 4.88976 86.0176ZM4.27854 87.7942C4.27854 88.298 4.06594 88.6161 3.00296 88.6161H2.0197V87.0517H3.21556C3.72047 87.0517 4.27854 87.2373 4.27854 87.7942ZM2.0197 85.5933V84.188H2.89666C3.53445 84.188 3.74705 84.5592 3.74705 84.8774C3.74705 85.1956 3.53445 85.5933 2.89666 85.5933H2.0197Z" fill="#B5C04E"/>
<path d="M12.6761 86.8129C12.6761 87.9001 12.0117 88.5364 10.8956 88.5364C9.83259 88.5364 9.16822 87.9001 9.16822 86.9455V82.7295H7.22827V86.919C7.22827 89.0137 8.58358 90.2069 10.9221 90.2069C13.3139 90.2069 14.616 89.0402 14.616 86.919V82.756H12.6761V86.8129Z" fill="#B5C04E"/>
<path d="M18.0442 82.7031H16.1042V90.0745H18.0442V82.7031Z" fill="#B5C04E"/>
<path d="M21.5255 82.7031H19.5855V90.0745H25.2459V88.6161H21.5255V82.7031Z" fill="#B5C04E"/>
<path d="M29.3915 82.7031H26.1229V90.0745H29.1789C31.8896 90.0745 33.4575 88.7487 33.4575 86.4153C33.4575 84.1615 31.863 82.7031 29.3915 82.7031ZM28.0628 84.1615H29.1524C30.614 84.1615 31.4644 84.9835 31.4644 86.3888C31.4644 88.457 29.7104 88.6161 29.1789 88.6161H28.0628V84.1615Z" fill="#B5C04E"/>
<path d="M36.6464 82.7031H34.7065V90.0745H36.6464V82.7031Z" fill="#B5C04E"/>
<path d="M43.7153 87.0252L39.9417 82.7031H38.1877V90.0745H40.1277V85.5403L44.0607 90.0745H45.6552V82.7031H43.7153V87.0252Z" fill="#B5C04E"/>
<path d="M51.3688 87.555H52.4317V88.2974C51.9534 88.483 51.7408 88.5361 51.289 88.5361C49.8274 88.5361 48.8442 87.7141 48.8442 86.4678C48.8442 85.4072 49.5351 84.267 51.4219 84.267C52.2989 84.267 53.1758 84.4791 54.106 84.9299L54.2122 84.983V83.2594L54.1857 83.2329C53.415 82.8617 52.3254 82.623 51.289 82.623C48.6847 82.623 46.8511 84.1875 46.8511 86.4148C46.8511 88.6421 48.6581 90.18 51.2359 90.18C52.4583 90.18 53.7871 89.7558 54.3451 89.1724L54.3717 89.1459V86.0966H51.3688V87.555Z" fill="#B5C04E"/>
<path d="M61.6266 85.4339C60.9622 85.1952 60.3776 84.9831 60.3776 84.5854C60.3776 84.2672 60.7762 84.055 61.3608 84.055C61.972 84.055 62.5833 84.2407 63.6197 84.6914L63.726 84.7445V83.18L63.6728 83.1535C62.7427 82.7558 61.9986 82.5967 61.2014 82.5967C59.474 82.5967 58.3845 83.4452 58.3845 84.7445C58.3845 86.3354 59.7132 86.8127 60.8028 87.2104C61.4937 87.4491 62.0783 87.6612 62.0783 88.0855C62.0783 88.6158 61.4671 88.6953 61.0685 88.6953C60.2978 88.6953 59.66 88.4567 58.6236 87.7673L58.5173 87.6877V89.4112L58.5705 89.4378C59.288 89.809 59.9258 90.1272 61.2014 90.1272C62.9287 90.1272 64.0449 89.2521 64.0449 87.8733C64.098 86.3354 62.7161 85.8316 61.6266 85.4339Z" fill="#B5C04E"/>
<path d="M69.094 82.623C66.3568 82.623 64.8687 84.5587 64.8687 86.3883C64.8687 88.2179 66.3568 90.1535 69.094 90.1535C71.8312 90.1535 73.2928 88.2179 73.2928 86.3883C73.2928 84.5587 71.8312 82.623 69.094 82.623ZM69.094 88.5361C67.7387 88.5361 66.8618 87.6876 66.8618 86.3883C66.8618 85.089 67.7387 84.2405 69.094 84.2405C70.4228 84.2405 71.2997 85.089 71.2997 86.3883C71.2997 87.6876 70.4228 88.5361 69.094 88.5361Z" fill="#B5C04E"/>
<path d="M78.6875 88.5359C77.1993 88.5359 76.1629 87.6609 76.1629 86.3881C76.1629 85.1419 77.2259 84.2669 78.7141 84.2669C79.5113 84.2669 80.282 84.5055 81.1855 85.0093L81.2918 85.0623V83.3123L81.2653 83.2858C80.5477 82.8615 79.6442 82.6494 78.6078 82.6494C75.7112 82.6494 74.1964 84.5585 74.1964 86.4412C74.1964 88.2442 75.5251 90.2064 78.4749 90.2064C79.5379 90.2064 80.3086 90.0208 81.345 89.4905L81.3716 89.464V87.7404L81.2653 87.7935C80.282 88.2177 79.6176 88.5359 78.6875 88.5359Z" fill="#B5C04E"/>
<path d="M84.6668 82.7031H82.7268V90.0745H84.6668V82.7031Z" fill="#B5C04E"/>
<path d="M88.1746 86.9987H91.4699V85.5403H88.1746V84.1615H91.6293V82.7031H86.2347V90.0745H91.7091V88.6161H88.1746V86.9987Z" fill="#B5C04E"/>
<path d="M92.4531 84.1615H95.084V90.0745H97.024V84.1615H99.6549V82.7031H92.4531V84.1615Z" fill="#B5C04E"/>
<path d="M105.182 82.7031L103.641 84.9304L102.1 82.7296V82.7031H99.7346L102.658 86.654V90.0745H104.598V86.654L107.521 82.7031H105.182Z" fill="#B5C04E"/>
</g>
<defs>
<clipPath id="clip0_2034_1342">
<rect width="154" height="90.1802" fill="white"/>
</clipPath>
</defs>
</svg>
