<svg xmlns="http://www.w3.org/2000/svg" viewBox="0 0 241.02 281.3" role="presentation"> <g class="logo-text"> <path d="M5,255.93v13.53H0V239.21H5V253l11.75-13.8h6.23L9.79,254.36l13.37,15.1H16.67Z"></path> <path d="M37.86,269.85c-6.87,0-12-4.87-12-12.4s4.88-12.36,12-12.36c6.84,0,11.67,4.74,11.67,11.79a15.4,15.4,0,0,1-.17,2.44H31a6.6,6.6,0,0,0,6.83,6.36,5.81,5.81,0,0,0,5.66-3.36h5.36C47.53,266.5,43.74,269.85,37.86,269.85Zm-6.79-14.53H44.35c-.09-3.7-3-6-6.7-6C34.3,249.27,31.6,251.53,31.07,255.32Z"></path> <path d="M71.42,256.06c0-4.4-2.39-6.66-6-6.66s-6,2.26-6,6.66v13.4h-5v-24h5v2.74a9.23,9.23,0,0,1,7.14-3.13c5.62,0,9.84,3.52,9.84,10.23v14.14H71.42Z"></path> <path d="M91.35,269.85c-5.74,0-9.79-3.39-10-7.74h5.14c.17,1.95,2,3.57,4.78,3.57s4.4-1.22,4.4-2.88c0-4.7-13.93-2-13.93-10.79,0-3.83,3.57-6.92,9.23-6.92,5.44,0,9,2.91,9.27,7.7h-5c-.18-2.09-1.79-3.52-4.48-3.52s-4.05,1.08-4.05,2.69c0,4.84,13.53,2.14,13.8,10.8C100.54,266.81,97,269.85,91.35,269.85Z"></path> <path d="M105.23,239.12a3.16,3.16,0,1,1,3.18,3.18A3.14,3.14,0,0,1,105.23,239.12Zm.66,6.36h5v24h-5Z"></path> <path d="M134.39,256.06c0-4.4-2.39-6.66-6-6.66s-6,2.26-6,6.66v13.4h-5v-24h5v2.74a9.21,9.21,0,0,1,7.14-3.13c5.61,0,9.83,3.52,9.83,10.23v14.14h-4.92Z"></path> <path d="M155.28,245.09A10.18,10.18,0,0,1,163.6,249v-3.48h5v24.37c0,6.53-4.22,11.45-11.71,11.45-6.39,0-11.14-3.18-11.75-8.49h4.92c.74,2.48,3.4,4.18,6.83,4.18,3.83,0,6.71-2.35,6.71-7.14v-4a10.3,10.3,0,0,1-8.32,4c-6.31,0-11.31-5.09-11.31-12.49S149,245.09,155.28,245.09Zm1.05,4.31c-3.7,0-7.27,2.78-7.27,8s3.57,8.18,7.27,8.18,7.27-2.91,7.27-8.09S160.07,249.4,156.33,249.4Z"></path> <path d="M175.91,249.53h-2.83v-4.05h2.83v-6h5v6h5.83v4.05h-5.83V262.8c0,1.79.69,2.53,2.78,2.53h3.05v4.13h-3.92c-4.26,0-6.92-1.78-6.92-6.66Z"></path> <path d="M201.72,269.85c-6.83,0-12-4.87-12-12.4s5.39-12.36,12.23-12.36,12.23,4.83,12.23,12.36S208.6,269.85,201.72,269.85Zm0-4.31c3.7,0,7.36-2.65,7.36-8.09s-3.53-8-7.23-8-7.09,2.61-7.09,8S198,265.54,201.72,265.54Z"></path> <path d="M236.1,256.06c0-4.4-2.39-6.66-6-6.66s-6,2.26-6,6.66v13.4h-5v-24h5v2.74a9.2,9.2,0,0,1,7.13-3.13c5.62,0,9.84,3.52,9.84,10.23v14.14H236.1Z"></path> </g> <g class="logo-shape"> <path d="M234.26,0C219.1,28.15,204,56.34,188.73,84.41c-6.18,11.36-13.58,22-24.25,29.57-18.29,13-38.09,16-59.08,7.27-8.11-3.35-14.34-9.28-19.13-16.52-4-6-7.56-12.2-11-18.48-4.16-7.61-9.92-13-18.57-14.9A25.94,25.94,0,0,0,26.22,89.77c-3.71,13,3.39,27.19,16.37,31.33,6.4,2,13.2,2.93,19.88,4,20,3,35.67,17.16,39.73,36.73,3,14.53-.44,27.69-9.94,39.16a3.59,3.59,0,0,1-2.35,1.2q-44.55.08-89.09,0A6.24,6.24,0,0,1,0,202V0H97.73V68.56a5,5,0,0,0,1.5-1.9q7.45-14.56,14.91-29.16,9.54-18.73,19-37.5Z"></path> <path d="M234.26,202.19h-2.88q-52,0-103.94.06c-2.23,0-3.18-.76-4.07-2.64-13.18-27.68,4.89-61.22,35.21-65,19.7-2.44,35.57,4.91,48.16,19.9,7.49,8.93,13.12,19,18.38,29.35C228.15,189.85,231.09,195.85,234.26,202.19Z"></path> </g> </svg>