<svg xmlns="http://www.w3.org/2000/svg" width="191" height="34" viewBox="0 0 191 34">
  <g fill="#FFF155" fill-rule="evenodd">
    <path d="M0 9.7v18.77l8.13 4.7 8.13-4.7-8.13-4.69V5zM16 0v18.78l8.13 4.69V4.69zM106.03 8.72c1.35 0 2.36-1 2.36-2.36A2.32 2.32 0 00106.03 4c-1.32 0-2.36 1-2.36 2.36 0 1.35 1 2.36 2.36 2.36zM37 27.72h3.68V4.31H37v23.4zm145.95-4.32c0 3.21 1.86 4.72 4.88 4.72 1.06 0 2.04-.22 2.57-.5v-3.46c-.47.28-1.2.5-1.88.5-1.2 0-1.89-.57-1.89-1.76v-8.52h3.68v-3.15h-3.68V6.3l-3.68 2.24v2.7h-2.3v3.15h2.3v9.02zm-78.74 4.31h3.64V11.23h-3.64v16.48zm50.85-13.49a4.57 4.57 0 014.46 3.5h-8.96c.6-2.12 2.3-3.5 4.5-3.5zm-102.3 0a4.57 4.57 0 014.46 3.5h-8.96c.6-2.12 2.3-3.5 4.5-3.5zm38.61 10.44c-2.83 0-4.87-2.23-4.87-5.19 0-2.95 2.04-5.19 4.87-5.19 2.8 0 4.88 2.24 4.88 5.2 0 2.95-2.08 5.18-4.88 5.18zm24.53-6.45c0-2.3 1.73-3.93 4-3.93 2.23 0 3.7 1.64 3.7 3.94v9.5h3.66v-9.6c0-4.37-2.65-7.3-6.48-7.3-2.08 0-3.8.85-5 2.33v-1.92h-3.52v16.48h3.64v-9.5zm-47.83 0c0-2.3 1.73-3.93 4-3.93 2.23 0 3.7 1.64 3.7 3.94v9.5h3.65v-9.6c0-4.37-2.64-7.3-6.48-7.3-2.07 0-3.8.85-5 2.33v-1.92h-3.52v16.48h3.65v-9.5zm94.44 6.73l-2.48-2.51a5.78 5.78 0 01-4.6 2.3 4.93 4.93 0 01-4.93-3.81h12.95v-1.45c0-4.93-3.61-8.65-8.4-8.65-4.87 0-8.42 3.71-8.42 8.65s3.68 8.65 8.8 8.65a9.13 9.13 0 007.08-3.18zm-102.3 0l-2.49-2.51a5.78 5.78 0 01-4.59 2.3 4.93 4.93 0 01-4.93-3.81h12.95v-1.45c0-4.93-3.62-8.65-8.4-8.65-4.87 0-8.42 3.71-8.42 8.65s3.68 8.65 8.8 8.65a9.14 9.14 0 007.08-3.18zm111.58-3.8c2.45.85 2.95 1.38 2.95 2.14 0 .94-.81 1.44-2.32 1.44a4.02 4.02 0 01-3.78-2.3l-2.99 2.11c1.32 2.24 3.72 3.59 6.67 3.59 3.59 0 6.2-2.01 6.2-4.97 0-2.51-1.64-4.15-5.13-5.31l-.66-.22c-2.08-.7-2.58-1.3-2.58-2.02 0-.84.79-1.38 2.1-1.38 1.27 0 2.15.54 3.06 1.8l2.9-2.02a6.84 6.84 0 00-5.98-3.18c-3.46 0-5.82 2.02-5.82 4.88 0 2.42 1.48 4.09 4.75 5.22l.63.22zm-75.51 4.72v1.85h3.52V4.31h-3.65v8.65a7.16 7.16 0 00-5.25-2.14c-4.59 0-8.14 3.78-8.14 8.65 0 4.88 3.55 8.65 8.14 8.65 2.2 0 4.06-.82 5.38-2.26zm41.13 2.26l8.84-16.89h-4.21l-4.72 9.47-4.72-9.47h-4.21l8.84 16.89h.18z"/>
  </g>
</svg>