<?xml version="1.0" encoding="UTF-8"?> <svg xmlns="http://www.w3.org/2000/svg" xmlns:xlink="http://www.w3.org/1999/xlink" width="288px" height="56px" viewBox="0 0 288 56" version="1.1"><defs><polygon id="path-1" points="0.0462162162 0.061369863 55.4009189 0.061369863 55.4009189 54.8661918 0.0462162162 54.8661918"></polygon></defs><g id="Symbols" stroke="none" stroke-width="1" fill="none" fill-rule="evenodd"><g id="nav" transform="translate(-1.000000, -17.000000)"><g id="logo-full" transform="translate(1.000000, 17.000000)"><g id="mansfield" transform="translate(67.000000, 9.000000)" fill="#636463"><path d="M26.7647059,26.8062745 C26.7647059,26.9996769 26.6124231,27.1551724 26.4220696,27.1551724 L24.172853,27.1551724 C23.9817381,27.1551724 23.8294553,26.9996769 23.8294553,26.8062745 L23.8294553,6.16018419 L15.2513665,20.4541669 C15.061013,20.7636107 14.9079688,20.8409717 14.641474,20.8409717 L12.9640792,20.8409717 C12.6587522,20.8409717 12.5445401,20.7636107 12.3534252,20.4541669 L3.699195,6.16018419 L3.699195,26.8062745 C3.699195,26.9996769 3.54691223,27.1551724 3.35655875,27.1551724 L1.10734213,27.1551724 C0.91698866,27.1551724 0.764705882,26.9996769 0.764705882,26.8062745 L0.764705882,1.16344043 C0.764705882,0.970038053 0.91698866,0.775862069 1.10734213,0.775862069 L3.50884153,0.775862069 C3.8141685,0.775862069 3.96645128,0.814542544 4.15756616,1.16344043 L13.7262545,17.2777263 L23.3337749,1.16344043 C23.5621991,0.814542544 23.7144819,0.775862069 24.0205702,0.775862069 L26.4220696,0.775862069 C26.6124231,0.775862069 26.7647059,0.970038053 26.7647059,1.16344043 L26.7647059,26.8062745" id="Fill-1"></path><path d="M43.9321596,3.74030399 L38.5052618,17.3928757 L49.3575202,17.3928757 L43.9321596,3.74030399 Z M35.3118387,25.9934182 C35.2349813,26.2630035 35.0420694,26.3793103 34.7338714,26.3793103 L32.4250765,26.3793103 C32.1937358,26.3793103 32.1176471,26.2630035 32.1176471,26.109725 C32.1176471,26.0319304 32.1176471,25.9163938 32.1937358,25.762345 L42.1613661,0.424404345 C42.2774207,0.114766329 42.4311354,0 42.7385648,0 L45.2018431,0 C45.510041,0 45.6637557,0.114766329 45.7782732,0.424404345 L55.7074748,25.762345 C55.7459035,25.8393694 55.8235294,26.0319304 55.8235294,26.109725 C55.8235294,26.2630035 55.7074748,26.3793103 55.4384741,26.3793103 L53.0904819,26.3793103 C52.7830525,26.3793103 52.5909091,26.2630035 52.5132832,25.9934182 L50.1276309,19.9000193 L37.697491,19.9000193 L35.3118387,25.9934182 Z" id="Fill-2"></path><path d="M80.359297,1.16344043 C80.359297,0.970038053 80.5146093,0.775862069 80.7483543,0.775862069 L82.9638839,0.775862069 C83.1588008,0.775862069 83.3529412,0.970038053 83.3529412,1.16344043 L83.3529412,26.8062745 C83.3529412,26.9996769 83.1588008,27.1551724 82.9638839,27.1551724 L80.7871824,27.1551724 C80.4757812,27.1551724 80.320469,27.0770379 80.086724,26.7675941 L63.3673573,5.85074039 L63.3673573,26.8062745 C63.3673573,26.9996769 63.2120451,27.1551724 63.0171282,27.1551724 L60.7619939,27.1551724 C60.567077,27.1551724 60.4117647,26.9996769 60.4117647,26.8062745 L60.4117647,1.16344043 C60.4117647,0.970038053 60.567077,0.775862069 60.7619939,0.775862069 L62.9006439,0.775862069 C63.2120451,0.775862069 63.3673573,0.853223019 63.6399304,1.16344043 L80.359297,22.157655 L80.359297,1.16344043" id="Fill-3"></path><path d="M90.4803932,24.6334159 C90.249764,24.517206 90.173143,24.3235227 90.2880745,24.090328 L91.2473695,22.1116595 C91.3239905,21.9179762 91.4772325,21.8405029 91.7461722,21.9954495 C93.357512,23.0428887 95.735828,24.517206 99.2274471,24.517206 C101.06865,24.517206 102.525981,24.0515913 103.523587,23.3148201 C104.674434,22.4215527 105.249858,21.1029569 105.249858,19.5906777 C105.249858,17.5732725 103.830837,16.3701119 101.913013,15.5566421 C99.6488627,14.5471648 97.078228,14.1985348 94.3543512,12.8404276 C92.0909668,11.715515 90.4413165,10.0475145 90.4413165,7.09965479 C90.4413165,5.00477629 91.209059,3.25930245 92.704701,2.01817991 C94.2777302,0.73754598 96.6177357,0 99.7254837,0 C102.871542,0 105.556342,0.854530689 107.32169,1.86245855 C107.552319,2.01817991 107.59063,2.17312655 107.474932,2.4055465 L106.554714,4.34547836 C106.439782,4.57867305 106.24823,4.65537163 106.017601,4.50119973 C104.099777,3.37551243 101.759005,2.67747784 99.5722417,2.67747784 C97.4237887,2.67747784 95.8507595,3.1810544 94.8922307,4.07354702 C94.0861777,4.811093 93.663996,5.7802842 93.663996,6.98344481 C93.663996,8.92260194 95.1604042,10.0087778 97.4620992,10.8625338 C100.071044,11.831725 102.756611,12.1811297 105.173237,13.6167102 C106.976129,14.6641495 108.588235,16.44836 108.588235,19.3187464 C108.588235,21.8792395 107.552319,23.8571333 105.826048,25.2144658 C104.213942,26.4958745 101.913013,27.1551724 99.2657576,27.1551724 C95.1987147,27.1551724 92.3208298,25.8365766 90.4803932,24.6334159" id="Fill-4"></path><path d="M117.791065,26.8062745 C117.791065,26.9996769 117.598481,27.1551724 117.405128,27.1551724 L115.053302,27.1551724 C114.859949,27.1551724 114.705882,26.9996769 114.705882,26.8062745 L114.705882,1.16344043 C114.705882,0.970038053 114.859949,0.775862069 115.053302,0.775862069 L131.946698,0.775862069 C132.139281,0.775862069 132.294118,0.970038053 132.294118,1.16344043 L132.294118,3.13923909 C132.294118,3.37132194 132.139281,3.52681745 131.946698,3.52681745 L117.791065,3.52681745 L117.791065,12.5904264 L130.056301,12.5904264 C130.249655,12.5904264 130.403721,12.7459219 130.403721,12.9393242 L130.403721,14.9530298 C130.403721,15.1472058 130.249655,15.3019277 130.056301,15.3019277 L117.791065,15.3019277 L117.791065,26.8062745" id="Fill-5"></path><path d="M141.088044,0.775862069 C141.279698,0.775862069 141.470588,0.970038053 141.470588,1.16344043 L141.470588,26.8062745 C141.470588,26.9996769 141.279698,27.1551724 141.088044,27.1551724 L138.756131,27.1551724 C138.564477,27.1551724 138.411765,26.9996769 138.411765,26.8062745 L138.411765,1.16344043 C138.411765,0.970038053 138.564477,0.775862069 138.756131,0.775862069 L141.088044,0.775862069" id="Fill-6"></path><path d="M167.896596,0.775862069 C168.084009,0.775862069 168.235294,0.970038053 168.235294,1.16344043 L168.235294,3.13923909 C168.235294,3.37132194 168.084009,3.52681745 167.896596,3.52681745 L152.897522,3.52681745 L152.897522,12.5904264 L165.93666,12.5904264 C166.125579,12.5904264 166.275359,12.7459219 166.275359,12.9393242 L166.275359,14.9530298 C166.275359,15.1472058 166.125579,15.3019277 165.93666,15.3019277 L152.897522,15.3019277 L152.897522,24.4049906 L167.896596,24.4049906 C168.084009,24.4049906 168.235294,24.598393 168.235294,24.792569 L168.235294,26.8062745 C168.235294,26.9996769 168.084009,27.1551724 167.896596,27.1551724 L150.221051,27.1551724 C150.032886,27.1551724 149.882353,26.9996769 149.882353,26.8062745 L149.882353,1.16344043 C149.882353,0.970038053 150.032886,0.775862069 150.221051,0.775862069 L167.896596,0.775862069" id="Fill-7"></path><path d="M177.81869,0.775862069 C178.012117,0.775862069 178.204774,0.970038053 178.204774,1.16344043 L178.204774,24.4049906 L191.593624,24.4049906 C191.787051,24.4049906 191.941176,24.598393 191.941176,24.792569 L191.941176,26.8062745 C191.941176,26.9996769 191.787051,27.1551724 191.593624,27.1551724 L175.465199,27.1551724 C175.271772,27.1551724 175.117647,26.9996769 175.117647,26.8062745 L175.117647,1.16344043 C175.117647,0.970038053 175.271772,0.775862069 175.465199,0.775862069 L177.81869,0.775862069" id="Fill-8"></path><path d="M200.373123,24.5597125 L206.184496,24.5597125 C208.723945,24.5597125 211.110444,24.1342273 213.034246,23.1262141 C216.190111,21.4606329 217.844135,18.2841923 217.844135,13.9844707 C217.844135,10.7701232 216.959478,8.36883931 215.458405,6.70325806 C213.496173,4.45592246 210.379506,3.41000242 206.568795,3.41000242 L200.373123,3.41000242 L200.373123,24.5597125 Z M215.034907,25.2567347 C212.457797,26.6902331 209.493312,27.1551724 206.453506,27.1551724 L197.640756,27.1551724 C197.447837,27.1551724 197.294118,26.9996769 197.294118,26.8062745 L197.294118,1.16344043 C197.294118,0.970038053 197.447837,0.775862069 197.640756,0.775862069 L207.030723,0.775862069 C211.379453,0.775862069 215.189396,1.89914306 217.921763,4.95954225 C219.807904,7.05215594 221,9.99496648 221,13.9844707 C221,19.059349 218.960908,23.0496268 215.034907,25.2567347 Z" id="Fill-9"></path><path d="M4.61594264,41.1035627 C4.29184292,40.9258549 3.85945576,40.8841322 3.17160176,40.8841322 L1.51144859,40.8841322 L1.51144859,43.7568179 L3.4949389,43.7568179 C3.87318234,43.7568179 4.22397263,43.7150951 4.52138178,43.5914723 C5.00638749,43.3874946 5.34421379,42.9911289 5.34421379,42.3073401 C5.34421379,41.8012591 5.11467492,41.3508084 4.61594264,41.1035627 Z M4.0348509,37.1932179 C3.7648949,37.0155101 3.42783119,36.93361 3.0770409,36.93361 L1.51144859,36.93361 L1.51144859,39.654085 L2.9420629,39.654085 C3.2920906,39.654085 3.67109663,39.6270425 3.9677432,39.4771498 C4.33226006,39.2855344 4.60145348,38.9030763 4.60145348,38.3004149 C4.60145348,37.7672915 4.37191462,37.4118758 4.0348509,37.1932179 Z M3.81903862,45 L0.162431155,45 C0.0808342839,45 0,44.9320074 0,44.8361997 L0,35.867363 C0,35.7715553 0.0808342839,35.6896552 0.162431155,35.6896552 L3.06331432,35.6896552 C3.77862148,35.6896552 4.54807235,35.7846902 5.18254522,36.2359136 C5.73465863,36.6183717 6.12662865,37.2210331 6.12662865,38.0539419 C6.12662865,39.052969 5.66831351,39.7367578 4.9255532,40.0782658 L4.9255532,40.1323508 C6.23491608,40.3919588 6.88235294,41.267363 6.88235294,42.4989555 C6.88235294,44.2350837 5.35717777,45 3.81903862,45 Z" id="Fill-10"></path><path d="M16.1197569,35.8647761 C16.1197569,35.7703631 16.1983327,35.6896552 16.2769085,35.6896552 L17.4310836,35.6896552 C17.5104007,35.6896552 17.5882353,35.7703631 17.5882353,35.8647761 L17.5882353,41.2402288 C17.5882353,42.2909546 17.3006181,43.1673209 16.7491048,43.8137457 C16.093812,44.5675273 15.0701024,45 13.7580343,45 C12.4593094,45 11.436341,44.5675273 10.7810483,43.8137457 C10.2302762,43.1673209 9.94117647,42.2909546 9.94117647,41.2402288 L9.94117647,35.8647761 C9.94117647,35.7703631 10.0071505,35.6896552 10.0990694,35.6896552 L11.2399015,35.6896552 C11.3325616,35.6896552 11.4103962,35.7703631 11.4103962,35.8647761 L11.4103962,41.0788129 C11.4103962,41.8729485 11.594234,42.4797807 11.9611683,42.9107306 C12.3814748,43.4094447 12.9841366,43.6393861 13.7461738,43.6393861 C14.5326734,43.6393861 15.1360765,43.4094447 15.5556417,42.9107306 C15.9366604,42.4797807 16.1197569,41.8729485 16.1197569,41.0788129 L16.1197569,35.8647761" id="Fill-11"></path><path d="M22.7775865,35.6896552 C22.8593815,35.6896552 22.9411765,35.7715553 22.9411765,35.867363 L22.9411765,44.8361997 C22.9411765,44.9320074 22.8593815,45 22.7775865,45 L21.5761263,45 C21.4935597,45 21.4117647,44.9320074 21.4117647,44.8361997 L21.4117647,35.867363 C21.4117647,35.7715553 21.4935597,35.6896552 21.5761263,35.6896552 L22.7775865,35.6896552" id="Fill-12"></path><path d="M27.3813287,35.6896552 C27.4640523,35.6896552 27.5475563,35.7715553 27.5475563,35.867363 L27.5475563,43.6463299 L31.9521998,43.6463299 C32.0489708,43.6463299 32.1176471,43.7290027 32.1176471,43.8101302 L32.1176471,44.8361997 C32.1176471,44.9320074 32.0489708,45 31.9521998,45 L26.1662277,45 C26.0827236,45 26,44.9320074 26,44.8361997 L26,35.867363 C26,35.7715553 26.0827236,35.6896552 26.1662277,35.6896552 L27.3813287,35.6896552" id="Fill-13"></path><path d="M35.91995,43.7150951 L37.6289225,43.7150951 C38.4229444,43.7150951 39.1629667,43.5914723 39.7546804,43.2777794 C40.7913201,42.7438832 41.2887246,41.6915439 41.2887246,40.352554 C41.2887246,39.299442 41.0065578,38.533753 40.5220828,38.0006296 C39.8900596,37.3021605 38.9203489,36.9876949 37.7232316,36.9876949 L35.91995,36.9876949 L35.91995,43.7150951 Z M40.7510105,44.3301188 C39.83606,44.85088 38.7857302,45 37.7498511,45 L34.5737634,45 C34.4931443,45 34.4117647,44.9320074 34.4117647,44.8361997 L34.4117647,35.867363 C34.4117647,35.7715553 34.4931443,35.6896552 34.5737634,35.6896552 L37.9377088,35.6896552 C39.4055845,35.6896552 40.7236305,36.0311633 41.7328901,37.1383603 C42.3930539,37.8630992 42.8235294,38.9162112 42.8235294,40.352554 C42.8235294,42.074002 42.1641262,43.5234798 40.7510105,44.3301188 Z" id="Fill-14"></path><path d="M47.247486,35.6896552 C47.3284685,35.6896552 47.4117647,35.7715553 47.4117647,35.867363 L47.4117647,44.8361997 C47.4117647,44.9320074 47.3284685,45 47.247486,45 L46.0458604,45 C45.9641067,45 45.8823529,44.9320074 45.8823529,44.8361997 L45.8823529,35.867363 C45.8823529,35.7715553 45.9641067,35.6896552 46.0458604,35.6896552 L47.247486,35.6896552" id="Fill-15"></path><path d="M57.3793452,35.867363 C57.3793452,35.7715553 57.4499723,35.6896552 57.5475805,35.6896552 L58.69904,35.6896552 C58.7974417,35.6896552 58.8823529,35.7715553 58.8823529,35.867363 L58.8823529,44.8361997 C58.8823529,44.9320074 58.7974417,45 58.69904,45 L57.6039234,45 C57.4642564,45 57.3936293,44.9721849 57.2952275,44.8230648 L51.973596,38.2192875 L51.973596,44.8361997 C51.973596,44.9320074 51.9029689,45 51.8045671,45 L50.6396171,45 C50.5547059,45 50.4705882,44.9320074 50.4705882,44.8361997 L50.4705882,35.867363 C50.4705882,35.7715553 50.5547059,35.6896552 50.6396171,35.6896552 L51.7347336,35.6896552 C51.8751942,35.6896552 51.9450277,35.7298326 52.0569201,35.867363 L57.3793452,42.4842753 L57.3793452,35.867363" id="Fill-16"></path><path d="M69.4872454,36.3683153 C69.5940472,36.4209246 69.6203715,36.5141182 69.5669707,36.5937838 L69.1014054,37.5648013 C69.0615428,37.6715231 68.9682793,37.6715231 68.8893062,37.6309387 C68.3297252,37.3521094 67.6648468,37.0334473 66.6931015,37.0334473 C64.9225995,37.0334473 63.4852889,38.5087627 63.4852889,40.3312995 C63.4852889,42.3402236 64.8556604,43.669736 66.6931015,43.669736 C67.5836174,43.669736 68.4229887,43.4029316 68.9419549,43.0181321 L68.9419549,41.4887043 L66.6667771,41.4887043 C66.5727615,41.4887043 66.4930363,41.4210638 66.4930363,41.3286217 L66.4930363,40.3455791 C66.4930363,40.251634 66.5727615,40.1719684 66.6667771,40.1719684 L70.1927386,40.1719684 C70.2724638,40.1719684 70.3529412,40.251634 70.3529412,40.3455791 L70.3529412,44.706891 C70.3529412,44.8000846 70.2724638,44.866222 70.1927386,44.866222 L69.1149436,44.866222 C69.0216801,44.866222 68.9419549,44.8000846 68.9419549,44.706891 L68.9419549,44.3604211 C68.3695879,44.7211707 67.5317207,45 66.5599754,45 C64.0035029,45 61.9411765,43.3503223 61.9411765,40.3312995 C61.9411765,37.7376605 64.0839803,35.6896552 66.732212,35.6896552 C68.0100722,35.6896552 68.8614775,36.0233485 69.4872454,36.3683153" id="Fill-17"></path><path d="M78.0974903,44.1484807 C78.0002613,44.0951199 77.9728176,44.0147028 78.0284891,43.9222607 L78.5138502,42.937715 C78.5554078,42.8580495 78.6251932,42.8189683 78.735752,42.8843542 C79.34657,43.2436006 80.1785056,43.7230969 81.3577999,43.7230969 C81.9403901,43.7230969 82.3849778,43.5900705 82.6758808,43.3773786 C83.0373533,43.1241023 83.1894697,42.7513278 83.1894697,42.3530001 C83.1894697,41.741229 82.6758808,41.3955107 81.9968457,41.1422344 C81.2056835,40.8371004 80.2757347,40.6897944 79.3881276,40.2118012 C78.6251932,39.7999454 78.0833764,39.2280071 78.0833764,38.2028771 C78.0833764,37.4588311 78.3883934,36.8200038 78.9858816,36.3818434 C79.5676877,35.9421799 80.4286352,35.6896552 81.5663719,35.6896552 C82.856225,35.6896552 83.8285155,36.0233485 84.4526633,36.3547872 C84.5498923,36.4073965 84.5632221,36.4885651 84.5216645,36.5817588 L84.0363034,37.5520248 C83.9806319,37.6444668 83.8983009,37.6715231 83.8010718,37.6189137 C83.1345824,37.2461392 82.3159765,36.9793348 81.4832567,36.9793348 C80.859109,36.9793348 80.4011915,37.1131128 80.1228342,37.3393328 C79.8593748,37.5377451 79.7205882,37.805301 79.7205882,38.1367397 C79.7205882,38.7222061 80.2349612,39.0288433 81.0112254,39.2806164 C81.8996166,39.5872535 82.8985667,39.7323049 83.7163885,40.2381058 C84.3554342,40.6244085 84.8823529,41.2489562 84.8823529,42.2335018 C84.8823529,43.1241023 84.4942208,43.815539 83.8559592,44.2942837 C83.2451412,44.7602519 82.3708639,45 81.3726979,45 C79.8734887,45 78.7914235,44.5603365 78.0974903,44.1484807" id="Fill-18"></path><path d="M92.1462785,37.0860566 C90.2548019,37.0860566 88.804982,38.5358189 88.804982,40.3583557 C88.804982,42.1793894 90.2548019,43.6163751 92.1462785,43.6163751 C94.0385354,43.6163751 95.47509,42.1793894 95.47509,40.3583557 C95.47509,38.5358189 94.0385354,37.0860566 92.1462785,37.0860566 Z M92.1462785,45 C89.4401561,45 87.1764706,43.0436852 87.1764706,40.3583557 C87.1764706,37.6579949 89.4401561,35.6896552 92.1462785,35.6896552 C94.8391357,35.6896552 97.1176471,37.6579949 97.1176471,40.3583557 C97.1176471,43.0579649 94.8391357,45 92.1462785,45 Z" id="Fill-19"></path><path d="M98.6470588,40.3312995 C98.6470588,37.7376605 100.761699,35.6896552 103.405186,35.6896552 C104.673522,35.6896552 105.519826,36.0233485 106.141295,36.3683153 C106.247363,36.4209246 106.273507,36.5141182 106.220473,36.5937838 L105.758106,37.5648013 C105.718517,37.6715231 105.625894,37.6715231 105.546716,37.6309387 C104.991726,37.3393328 104.330667,37.0334473 103.365597,37.0334473 C101.647592,37.0334473 100.180565,38.4959861 100.180565,40.3312995 C100.180565,42.2996393 101.620701,43.6569595 103.379042,43.6569595 C104.330667,43.6569595 105.044013,43.3638504 105.59975,43.0436852 C105.692373,42.9910759 105.758106,43.0053556 105.81114,43.0985492 L106.273507,44.0951199 C106.313096,44.1883135 106.300398,44.2544509 106.193582,44.3078118 C105.507127,44.6805863 104.66157,45 103.365597,45 C100.5772,45 98.6470588,43.1774632 98.6470588,40.3312995" id="Fill-20"></path><path d="M110.718763,35.6896552 C110.800558,35.6896552 110.882353,35.7715553 110.882353,35.867363 L110.882353,44.8361997 C110.882353,44.9320074 110.800558,45 110.718763,45 L109.517303,45 C109.433965,45 109.352941,44.9320074 109.352941,44.8361997 L109.352941,35.867363 C109.352941,35.7715553 109.433965,35.6896552 109.517303,35.6896552 L110.718763,35.6896552" id="Fill-21"></path><path d="M121.423314,35.6896552 C121.519777,35.6896552 121.588235,35.7715553 121.588235,35.867363 L121.588235,36.8787523 C121.588235,36.97456 121.519777,37.0425526 121.423314,37.0425526 L116.246963,37.0425526 L116.246963,39.654085 L120.70684,39.654085 C120.803303,39.654085 120.873317,39.7220776 120.873317,39.8178852 L120.873317,40.8439548 C120.873317,40.9258549 120.803303,41.007755 120.70684,41.007755 L116.246963,41.007755 L116.246963,43.6463299 L121.423314,43.6463299 C121.519777,43.6463299 121.588235,43.7290027 121.588235,43.8101302 L121.588235,44.8361997 C121.588235,44.9320074 121.519777,45 121.423314,45 L114.870804,45 C114.787565,45 114.705882,44.9320074 114.705882,44.8361997 L114.705882,35.867363 C114.705882,35.7715553 114.787565,35.6896552 114.870804,35.6896552 L121.423314,35.6896552" id="Fill-22"></path><path d="M131.368389,35.6896552 C131.462572,35.6896552 131.529412,35.7715553 131.529412,35.867363 L131.529412,36.8787523 C131.529412,36.97456 131.462572,37.0425526 131.368389,37.0425526 L128.465423,37.0425526 L128.465423,44.8361997 C128.465423,44.9320074 128.384152,45 128.289969,45 L127.120276,45 C127.026853,45 126.959254,44.9320074 126.959254,44.8361997 L126.959254,37.0425526 L124.043376,37.0425526 C123.949193,37.0425526 123.882353,36.97456 123.882353,36.8787523 L123.882353,35.867363 C123.882353,35.7715553 123.949193,35.6896552 124.043376,35.6896552 L131.368389,35.6896552" id="Fill-23"></path><path d="M140.462764,35.867363 C140.528939,35.7576477 140.595866,35.6896552 140.728216,35.6896552 L142.072018,35.6896552 C142.245727,35.6896552 142.272047,35.8256403 142.192336,35.9631707 L138.773048,41.0216626 L138.773048,44.8361997 C138.773048,44.9320074 138.692585,45 138.599339,45 L137.44203,45 C137.348783,45 137.282608,44.9320074 137.282608,44.8361997 L137.282608,41.0216626 L133.876104,35.9631707 C133.782858,35.8256403 133.808425,35.6896552 133.994918,35.6896552 L135.312401,35.6896552 C135.459038,35.6896552 135.525213,35.7437402 135.591388,35.867363 L138.027076,39.5049649 L140.462764,35.867363" id="Fill-24"></path></g><g id="logo"><path d="M8.75382773,22.5101409 C8.75382773,22.5101409 3.14790206,21.7026695 5.58808254,13.5341694 C5.58808254,13.5341694 10.6467072,16.1731294 8.75382773,22.5101409 Z M22.3378378,0.767123288 C11.9993225,2.89826841 3.72022251,10.4552556 0.77027027,20.2394611 C4.39887571,21.8971031 8.19714445,24.6725479 11.7428729,28.3835616 C10.670163,24.5063262 10.4004218,20.1563502 11.7373999,15.0766762 C13.3535015,8.93409839 17.849188,3.99624658 22.3378378,0.767123288 Z" id="Fill-25" fill="#73B943"></path><g id="Group-29" transform="translate(0.000000, 0.767123)"><mask id="mask-2" fill="white"><use xlink:href="#path-1"></use></mask><g id="Clip-27"></g><path d="M47.5218243,21.8852603 C45.657,15.5096986 50.6406486,12.8546849 50.6406486,12.8546849 C53.0446622,21.0728767 47.5218243,21.8852603 47.5218243,21.8852603 Z M34.3702297,0.061369863 C38.7422838,3.31167123 43.0881486,8.23276712 44.6625811,14.3429041 C45.9866757,19.4841644 45.7109189,23.8820822 44.6371622,27.7990137 C48.1157027,24.0815342 51.8407297,21.2953425 55.4009189,19.6245479 C52.5216486,9.84142466 44.4576892,2.27068493 34.3702297,0.061369863 Z" id="Fill-26" fill="#73B943" mask="url(#mask-2)"></path><path d="M3.48855405,32.2790137 C13.7262162,33.8869041 13.8294324,41.0817534 13.8294324,41.0817534 C0.630851351,39.0089863 3.48855405,32.2790137 3.48855405,32.2790137 Z M21.354973,54.8232329 C20.0678514,53.274411 19.6572973,50.7398356 19.0326081,47.5493699 C17.7647432,41.0771507 14.7167838,35.2431781 11.2220676,31.0961096 C7.76817568,26.998137 4.17794595,23.812274 0.640864865,21.5945205 C0.224918919,23.5161644 0,25.5091507 0,27.5558356 C0,40.7380822 9.09689189,51.8 21.3796216,54.8661918 C21.3688378,54.8523836 21.3657568,54.8370411 21.354973,54.8232329 Z" id="Fill-28" fill="#73B943" mask="url(#mask-2)"></path></g><path d="M42.8081502,41.5779581 C42.8081502,41.5779581 42.9123868,34.42883 53.3289914,32.8311572 C53.3289914,32.8311572 56.2366434,39.5183628 42.8081502,41.5779581 Z M56.3557709,22.2465753 C52.7733242,24.4487111 49.1383673,27.6036574 45.6405638,31.6557701 C42.0839803,35.7764852 38.9835298,41.5733846 37.6935041,48.0044747 C37.0586799,51.1708548 36.6566245,53.242646 35.4324324,55.2328767 C47.8358019,52.1244276 57,41.1724419 57,28.1379936 C57,26.1157484 56.7742847,24.1460985 56.3557709,22.2465753 Z" id="Fill-30" fill="#73B943"></path><path d="M38.8543248,26.0086363 C27.2302008,20.3576031 29.7249631,11.9016496 29.7249631,11.9016496 C44.7103625,19.1858986 38.8543248,26.0086363 38.8543248,26.0086363 Z M33.1114768,40.329215 C33.1114768,40.329215 31.9734613,40.4382994 31.6774856,39.5038346 C31.6774856,39.5038346 31.2492002,38.0605631 32.9256315,37.4411464 C32.9256315,37.4411464 33.9145119,37.1268611 34.8735652,37.8515481 C34.8735652,37.8515481 34.7198413,40.217842 33.1114768,40.329215 Z M21.9332285,28.0575935 C21.9332285,28.0575935 27.3036212,23.8627999 34.0330551,29.7457329 C34.0330551,29.7457329 30.6090665,35.6423969 21.9332285,28.0575935 Z M24.2062002,39.5038346 C23.9094596,40.4382994 22.7722089,40.329215 22.7722089,40.329215 C21.1638444,40.217842 21.008591,37.8515481 21.008591,37.8515481 C21.9676443,37.1268611 22.9572894,37.4411464 22.9572894,37.4411464 C24.6344855,38.0605631 24.2062002,39.5038346 24.2062002,39.5038346 Z M18.0794249,17.3558731 C18.0794249,17.3558731 13.7759217,10.6078926 28.0447078,6.1033905 C28.0447078,6.1033905 29.1467779,13.8613559 18.0794249,17.3558731 Z M41.1043526,13.2617728 C39.4340396,8.37204234 35.6001207,3.1870973 33.0380564,0.441677678 C31.4319863,0.157142663 29.7830876,0 28.0951843,0 C26.4623463,0 24.8639241,0.146463064 23.3075657,0.413453025 C20.747031,3.13598779 16.8458101,8.38424759 15.1586716,13.3250875 C13.270392,18.9547615 13.4592964,25.1924099 15.658083,31.1539143 C15.7406809,29.5176472 16.1857917,27.8493414 17.1356675,26.1520481 C18.4166996,23.8658512 19.9241112,22.4820803 21.6479598,21.443108 C23.7412046,20.1813897 26.3652173,19.6924167 27.0481795,19.632916 C28.2649689,19.5268829 28.0232936,19.846508 27.5384133,20.1012927 C26.6986681,20.4964379 25.9874084,20.864884 24.6826676,21.6284753 C23.0207674,22.6018444 21.1340174,24.0168912 20.0128275,25.8415769 C17.2955097,29.4169539 17.7658588,34.668265 20.1413131,39.862364 L20.1374891,39.8669409 C21.1638444,42.1249132 22.0456534,44.8703328 22.9282272,48.8187329 C23.6524884,52.055414 24.0608891,55.786408 27.8320947,55.9931345 C27.920811,55.9938974 28.0072329,56 28.0951843,56 C28.2573209,56 28.4171631,55.9900832 28.578535,55.9870319 C32.5585298,55.7886965 32.6005935,52.0371062 33.3195011,48.8187329 C34.8200295,42.1081309 36.4299236,38.9111169 38.4046251,35.4539783 C42.4595699,28.2170247 43.4759828,20.3331926 41.1043526,13.2617728 Z" id="Fill-31" fill="#73B943"></path></g></g></g></g></svg> 