<svg height="50.7" viewBox="0 0 250.1 50.7" width="250.1" xmlns="http://www.w3.org/2000/svg"><g transform="translate(-9.6 -10.1)"><g fill="#e6007e"><path d="m11 48.5a4.073 4.073 0 0 0 .6-1.1c.4-1.5-.3-1.3.2-3.4.1-.7-.1-.9-.7-.9z"/><path d="m11 58.5c2.4.7 6.3.5 4.8-1s-.9-1.7-2-2.8a21.258 21.258 0 0 0 -2.8-1.6z"/><circle cx="4.1" cy="4.1" r="4.1" transform="matrix(.99997993 -.0063355 .0063355 .99997993 24.475 42.227)"/><path d="m34.2 60.1a14.142 14.142 0 0 0 3.5-2.3l.2-.1a7.121 7.121 0 0 0 3-3.4c.7-1.6-.5-2.9-2.2-3.5a11.215 11.215 0 0 0 -1.3-.5c.4.5 1.7 1.8.4 2.9-1.1.9-.9.5-3 1.5l-2.5 2.3c-.8.3-1.6.7-3.2-1-.1-.1 0 1.1.1 1.2a6.046 6.046 0 0 0 1.4 2.9z"/><path d="m39.9 46.1c.1.8.2 1.8-1.9 2.7a10.378 10.378 0 0 0 1.2.3c2.2 0 3.4.1 4-2.2s-.4-4.2-.8-5.8l-.2-.1a7.825 7.825 0 0 0 -2.3-3.9c-1.3-1.2-2.9-.5-4.1 1-.1.1-1 1.1-.9 1 .6-.2 2.2-1.1 2.9.5.5 1.3.2 1 .5 3.3z"/><path d="m31.8 35.5c.8.2 1.7.4 2 2.7 0 .1.6-.9.7-1 .7-2.1 1.1-3.2-.8-4.5-2-1.3-4.1-1-5.7-1h-.2a7.709 7.709 0 0 0 -4.4 1c-1.5.9-1.3 2.6-.3 4.2.1.1.7 1.3.7 1.2 0-.7-.3-2.5 1.4-2.6 1.4-.1 1 .2 3.3.5z"/><path d="m19.3 39.9c.4-.7.9-1.5 3.2-1.1.1 0-.7-.9-.8-1-1.8-1.3-2.7-2.1-4.5-.6s-2.2 3.6-2.7 5.2l-.1.2a6.9 6.9 0 0 0 -.4 4.5c.4 1.7 2.1 2.1 3.9 1.5a13.044 13.044 0 0 0 1.3-.3c-.7-.2-2.4-.5-2-2.1.3-1.4.5-.9 1.5-3z"/><path d="m26.5 60.1a4.336 4.336 0 0 0 1-2.8 7.084 7.084 0 0 0 .1-1.4c-.4.6-1.2 2.2-2.6 1.3-1.2-.7-.7-.7-2.4-2.4l-3-1.6c-.6-.6-1.2-1.3-.1-3.3 0-.1-1 .4-1.2.5-1.8 1.3-2.8 2-2 4.1.9 2.2 2.8 3.2 4.1 4.2l.2.1a10.887 10.887 0 0 0 2.3 1.4z"/><path d="m47 52.8c-.5 1.1-3.1 1.8-4 2.6-1.2 1-.5 1.2-2.1 2.7-1.8 1.7 3.5 2 5.6 1 1.8-.9 1-4 1.5-5.9.8-1.8 3.4-3.7 2.5-5.6-1-2.1-5.3-5.1-4.9-2.7.3 2.1-.3 1.9 0 3.4.1 1.1 1.7 3.3 1.4 4.5z"/><path d="m40.5 30.9c.9.8.8 3.5 1.2 4.6.6 1.4 1 .9 1.9 2.8 1 2.2 3-2.8 2.6-5-.3-2-3.5-2.2-5.2-3.3-1.5-1.3-2.5-4.4-4.5-4.1-2.3.3-6.5 3.5-4.1 3.9 2.1.4 1.7.9 3.2 1.1 1.2.1 3.8-.8 4.9 0z"/><path d="m17.5 30.2c1-.6 3.6.3 4.8.3 1.5-.1 1.1-.7 3.3-.9 2.4-.3-1.7-3.7-3.9-4-2-.3-3.2 2.7-4.7 3.9-1.7 1-4.9 1-5.3 3-.4 2.2 1.3 7.3 2.4 5.1 1-1.9 1.4-1.4 2-2.8.4-1.1.4-3.8 1.4-4.6z"/><path d="m28.7 40c-.4 0-2 .3-2 .3a3.217 3.217 0 0 1 -.8-1 1.434 1.434 0 0 1 .1-1.3 1.078 1.078 0 0 1 1.3-.4c.5.1 1 .6 1.4.6.5 0 .8-.4 1.2-.6a1.046 1.046 0 0 1 1.3.5 1.434 1.434 0 0 1 .1 1.3 3.217 3.217 0 0 1 -.8 1s-1.4-.3-1.8-.4z"/><path d="m52.8 60.1a37.313 37.313 0 0 0 2.4-6l.1-.4a15.54 15.54 0 0 0 .7-9.3c-.9-3.5-2.1-5-7.9-2.6-.3.1-1.2.3-1.1.3 3.4.9 6.9 4.8 5 7.9-3.9 6.3-2.3 6.6-3.4 9.5v.1c0 .2-.1.3-.2.6z"/><path d="m47.3 31.3c1.5.7 2 6.2-.8 8.3a12.468 12.468 0 0 0 1.8-.4c5.2-1.3 5.1-4 4.1-6.7-1.3-3.8-5.5-7.2-8.2-9.2l-.3-.2a15.787 15.787 0 0 0 -8.7-3.6c-3.6-.3-5.4.5-5 6.7a10.416 10.416 0 0 1 -.1 1.1c1.9-3 6.7-5.1 9-2.3 4.9 5.7 5.7 4.3 8.2 6.3z"/><path d="m11 29.9a3.329 3.329 0 0 0 .6-.3c6.9-2.8 5.8-4 8.4-5.7l.1-.1c1.2-1.2 6.5 0 7.7 3.3.1.2.2-1.5.2-1.9.4-5.4-2.2-6-5.1-6-4 .1-8.6 3-11.3 5l-.3.2a.31.31 0 0 0 -.2.1z"/><path d="m28.6 19.2 1.7-1.8s-.2-4.4-1.8-4.4-1.6 4.3-1.6 4.3l1.7 1.9 1.7-1.8"/><path d="m20.3 34.3.2-1s-1.1-1.4-1.6-1 .5 1.8.5 1.8l.9.2.2-1"/><path d="m55.8 39.7s3.8-1.4 3.3-2.8-4.2-.2-4.2-.2l-1.2 2z"/><path d="m14.6 50.5-.9-.5s-1.7.6-1.5 1.2 1.8.1 1.8.1l.6-.8-.9-.5"/><path d="m42.3 51.2.5.9s1.7.5 1.9-.1-1.4-1.2-1.4-1.2l-1 .4.5.9"/><path d="m37.5 34.7 1-.2s1-1.5.5-1.8c-.5-.4-1.6 1-1.6 1l.1 1 1-.2"/><path d="m22.6 44.3c-.1.4-.3 2-.3 2a3.141 3.141 0 0 1 -1.2.4 1.5 1.5 0 0 1 -1.2-.5 1.047 1.047 0 0 1 0-1.4c.3-.4.9-.8 1-1.1.1-.4-.2-.9-.2-1.3a1.025 1.025 0 0 1 .8-1.1 1.592 1.592 0 0 1 1.3.3 3.018 3.018 0 0 1 .7 1.1s-.7 1.2-.9 1.6z"/><path d="m24.8 51.4c.3.2 1.8.9 1.8.9a3.808 3.808 0 0 1 .1 1.3 1.319 1.319 0 0 1 -.9 1 1.175 1.175 0 0 1 -1.3-.4c-.3-.4-.5-1.1-.8-1.3-.4-.3-.9-.1-1.3-.3a1.127 1.127 0 0 1 -.8-1.1 1.167 1.167 0 0 1 .7-1.1 2.466 2.466 0 0 1 1.2-.3z"/><path d="m32.2 51.5 1.4-1.4a2.466 2.466 0 0 1 1.2.3 1.525 1.525 0 0 1 .7 1.2 1.017 1.017 0 0 1 -.8 1.1c-.5.2-1.2.1-1.5.4-.4.3-.4.8-.7 1.2a1.175 1.175 0 0 1 -1.3.4 1.319 1.319 0 0 1 -.9-1 3.808 3.808 0 0 1 .1-1.3z"/><path d="m34.6 44.5a14.771 14.771 0 0 0 -.9-1.8 4.18 4.18 0 0 1 .7-1.1 1.592 1.592 0 0 1 1.3-.3 1.025 1.025 0 0 1 .8 1.1 8.636 8.636 0 0 0 -.1 1.5c.1.4.7.6.9 1a1.191 1.191 0 0 1 0 1.4 1.346 1.346 0 0 1 -1.2.5 2.763 2.763 0 0 1 -1.2-.5s-.2-1.4-.3-1.8z"/></g><g fill="#1d1d1b"><path d="m61.4 60.8h-51.8v-50.7h51.7v50.7zm-50.7-1.1h49.6v-48.6h-49.6z"/><path d="m73.3 19.1h7.2v3.1h.1a7.315 7.315 0 0 1 6.5-3.7c2.8 0 5.4.9 6.6 3.7a8.292 8.292 0 0 1 7-3.7c7.2 0 8 5.4 8 9.8v13.5h-7.4v-13.4c0-2.4-1.2-3.9-3.1-3.9-3.2 0-3.5 2.4-3.5 6.1v11.1h-7.4v-12.9c0-2.7-.8-4.3-2.8-4.3-2.6 0-3.8 1.5-3.8 6.2v11h-7.4z"/><path d="m120 35.2c0-1.8 1.4-2.5 3.1-2.9 1.6-.4 3.5-.6 4.6-1.2.2 4.7-1 6.7-4.5 6.7-1.7 0-3.2-.8-3.2-2.6zm.5-9.2c.3-1.9 1.7-2.8 3.7-2.8 1.5 0 3.6.6 3.6 2.3 0 1.4-.7 1.8-2 2.1-5.1 1.1-13.2.5-13.2 7.9 0 4.7 3.4 6.9 7.7 6.9a10.481 10.481 0 0 0 7.5-2.8 15.524 15.524 0 0 0 .4 2.1h7.4a12.863 12.863 0 0 1 -.9-5.8v-9.9c0-6.4-5.2-7.6-10.5-7.6a14.161 14.161 0 0 0 -7.2 1.6 6.89 6.89 0 0 0 -3.5 6z"/><path d="m139.9 19.1h7.2v4h.1a6.785 6.785 0 0 1 6.8-4.4 4.678 4.678 0 0 1 1.7.2v6.8a9.034 9.034 0 0 0 -2.8-.4c-3.7 0-5.6 2.5-5.6 5.3v11.2h-7.4z"/><path d="m164 34.2a3.034 3.034 0 0 0 1.2 2.5 4.781 4.781 0 0 0 2.7.8c1.4 0 3.5-.6 3.5-2.4 0-1.7-2.3-2.1-3.6-2.4-4.7-1.2-10.5-1.3-10.5-7.4 0-5.5 5.9-6.9 10.4-6.9 5 0 10.2 1.4 10.4 7.4h-6.9a2.022 2.022 0 0 0 -1-2 4.265 4.265 0 0 0 -2.4-.6c-1.2 0-3.2.1-3.2 1.7 0 2.1 5 2.5 8.4 3.3 4.6.9 5.8 4.2 5.8 6.1 0 6.1-5.8 8.1-10.9 8.1-5.4 0-10.9-1.8-11.1-8.1h7.2z"/><path d="m193.4 24.1c3.2 0 4.4 3 4.4 6.3 0 2.9-.8 6.3-4.4 6.3-3.4 0-4.5-3.4-4.5-6.5 0-2.9 1.1-6.1 4.5-6.1zm11.6-13.6h-7.4v11h-.1a7.436 7.436 0 0 0 -6.4-3.1c-6.4 0-9.6 5.6-9.6 11.5 0 6.4 3 12.5 10.1 12.5a7.032 7.032 0 0 0 6.2-3.3h.1v2.6h7.1z"/><path d="m216.4 28.1c.4-2.8 2.2-4.7 4.8-4.7a4.574 4.574 0 0 1 4.4 4.7zm16.7 4.1c.3-7.7-3.7-13.8-11.9-13.8-6.7 0-12.3 5-12.3 11.9 0 7.6 5 12 12.4 12 5.1 0 9.9-2.3 11.3-7.5h-7a4.456 4.456 0 0 1 -4.3 2.5c-3.2 0-5-2.1-5.1-5.2h16.9z"/><path d="m236.7 19.1h7.2v3.1h.1a8.587 8.587 0 0 1 7.1-3.7c7.6 0 8.2 5.5 8.2 8.8v14.5h-7.4v-11c0-3.1.3-6.2-3.7-6.2-2.8 0-4 2.4-4 4.8v12.4h-7.4v-22.7z"/><path d="m74.8 55.9h2.7a1.342 1.342 0 0 1 1.5 1.4c0 .9-.5 1.4-1.5 1.4h-2.7zm-1.6 4.1h4.1c2.3 0 3.3-1.1 3.3-2.5a2.119 2.119 0 0 0 -1.7-2.3 1.955 1.955 0 0 0 1.3-1.9c0-1.5-1.1-2.2-2.6-2.2h-4.3v8.9zm1.6-7.7h2.5c.8 0 1.3.3 1.3 1.2a1.181 1.181 0 0 1 -1.3 1.2h-2.5z"/><path d="m86.6 51.1h1.6v5.2c0 1.2.1 2.6 2.1 2.6s2.1-1.4 2.1-2.6v-5.2h1.6v5.7c0 2.3-1.5 3.4-3.7 3.4s-3.7-1.1-3.7-3.4z"/><path d="m100.5 51.1h1.6v8.9h-1.6z"/><path d="m108.7 51.1h1.6v7.5h4.5v1.4h-6.1z"/><path d="m122.2 52.3h1.5c2.4 0 3 1.4 3 3.2s-.5 3.2-3 3.2h-1.5zm-1.6 7.7h3.7c2.7 0 3.9-2 3.9-4.4 0-2.5-1.2-4.4-3.9-4.4h-3.7z"/><path d="m134.4 51.1h1.6v8.9h-1.6z"/><path d="m142.5 51.1h1.6l4.1 6.6v-6.6h1.5v8.9h-1.6l-4.1-6.5v6.5h-1.5z"/><path d="m164.1 60h-1l-.2-1a3.355 3.355 0 0 1 -2.7 1.3c-2.7 0-4.3-2.1-4.3-4.7 0-2.5 1.6-4.7 4.3-4.7 2 0 3.6 1 3.8 3h-1.5a2.114 2.114 0 0 0 -2.3-1.8c-1.9 0-2.7 1.7-2.7 3.4s.8 3.4 2.7 3.4a2.238 2.238 0 0 0 2.5-2.4h-2.4v-1.2h3.8z"/><path d="m179.7 57c0 1.4 1 1.9 2.3 1.9 1.4 0 1.9-.7 1.9-1.3a1.062 1.062 0 0 0 -.7-1.1c-.6-.2-1.4-.4-2.6-.7a2.29 2.29 0 0 1 -2-2.3c0-1.8 1.7-2.6 3.3-2.6 1.9 0 3.4 1 3.4 2.8h-1.6a1.714 1.714 0 0 0 -1.9-1.6c-.7 0-1.6.3-1.6 1.2 0 .6.4 1 1.1 1.1a26.725 26.725 0 0 1 2.6.7 2.231 2.231 0 0 1 1.7 2.3c0 2-1.8 2.8-3.5 2.8-2 0-3.7-1-3.7-3.2z"/><path d="m195.3 52.1c1.9 0 2.7 1.7 2.7 3.4s-.8 3.4-2.7 3.4-2.7-1.7-2.7-3.4.8-3.4 2.7-3.4zm0-1.3c-2.7 0-4.3 2.1-4.3 4.7 0 2.5 1.6 4.7 4.3 4.7s4.3-2.1 4.3-4.7c0-2.5-1.6-4.7-4.3-4.7z"/><path d="m211.8 53.9a2.176 2.176 0 0 0 -2.2-1.8c-1.9 0-2.7 1.7-2.7 3.4s.8 3.4 2.7 3.4c1.4 0 2.1-1 2.3-2.3h1.5a3.633 3.633 0 0 1 -3.8 3.6c-2.7 0-4.3-2.1-4.3-4.7 0-2.5 1.6-4.7 4.3-4.7 2 0 3.6 1.1 3.8 3h-1.6z"/><path d="m219.5 51.1h1.6v8.9h-1.6z"/><path d="m227.7 51.1h6.4v1.4h-4.9v2.3h4.5v1.2h-4.5v2.6h4.9v1.4h-6.5v-8.9z"/><path d="m239.5 51.1h7.2v1.4h-2.8v7.5h-1.6v-7.5h-2.8z"/><path d="m254.8 56.5-3.3-5.4h1.8l2.4 4 2.3-4h1.7l-3.3 5.4v3.5h-1.6z"/></g></g></svg>