<svg id="Layer_1" data-name="Layer 1" xmlns="http://www.w3.org/2000/svg" viewBox="0 0 827.6 255.12"><defs><style>.cls-1{fill:#4bb8a9;}.cls-2{fill:#302259;}</style></defs><polygon class="cls-1" points="41.63 132.81 41.63 238.94 70.95 238.94 70.95 146.17 130.94 94.02 190.93 146.17 190.93 238.94 220.25 238.94 220.25 132.81 130.94 55.17 41.63 132.81"/><polygon class="cls-1" points="232.73 132.81 232.73 238.94 261.88 238.94 261.88 146.17 321.87 94.02 381.86 146.17 381.86 238.94 411.34 238.94 411.34 132.81 322.04 55.17 232.73 132.81"/><polygon class="cls-1" points="321.87 0 226.4 83 130.94 0 0 113.84 0 238.94 29.15 238.94 29.15 127.12 130.94 38.62 226.49 121.7 322.04 38.62 423.83 127.13 423.83 238.94 452.81 238.94 452.81 113.84 321.87 0"/><polygon class="cls-2" points="520.12 33.95 536.87 75.8 536.96 76.03 543.76 76.03 560.51 33.95 560.51 76.93 573.41 76.93 573.41 13.18 557.12 13.18 540.36 55.21 523.7 13.42 523.6 13.18 507.31 13.18 507.31 76.93 520.12 76.93 520.12 33.95"/><path class="cls-2" d="M604.27,77.92c11.11,0,20.05-6.23,22.23-15.49l.11-.46H614.1l-.1.23c-2,5-6.34,6.07-9.64,6.07-6.73,0-11.18-4.68-11.41-11.95h34V53.7c0-15.28-8.87-24.77-23.14-24.77-14,0-23.42,9.88-23.42,24.59S590,77.92,604.27,77.92ZM593.17,48.2c.85-6.05,5-9.79,10.83-9.79s9.64,3.47,10.47,9.79Z"/><rect class="cls-2" x="633.6" y="12.28" width="12.45" height="64.65"/><path class="cls-2" d="M657.54,63.06c0,10.23,4.42,14.59,14.77,14.59a33.52,33.52,0,0,0,6.38-.72l.3-.07V67l-.49.17a14.65,14.65,0,0,1-3.49.34c-3.68,0-5.11-1.34-5.11-4.76V39.49h8.55V29.92h-8.82V18.76H657.54V29.92h-5.76v9.57h5.76Z"/><path class="cls-2" d="M706.88,28.93c-14.39,0-24,9.85-24,24.5s9.66,24.49,24,24.49c14,0,23.86-10.07,23.86-24.49S720.93,28.93,706.88,28.93Zm-.09,10c6.93,0,11.42,5.68,11.42,14.48s-4.49,14.48-11.42,14.48-11.51-5.68-11.51-14.48S699.8,39,706.79,39Z"/><path class="cls-2" d="M749.38,51.09c0-7.49,3.34-11.78,9.16-11.78,5.28,0,8.18,3.48,8.18,9.8V76.93h12.45V46.23c0-10.67-6.11-17.3-15.95-17.3A16.47,16.47,0,0,0,749.06,36l-.81-6.11H737v47h12.36Z"/><path class="cls-2" d="M544.85,123.82a13.8,13.8,0,0,0,8.94-13.34c0-9.45-7.58-16.31-18-16.31H507.31v63.76H537c11.48,0,19.82-7.69,19.82-18.29A16.43,16.43,0,0,0,544.85,123.82ZM520.48,129h11.78c7.08,0,11.15,3.61,11.15,9.89,0,5.26-4.39,9.08-10.43,9.08h-12.5Zm11.6-8.84h-11.6V104.1h11.6c4.87,0,8.27,3.25,8.27,7.91A8,8,0,0,1,532.08,120.19Z"/><path class="cls-2" d="M563,110.91v30.71c0,10.67,6.08,17.29,15.85,17.29a16.74,16.74,0,0,0,14.25-7.09l.82,6.11h11.23v-47H592.82v25.76c0,7.49-3.34,11.78-9.17,11.78-5.33,0-8.26-3.48-8.26-9.8V110.91Z"/><rect class="cls-2" x="613.98" y="110.91" width="12.45" height="47.01"/><path class="cls-2" d="M620.29,91.11a7.08,7.08,0,1,0,7.31,7A7.09,7.09,0,0,0,620.29,91.11Z"/><rect class="cls-2" x="635.58" y="93.27" width="12.45" height="64.65"/><path class="cls-2" d="M689.8,151.32l.82,6.61h11.23V93.27H689.49v23.82a18,18,0,0,0-14.74-7.16c-11.94,0-20.27,10.07-20.27,24.49s8.33,24.49,20.27,24.49A17.83,17.83,0,0,0,689.8,151.32Zm-11.36-2.42c-6.88,0-11.33-5.68-11.33-14.48s4.45-14.48,11.33-14.48,11.41,5.69,11.41,14.48S685.37,148.9,678.44,148.9Z"/><path class="cls-2" d="M717.23,91.11a7.08,7.08,0,1,0,7.3,7A7.09,7.09,0,0,0,717.23,91.11Z"/><rect class="cls-2" x="710.92" y="110.91" width="12.45" height="47.01"/><path class="cls-2" d="M774.49,157.93V127.22c0-10.67-6.11-17.29-16-17.29A16.46,16.46,0,0,0,744.38,117l-.81-6.11H732.34v47H744.7V132.08c0-7.49,3.34-11.78,9.16-11.78,5.28,0,8.18,3.48,8.18,9.8v27.83Z"/><path class="cls-2" d="M816.27,110.91l-.73,6.09a17.55,17.55,0,0,0-14.42-7.07c-12.12,0-20.27,9.22-20.27,23,0,13.52,8.34,23,20.27,23a17.06,17.06,0,0,0,14.12-6.9v5.17c0,7.41-3.8,11.33-11,11.33-5.43,0-9.19-2.48-10.08-6.64l-.06-.29H781.89l.05.42c1.11,9.52,10.14,16.17,22,16.17,15.05,0,23.69-8,23.69-21.89V110.91Zm-11.82,35.38c-6.67,0-11.15-5.35-11.15-13.31s4.38-13.31,11.15-13.31S815.69,125,815.69,133,811.17,146.29,804.45,146.29Z"/><path class="cls-2" d="M535.4,201.64l-4-.9c-8.66-1.93-12-4.25-12-8.28,0-4.66,4.25-7.91,10.34-7.91,6.43,0,11,3.41,11.6,8.67l0,.33h12.62l0-.4c-.91-11.35-10.54-19-24-19-13.84,0-23.51,8-23.51,19.46,0,9.37,6.56,15.12,20.64,18.09l3.69.82c8.58,1.94,11.77,4.23,11.77,8.45,0,4.84-4.84,8.36-11.51,8.36-7.29,0-12.61-4.06-13.22-10.11l0-.33h-13l0,.4c.9,12.7,10.84,20.6,25.93,20.6,14.87,0,24.86-8,24.86-19.82C555.59,210,550.11,205,535.4,201.64Z"/><path class="cls-2" d="M584.47,190.92c-14.39,0-24.05,9.84-24.05,24.49s9.66,24.5,24.05,24.5c14,0,23.86-10.08,23.86-24.5S598.52,190.92,584.47,190.92Zm-.09,10c6.93,0,11.41,5.69,11.41,14.48s-4.48,14.48-11.41,14.48-11.51-5.68-11.51-14.48S577.39,200.93,584.38,200.93Z"/><path class="cls-2" d="M637.21,200.93c5,0,8.48,3,9.36,8l0,.31h12.25l0-.41c-1.19-10.86-9.85-17.88-22.07-17.88-14.22,0-23.77,9.84-23.77,24.49s9.55,24.5,23.77,24.5c12.22,0,20.88-7,22.07-17.89l0-.41H646.62l0,.31c-.88,5-4.38,8-9.36,8-7.26,0-11.78-5.55-11.78-14.48S630,200.93,637.21,200.93Z"/><rect class="cls-2" x="665.19" y="191.91" width="12.45" height="47.01"/><path class="cls-2" d="M671.51,172.1a7.08,7.08,0,1,0,7.3,7A7.1,7.1,0,0,0,671.51,172.1Z"/><path class="cls-2" d="M707.24,190.92c-14,0-23.42,9.88-23.42,24.58s9.59,24.41,23.87,24.41c11.11,0,20-6.23,22.23-15.5L730,224H717.52l-.1.24c-2,5-6.34,6.06-9.64,6.06-6.73,0-11.18-4.68-11.41-11.94h34v-2.63C730.38,200.41,721.52,190.92,707.24,190.92Zm-10.65,19.26c.85-6.05,5-9.79,10.83-9.79s9.64,3.47,10.47,9.79Z"/><path class="cls-2" d="M756.56,229.53c-3.68,0-5.11-1.33-5.11-4.76v-23.3H760v-9.56h-8.82V180.75H739.09v11.16h-5.76v9.56h5.76V225c0,10.23,4.42,14.6,14.77,14.6a32.51,32.51,0,0,0,6.38-.73l.3-.06V229l-.49.17A14.65,14.65,0,0,1,756.56,229.53Z"/><polygon class="cls-2" points="787.78 222.45 776.99 192.15 776.9 191.91 763.75 191.91 781.72 236.65 774.19 255.12 787.25 255.12 810.74 192.41 810.93 191.91 797.79 191.91 787.78 222.45"/></svg>