<svg width="196" height="24" viewBox="0 0 196 24" fill="none" xmlns="http://www.w3.org/2000/svg">
<path fill-rule="evenodd" clip-rule="evenodd" d="M13.1854 12.848C13.1854 16.4046 10.5726 19.2879 6.52505 19.2879C2.84669 19.2879 0 16.4919 0 12.9354C0 9.19422 2.91445 6.58221 6.59281 6.58221C10.2712 6.58221 13.1854 9.29129 13.1854 12.848ZM6.59281 16.8908C8.77662 16.8908 10.3327 15.1198 10.3327 12.9351C10.3327 10.7505 8.93772 8.9795 6.59281 8.9795C4.29384 8.9795 2.85272 10.7505 2.85272 12.9351C2.85272 15.1198 4.39382 16.8908 6.59281 16.8908Z" fill="#1B073A"></path>
<path fill-rule="evenodd" clip-rule="evenodd" d="M45.1469 12.848C45.1469 16.4046 42.5341 19.2879 38.4868 19.2879C34.8082 19.2879 31.9615 16.4919 31.9615 12.9354C31.9615 9.19422 34.876 6.58221 38.5543 6.58221C42.2327 6.58221 45.1469 9.29129 45.1469 12.848ZM38.5543 16.8908C40.7381 16.8908 42.2942 15.1198 42.2942 12.9351C42.2942 10.7505 40.8992 8.9795 38.5543 8.9795C36.2554 8.9795 34.8142 10.7505 34.8142 12.9351C34.8142 15.1198 36.3553 16.8908 38.5543 16.8908Z" fill="#1B073A"></path>
<path fill-rule="evenodd" clip-rule="evenodd" d="M59.6903 14.1146C59.6903 14.1146 59.6909 9.24702 59.6903 7.98799C59.9212 6.22676 62.4031 7.1715 62.4031 7.1715V13.7383V13.736C62.4031 15.7847 63.8054 16.7862 65.5352 16.7862C67.2653 16.7862 68.6673 15.8195 68.6673 13.736C68.6673 13.736 68.6752 9.25055 68.6748 7.99194C68.9057 6.2305 71.3876 7.17545 71.3876 7.17545V11.3976C71.7406 16.6014 76.7175 16.9899 76.7175 16.9899C81.6729 17.6761 81.2372 15.6413 81.2372 15.6413C81.1088 14.6174 80.3453 14.385 79.0266 14.216C78.208 14.1112 77.4974 14.0393 77.4974 14.0393C72.1856 13.7032 72.708 10.1994 72.708 10.1994C72.7753 7.23531 75.9471 6.78425 75.9471 6.78425C78.7489 6.28517 80.728 6.7749 80.728 6.7749C85.089 7.68222 82.9415 9.74901 82.5811 9.86645C82.5811 9.86645 81.4197 8.80281 78.7032 8.65003C75.3566 8.43656 75.416 10.0163 75.416 10.0163C75.3069 11.1685 76.7823 11.3793 76.7823 11.3793L80.3688 11.8813C84.6053 12.4718 84.0891 15.4773 84.0891 15.4773C83.8108 19.2361 79.332 19.2638 79.332 19.2638C73.2066 19.6192 70.9006 16.4385 70.9006 16.4385C70.0423 18.1465 68.3283 19.2879 65.4799 19.2879C62.0845 19.2879 59.6903 17.3843 59.6903 13.9686" fill="#1B073A"></path>
<path fill-rule="evenodd" clip-rule="evenodd" d="M19.883 6.78404C14.9838 7.13367 13.8662 11.6867 13.9853 13.0104C13.9173 15.01 15.3162 19.2881 20.7277 19.2906C21.4405 19.2773 22.0936 19.2132 22.6898 19.1029L22.6891 16.6763C22.1707 16.7677 21.5446 16.8251 20.7891 16.8451C18.2637 16.9085 16.8284 14.8361 16.8382 13.0098C16.8382 10.8912 18.5709 9.15203 20.7891 9.17406L25.166 9.17323L25.1771 15.1659C25.1771 15.1659 24.8611 20.2436 31.2791 19.1775V16.7596C27.7203 17.5264 27.9125 15.2869 27.9125 15.2869V9.17738H31.2791V6.7803H27.9125V3.95169H25.1771V6.7803L19.883 6.78404Z" fill="#1B073A"></path>
<path fill-rule="evenodd" clip-rule="evenodd" d="M48.6679 22.9303C48.437 24.6917 45.9551 23.747 45.9551 23.747V12.9351C46.1122 9.48585 48.1755 6.67658 52.4242 6.58221C56.1758 6.49885 58.8699 9.29129 58.8934 12.848C58.9181 16.6166 56.2757 19.4184 52.371 19.2529C50.979 19.176 49.6193 18.6277 48.6796 17.421C48.6796 17.421 48.6675 21.6714 48.6679 22.9303ZM52.354 16.9026C54.5155 16.9026 56.0562 15.1318 56.0562 12.9472C56.0562 10.7623 54.6754 8.99155 52.354 8.99155C50.0781 8.99155 48.6517 10.7623 48.6517 12.9472C48.6517 15.1318 50.177 16.9026 52.354 16.9026Z" fill="#1B073A"></path>
<path fill-rule="evenodd" clip-rule="evenodd" d="M178.232 3.51185H177.507V13.6452C177.507 15.3449 177.925 16.5811 178.822 17.5341C179.764 18.5219 181.131 19.0881 182.573 19.0881H182.666V18.4209H182.573C181.384 18.4209 180.164 17.9097 179.388 17.0866C178.6 16.2418 178.232 15.1485 178.232 13.6452V7.5309H183.069V6.86365H178.232V3.51185Z" fill="#1B073A"></path>
<path fill-rule="evenodd" clip-rule="evenodd" d="M189.924 7.26379C191.257 7.26379 192.435 7.74749 193.331 8.66313C194.154 9.50352 194.671 10.6574 194.795 11.9195H185.031C185.42 9.08759 187.332 7.26379 189.924 7.26379ZM195.611 12.5882L195.608 12.4914C195.553 10.8754 194.978 9.39668 193.988 8.32514C192.942 7.19291 191.537 6.5951 189.924 6.5951C186.63 6.5951 184.24 9.21189 184.24 12.8162C184.24 16.5089 186.721 19.0881 190.274 19.0881C192.22 19.0881 193.879 18.3745 195.074 17.0244L195.132 16.9579L194.623 16.4512L194.557 16.5276C193.487 17.7667 192.005 18.4209 190.274 18.4209C188.673 18.4209 187.32 17.8561 186.361 16.7877C185.46 15.7825 184.965 14.3717 184.965 12.8162V12.5882H195.611Z" fill="#1B073A"></path>
<path fill-rule="evenodd" clip-rule="evenodd" d="M148.675 12.2777C147.034 11.7447 145.483 11.2423 145.483 9.73758C145.483 8.11146 146.978 7.26234 148.453 7.26234C149.682 7.26234 150.699 7.63919 151.562 8.41473L151.63 8.47688L152.11 7.96284L152.035 7.89923C151.212 7.22201 150.209 6.59385 148.453 6.59385C146.277 6.59385 144.758 7.88614 144.758 9.73758C144.758 11.742 146.622 12.3442 148.423 12.9275C150.175 13.4937 151.827 14.0279 151.827 15.7565C151.827 17.4246 150.221 18.4194 148.669 18.4194C147.143 18.4194 146.085 17.9775 144.889 16.8409L144.826 16.7804L144.315 17.2527L144.382 17.3204C145.577 18.509 146.979 19.0881 148.669 19.0881C150.846 19.0881 152.552 17.6252 152.552 15.7565C152.552 13.5357 150.493 12.867 148.675 12.2777Z" fill="#1B073A"></path>
<path fill-rule="evenodd" clip-rule="evenodd" d="M136.976 7.40826C138.288 7.40826 139.446 7.88759 140.326 8.79159C141.134 9.622 141.643 10.7613 141.764 12.0077H132.166C132.549 9.21043 134.428 7.40826 136.976 7.40826ZM137.32 19.0881C139.234 19.0881 140.865 18.3832 142.04 17.049L142.096 16.9839L141.595 16.483L141.531 16.558C140.479 17.7825 139.023 18.4296 137.32 18.4296C135.746 18.4296 134.418 17.8709 133.475 16.8151C132.588 15.823 132.1 14.4293 132.1 12.8929V12.6676H142.567L142.564 12.5722C142.51 10.9767 141.946 9.51516 140.971 8.45672C139.943 7.34029 138.562 6.74975 136.976 6.74975C133.739 6.74975 131.388 9.33307 131.388 12.8929C131.388 16.5407 133.827 19.0881 137.32 19.0881Z" fill="#1B073A"></path>
<path fill-rule="evenodd" clip-rule="evenodd" d="M124.768 19.0879H125.486V0H124.768V19.0879Z" fill="#1B073A"></path>
<path fill-rule="evenodd" clip-rule="evenodd" d="M168.715 18.4238C165.693 18.4238 163.324 15.9845 163.324 12.8711C163.324 9.75919 165.693 7.31992 168.715 7.31992C171.648 7.31992 173.696 9.60309 173.696 12.8711C173.696 16.1406 171.648 18.4238 168.715 18.4238ZM168.715 6.65579C167.018 6.65579 165.46 7.30266 164.328 8.47813C163.215 9.63198 162.601 11.193 162.601 12.8711C162.601 14.5507 163.215 16.1117 164.328 17.2656C165.46 18.441 167.018 19.0881 168.715 19.0881C170.941 19.0881 172.734 17.9933 173.699 16.0656L173.696 18.8395H174.418V18.7472C174.418 18.7472 174.419 12.8971 174.419 12.8711C174.419 9.21168 172.074 6.65579 168.715 6.65579Z" fill="#1B073A"></path>
<path fill-rule="evenodd" clip-rule="evenodd" d="M116.354 18.4238C113.332 18.4238 110.965 15.9845 110.965 12.8711C110.965 9.75919 113.332 7.31992 116.354 7.31992C119.287 7.31992 121.335 9.60309 121.335 12.8711C121.335 16.1406 119.287 18.4238 116.354 18.4238ZM116.354 6.65579C114.658 6.65579 113.099 7.30266 111.967 8.47813C110.854 9.63198 110.241 11.193 110.241 12.8711C110.241 14.5507 110.854 16.1117 111.967 17.2656C113.099 18.441 114.659 19.0881 116.354 19.0881C118.58 19.0881 120.375 17.9933 121.338 16.0656L121.335 18.8395H122.057V12.916C122.059 12.9015 122.059 12.8871 122.059 12.8711C122.059 9.21168 119.713 6.65579 116.354 6.65579Z" fill="#1B073A"></path>
<path fill-rule="evenodd" clip-rule="evenodd" d="M156.713 3.5871H155.995V13.6697C155.995 15.3624 156.409 16.5927 157.299 17.5414C158.232 18.5233 159.585 19.0881 161.013 19.0881H161.105V18.4238H161.013C159.836 18.4238 158.628 17.9141 157.859 17.0953C157.077 16.2547 156.713 15.1674 156.713 13.6697V7.58577H161.506V6.92144H156.713V3.5871Z" fill="#1B073A"></path>
<path fill-rule="evenodd" clip-rule="evenodd" d="M92.1573 8.48125C91.2691 9.42848 90.8561 10.6574 90.8561 12.3471V19.0881H91.5724V12.3471C91.5724 10.8523 91.9364 9.76626 92.7175 8.92753C93.4844 8.10855 94.6916 7.60012 95.8671 7.60012H95.9596V6.93599H95.8671C94.4405 6.93599 93.0888 7.49909 92.1573 8.48125Z" fill="#1B073A"></path>
<path fill-rule="evenodd" clip-rule="evenodd" d="M102.71 7.33447C104.029 7.33447 105.195 7.81546 106.081 8.72674C106.894 9.56131 107.406 10.7081 107.529 11.963H97.8694C98.255 9.14828 100.145 7.33447 102.71 7.33447ZM108.336 12.6273L108.333 12.5304C108.28 10.9259 107.711 9.45447 106.73 8.3902C105.695 7.26525 104.306 6.67159 102.71 6.67159C99.4521 6.67159 97.0868 9.27113 97.0868 12.8539C97.0868 16.5247 99.5417 19.0881 103.055 19.0881C104.981 19.0881 106.624 18.3789 107.805 17.0359L107.862 16.971L107.359 16.467L107.294 16.5422C106.235 17.7738 104.769 18.4252 103.055 18.4252C101.473 18.4252 100.135 17.8634 99.185 16.8006C98.2941 15.8014 97.8029 14.4006 97.8029 12.8539V12.6273H108.336Z" fill="#1B073A"></path>
</svg>