<svg xmlns="http://www.w3.org/2000/svg" width="113" height="50" viewBox="0 0 113 50" fill="none"><g id="Group 286"><path id="Vector" d="M64.7506 7.34305C61.0537 7.34305 58.1945 9.99983 58.1945 14.3324C58.1945 18.6645 61.0827 21.3503 64.7506 21.3503C68.4475 21.3503 71.3067 18.6645 71.3067 14.3324C71.3067 9.99983 68.4475 7.34305 64.7506 7.34305ZM54.3242 14.3609C54.3242 7.94924 59.0032 4.07951 64.7506 4.07951C70.527 4.07951 75.177 7.94924 75.177 14.3609C75.177 20.7731 70.527 24.6428 64.7506 24.6428C59.0032 24.6428 54.3242 20.7731 54.3242 14.3609Z" fill="#33454F"></path><path id="Vector_2" d="M83.9567 24.2961H80.3179L75.8408 10.3179H79.5092L82.4259 20.3394L85.7474 10.3179H88.6357L92.0721 20.0795L94.7584 10.3179H98.4263L93.8054 24.2961H90.4838L87.0468 14.8228L83.9567 24.2961Z" fill="#33454F"></path><path id="Vector_3" d="M106.455 13.0904C104.173 13.0904 103.393 14.9965 103.393 17.336V24.2964H99.6963V10.3176H103.393L103.364 12.4262H103.451C104.202 10.9528 105.617 10.0577 107.639 10.0577C111.654 10.0577 112.664 12.6571 112.664 16.007V24.2964H108.967V16.8162C108.967 14.7366 108.592 13.0904 106.455 13.0904Z" fill="#33454F"></path><path id="Vector_4" d="M60.1581 36.402V46.1926H56.4902V26.2645H60.476L70.382 40.7921C70.382 40.7921 70.3246 38.4526 70.3246 36.0841V26.2645H73.9925V46.1926H70.2086L60.1001 31.4922C60.1001 31.4922 60.1581 34.0335 60.1581 36.402Z" fill="#33454F"></path><path id="Vector_5" d="M79.5385 37.9905H86.239C86.181 36.4597 85.6038 34.698 83.0045 34.698C80.8094 34.698 79.6539 36.2288 79.5385 37.9905ZM83.7551 43.68C85.6328 43.68 87.3075 42.8429 87.9717 42.2651L89.4161 44.2577C88.6359 45.0663 86.5279 46.5107 83.1199 46.5107C78.9033 46.5107 75.7842 43.9398 75.7842 39.4349C75.7842 34.9578 79.0477 31.9542 83.0329 31.9542C87.3365 31.9542 89.9359 34.785 89.9359 38.5103C89.9359 39.2325 89.8778 40.388 89.8778 40.388H79.5965C79.9428 42.6114 81.6471 43.68 83.7551 43.68Z" fill="#33454F"></path><path id="Vector_6" d="M98.0802 46.1929H94.4413L89.9648 32.2146H93.6327L96.5494 42.2361L99.8709 32.2146H102.759L106.196 41.9763L108.882 32.2146H112.55L107.929 46.1929H104.607L101.17 36.7196L98.0802 46.1929Z" fill="#33454F"></path><path id="Vector_7" d="M39.1543 35.6878C39.1577 36.3429 38.7961 36.9445 38.2217 37.255C37.9584 37.3972 37.6679 37.4648 37.3807 37.4648C37.0395 37.4648 36.6949 37.3665 36.398 37.1674L14.4199 22.1525L14.3915 35.8789C14.3903 36.4356 13.9382 36.8859 13.3815 36.8842L11.8496 36.8797C11.2934 36.878 10.8436 36.4265 10.8447 35.8703L10.88 18.839C10.88 18.1833 11.2411 17.5856 11.8188 17.278C12.3932 16.9709 13.0926 17.0045 13.6363 17.3661L35.6008 32.3736L35.5735 19.7949L24.8821 13.0181L18.6661 17.0283L15.4469 14.8834L23.9125 9.4208C24.4937 9.04947 25.2398 9.04606 25.8244 9.41398L38.2962 17.3189C38.8063 17.6465 39.1174 18.2072 39.1202 18.8151L39.1543 35.6878Z" fill="#267A83"></path><path id="Vector_8" d="M25 3.54673C13.1707 3.54673 3.5473 13.1707 3.5473 25C3.5473 36.8293 13.1707 46.4527 25 46.4527C36.8293 46.4527 46.4533 36.8293 46.4533 25C46.4533 13.1707 36.8293 3.54673 25 3.54673ZM25 50C11.2151 50 0 38.7849 0 25C0 11.2145 11.2151 -3.8147e-06 25 -3.8147e-06C38.7849 -3.8147e-06 50 11.2145 50 25C50 38.7849 38.7849 50 25 50Z" fill="#33454F"></path></g></svg>