<?xml version="1.0" encoding="UTF-8"?>
<svg id="Logo" xmlns="http://www.w3.org/2000/svg" viewBox="0 0 832.33 409.6">
  <defs>
    <style>
      .cls-1 {
        fill: #00614e;
      }

      .cls-2 {
        fill: #ec0733;
      }
    </style>
  </defs>
  <path class="cls-2" d="m697.67,203.76c13.18,7.3,20.18-5.93,21.87-8.34,1.4-2.12,1.03-3.64.27-5.4-9.12-16.52-14.81-33.05-18.34-51.72-.1-.42-.16-.84-.29-1.5h7.73c1.49,0,3.07.02,4.64.02,1.93,0,2.41.53,2.78,2.22,2.13,14.01,5.3,25.85,12.12,37.81.12.25.32.72.45.72.23.02.38-.36.53-.78,4.31-10.19,8.48-24.22,11.49-37.9.34-1.55.88-2.14,2.58-2.07,2.29,0,11.66,0,12.39,0-19.69,83.22-44.8,83.1-57.04,79.9-2.89-.75-2.86-1.09-2.41-4.03.44-2.91.8-5.84,1.22-8.93"/>
  <path class="cls-2" d="m461.2,175.48c1.04,3.74,2.02,7.2,2.91,10.69.08.33-.37.98-.75,1.24-6.19,4.3-15.01,5.72-22.38,4.83-13.82-1.66-20.97-12.52-21.8-24.6-.47-6.9.35-13.55,3.91-19.63,4.1-6.99,10.26-10.87,18.13-12.04,6-.89,13.66-.06,19.01,3.01.66.38,1.28.83,1.96,1.26-1.04,3.73-2.04,7.34-2.92,10.51-2.67-1.23-5.62-2.36-8.49-2.78-8.32-1.22-15.31,4.09-16.8,10.53-1.01,4.43-.89,8.84.72,13.13,2.46,6.57,10.55,9.7,17.91,8.26,3.18-.62,5.89-2.12,8.57-4.41"/>
  <path class="cls-2" d="m609.7,111.46c4.63-.53,9.2-1.05,14.01-1.6v2.27c0,19.76,0,39.52,0,59.29,0,1.28.05,2.55.13,3.83.26,4.08,2.77,5.95,6.77,5,.79-.19,1.56-.53,2.6-.89.51,3.62,1.02,7.21,1.55,10.98-6,2.27-11.97,3.31-17.99.48-4.17-1.97-6.01-5.74-6.73-10.1-.3-1.8-.4-3.65-.4-5.48-.03-20.71-.02-41.42-.02-62.13,0-.5.04-.99.07-1.65"/>
  <path class="cls-2" d="m315.89,191.35h-13.97v-54.52h9.95c.7,0,1.02.66,1.09,1.04.34,1.73.58,3.47.82,4.98,1.04-1.2,5.91-8.9,17.35-6.58,1.01.3,1.36.75,1.22,1.9-.38,3.14-.97,10.43-1.04,10.99-6.82-3-15.41,2.05-15.41,7.63,0,10.91,0,33.73,0,34.55"/>
  <path class="cls-2" d="m545.97,155.36c-1.02-5.69-3.37-10.72-7.81-14.51-8.25-7.05-20.87-6.94-29.48.14-.41.34-.84.68-1.4,1.12-.2-1.33-.42-2.79-.71-4.24-.07-.39-.39-1.04-1.09-1.04,0,0-7.32-.01-9.95-.01h0v81.34c4.66-.5,9.19-.99,13.94-1.49v-24.23c23.36,0,31.11-8.91,34.61-17.11,2.74-6.41,3.11-13.13,1.88-19.96m-14.85,14.64c-2.47,6.95-7.98,9.72-14.84,10.32-2.19.19-4.4.03-6.88.03v-1.93c0-8.07.03-16.14-.03-24.21-.02-1.3.41-2.18,1.32-3.02,4.73-4.36,11.17-5.14,15.95-1.83,2.47,1.71,3.94,4.16,4.75,7.01,1.29,4.55,1.31,9.16-.27,13.62"/>
  <path class="cls-2" d="m411.65,165.38c-.03-3.83.06-7.7-.38-11.5-.81-7.09-3.97-12.96-10.64-16.02-7.94-3.64-15.78-3-23.12,1.93-.9.61-1.73,1.31-2.51,1.9-.32-.97-.86-3.58-.91-3.82-.07-.39-.39-1.04-1.09-1.04,0,0-9.95,0-9.95,0v54.52h13.92s0-32.96,0-34.55c0,0-.52-6.41,6.05-8.68,3.98-1.37,7.77-1.15,10.99,1.81,2.42,2.22,3.36,5.22,3.39,8.43.08,10.3,0,32.98,0,32.98h14.25c0-.68.04-17.95-.01-25.97"/>
  <polygon class="cls-2" points="472.02 136.9 485.93 136.9 485.93 171.8 485.93 191.26 472.02 191.26 472.02 160.79 472.02 136.9"/>
  <polygon class="cls-2" points="655.31 191.31 641.53 191.31 641.53 156.62 641.53 136.93 655.31 136.93 655.31 159.66 655.31 191.31"/>
  <polygon class="cls-2" points="352.35 191.33 338.5 191.33 338.5 164.97 338.5 136.96 352.35 136.96 352.35 171.05 352.35 191.33"/>
  <path class="cls-2" d="m640.47,120.61c.01-4.5,3.45-7.97,7.87-7.96,4.63,0,8.07,3.45,8.05,8.08-.02,4.62-3.46,7.96-8.18,7.93-4.44-.03-7.77-3.48-7.75-8.05"/>
  <path class="cls-2" d="m479.01,128.66c-4.54.01-8.04-3.44-8.07-7.95-.04-4.45,3.52-8.03,7.99-8.05,4.5-.02,8.03,3.47,8.06,7.98.03,4.49-3.48,8.02-7.99,8.03"/>
  <path class="cls-2" d="m345.37,128.66c-4.55-.01-7.98-3.48-7.95-8.03.03-4.53,3.51-8,8.02-7.98,4.51.02,7.98,3.52,7.97,8.05-.02,4.54-3.47,7.97-8.03,7.96"/>
  <path class="cls-2" d="m695.05,177.51c-1.35.71-2.56,1.52-3.9,1.98-1.39.47-2.89.77-4.36.83-4.11.15-6.54-2.02-7.05-6.11-.13-1.05-.23-2.11-.23-3.16-.02-7.12-.01-14.25,0-21.38,0-.54.05-1.07.08-1.76h12.19c1.11-3.45,1.74-6.26,2.84-11.08h-15.15v-19.49c-4.72.46-9.3.91-13.98,1.37,0,4.41-.08,48.56.12,57.08.13,5.53,1.78,10.52,6.63,13.86,6.32,4.35,18.17,3.26,23.87-.54.35-.23.61-.94.54-1.38-.48-3.4-1.06-6.8-1.61-10.22"/>
  <path class="cls-2" d="m597.38,175c0-.22,0-.45,0-.67-.1-7.07.03-14.44-.05-21.55-.09-7.78-4.04-13.02-11.57-15.54-5.9-1.97-11.95-1.89-18.01-.84-5.51.95-10.06,2.74-14.65,6.04.99,3.61,1.95,7.12,2.95,10.77.67-.43,1.18-.75,1.67-1.07,5.32-3.53,10.57-5.02,17.02-4.65,7.24.42,9.42,4.34,8.26,11.38-3.53,0-7-.1-10.46.03-5.13.18-10.08,1.19-14.49,4.05-9.08,5.9-9.07,20.68.06,26.5,5.31,3.39,11.15,3.55,17.11,2.42,3.99-.77,7.43-2.68,10.44-5.45.73.85,1.33,1.64,2.02,2.35,4.24,4.4,12.43,4.03,17,1.93l-1.58-10.63c-3.78,1.46-5.71-.24-5.71-5.08m-14.2,1.08c-.03.54-.33,1.19-.71,1.56-3.64,3.58-8.05,4.64-12.94,3.62-2.5-.53-3.98-2.38-4.16-4.77-.17-2.36,1.15-5.78,3.68-6.75,3.26-1.25,6.67-1.3,10.1-1.04,1.3.1,2.6.36,4.06.56,0,1.96.06,5.11-.03,6.82"/>
  <path class="cls-2" d="m283.49,120.67c-6.52-4.05-13.84-5.51-21.36-5.73,0,0-11.67-.06-17.52-.02-1.53,0-1.92.77-1.92,2.28.05,24.11,0,73.53,0,74.15h14.78c0-.76,0-22.31,0-22.31,0,0,2.1,0,2.19,0,5.61-.12,11.12-.87,16.42-2.77,9.68-3.48,16.56-9.62,18.48-20.3,1.9-10.53-2.03-19.68-11.08-25.29m-11.89,33.98c-2.36,1.07-4.78,1.49-7.27,1.73-3.83.35-6.54-.55-6.82-.66v-28.41c6.7-.32,13.37-.03,18.57,4.91,6.8,6.47,4.32,18.44-4.48,22.43"/>
  <path class="cls-2" d="m255.57,251.12c2.96-.82,6-3.15,6-7.28,0-5-4.68-8.09-12.87-8.09-1.87,0-3.78.09-5.95.22v31.56c1.76.09,3.55.23,5.58.23,9.41,0,14.74-3.41,14.74-9.23,0-4.18-3.46-6.72-7.5-7.41m-9-12.06c.91-.03,1.73-.03,2.51-.03,5.32,0,8.5,1.96,8.5,5.23,0,3.49-3,5.59-8.05,5.59h-2.96v-10.79Zm2.82,25.42c-.95,0-1.87,0-2.82-.09v-11.32h3.05c5.95,0,9.45,2.05,9.45,5.55,0,3.73-3.6,5.85-9.69,5.85"/>
  <path class="cls-2" d="m283.71,261.89c-1.49,1.81-3.44,2.87-5.59,2.87-2.96,0-5.5-1.82-5.5-6.4v-13.38h-3.83v13.87c0,6.23,3.83,9.1,8.5,9.1,2.68,0,5.19-1.13,7.01-3.04l.23,2.64h3v-22.55h-3.83v16.92Z"/>
  <polygon class="cls-2" points="294.81 251.05 294.81 267.53 298.63 267.53 298.63 259.91 298.63 244.98 294.81 244.98 294.81 251.05"/>
  <path class="cls-2" d="m296.72,234.87c-1.64,0-2.87,1.26-2.87,2.83s1.24,2.86,2.87,2.86,2.82-1.24,2.82-2.86-1.23-2.83-2.82-2.83"/>
  <path class="cls-2" d="m312.09,264.71c-1.5,0-2.41-1.06-2.41-3.04v-27.92l-3.82.5v27.84c0,3.91,2,5.86,5.18,5.86,1.36,0,2.73-.32,3.83-.91l-.51-3c-.72.45-1.36.69-2.26.69"/>
  <path class="cls-2" d="m333.24,244.61c-.73,0-1.4-.03-2.04-.03-9.18,0-13.96,5.03-13.96,12.49,0,6.51,3.73,10.87,9.32,10.87,2.73,0,5.23-.95,7.22-3.04l.29,2.64h2.95v-33.78l-3.77.5v10.37Zm0,17.29c-1.46,1.76-3.5,2.87-5.82,2.87-3.95,0-6.32-3.15-6.32-7.91,0-5.28,3-9,9.73-9,.72,0,1.54,0,2.41.04v14.01Z"/>
  <polygon class="cls-2" points="344.29 250.29 344.29 267.53 348.1 267.53 348.1 261.68 348.1 244.98 344.29 244.98 344.29 250.29"/>
  <path class="cls-2" d="m346.18,234.87c-1.63,0-2.86,1.26-2.86,2.83s1.22,2.86,2.86,2.86,2.83-1.24,2.83-2.86-1.23-2.83-2.83-2.83"/>
  <path class="cls-2" d="m365.57,244.58c-2.77,0-5.19,1.13-7,3.04l-.24-2.64h-3v22.55h3.82v-16.96c1.46-1.78,3.44-2.82,5.54-2.82,2.96,0,5.51,1.81,5.51,6.41v13.37h3.82v-13.88c0-6.18-3.82-9.08-8.46-9.08"/>
  <path class="cls-2" d="m388.62,244.58c-4.73,0-8.68,2.81-8.68,7.85,0,2.92,1.36,5.06,3.45,6.28-.91,1-1.46,2.18-1.46,3.55s.63,2.56,1.68,3.23c-3.05.87-4.91,3.19-4.91,6.19,0,4.37,3.86,7.01,9.91,7.01,6.5,0,10.55-2.92,10.55-7.56,0-3.95-3.15-6.35-8.09-6.35h-2.6c-1.82,0-3-1.14-3-2.6,0-.9.36-1.68,1.01-2.42.58.19,1.23.29,1.86.29,4.82,0,8.69-2.86,8.69-7.83,0-1.73-.6-3.09-1.5-4.13h3.73v-3.1h-7.69c-.96-.28-1.92-.4-2.96-.4m-1.04,23.22h3.04c2.95,0,4.83,1.36,4.83,3.55,0,2.59-2.55,4.27-6.61,4.27s-6.45-1.6-6.45-4.14c0-2.27,1.82-3.69,5.18-3.69m5.82-15.41c0,2.87-2.37,4.63-4.86,4.63-2.64,0-5-1.77-5-4.72s2.36-4.68,4.87-4.68,5,1.82,5,4.77"/>
  <path class="cls-2" d="m420.25,243.66c0-2.97,2.47-4.73,5.69-4.73,2.27,0,4.46.73,6.55,2.13l1.04-3.18c-2.22-1.5-4.67-2.32-7.59-2.32-5.59,0-9.69,3.15-9.69,8.5,0,9.96,14.56,8.05,14.56,15.51,0,3.13-2.55,5.01-6.15,5.01-2.54,0-5.08-.92-7.22-2.42l-1,3.29c2.18,1.58,5,2.49,8.18,2.49,5.82,0,10.19-3.28,10.19-8.77,0-10.19-14.55-8.28-14.55-15.5"/>
  <path class="cls-2" d="m450,244.58c-6.19,0-11.33,4.31-11.33,11.81s5.14,11.55,11.1,11.55,11.27-4.31,11.27-11.82-5.13-11.54-11.03-11.54m-.05,20.14c-3.97,0-7.43-2.91-7.43-8.55,0-5.27,3.45-8.36,7.24-8.36,4.01,0,7.41,2.96,7.41,8.54,0,5.27-3.4,8.37-7.22,8.37"/>
  <path class="cls-2" d="m475.95,264.61c-4.28,0-7.01-3.27-7.01-8.45,0-5.55,3.33-8.32,6.96-8.32,1.82,0,3.5.57,5.05,1.85l.95-3c-1.77-1.36-3.82-2.12-6.31-2.12-5.65,0-10.51,4.04-10.51,11.81,0,7.1,4.14,11.55,10.22,11.55,3.1,0,5.6-1,7.64-2.72l-.95-3.05c-1.71,1.64-3.54,2.45-6.04,2.45"/>
  <path class="cls-2" d="m490.23,234.87c-1.64,0-2.86,1.26-2.86,2.83s1.22,2.86,2.86,2.86,2.81-1.24,2.81-2.86-1.22-2.83-2.81-2.83"/>
  <polygon class="cls-2" points="488.32 251.3 488.32 267.53 492.15 267.53 492.15 263.21 492.15 244.97 488.32 244.97 488.32 251.3"/>
  <path class="cls-2" d="m508.91,264.71c-4.54,0-7.27-3-7.5-7.69v-.4h14.87c.04-.55.09-1.1.09-1.68,0-6.38-3.54-10.36-8.87-10.36-5.77,0-9.91,4.63-9.91,11.81s4.23,11.56,10.87,11.56c3.28,0,6-1,8.28-2.77l-.9-3c-2.06,1.68-4.18,2.55-6.93,2.55m-1.5-17.01c3.15,0,5.2,2.55,5.24,6.09h-11.09c.58-3.82,2.82-6.09,5.85-6.09"/>
  <path class="cls-2" d="m529.69,264.66c-2.31,0-3.59-1.31-3.59-3.94v-12.64h7.36v-3.1h-7.36v-7.01l-3.77.4v6.61h-3.64v3.1h3.64v13.04c0,4.56,2.36,6.82,6.51,6.82,1.99,0,4.04-.59,5.58-1.82l-.58-3.04c-1.27,1.08-2.64,1.59-4.15,1.59"/>
  <path class="cls-2" d="m554.22,244.98c-1.38,6.14-3.23,12.7-5.87,19.05-2.68-6.14-5.28-12.78-6.78-19.05h-3.91c1.83,7.23,4.68,14.5,8.51,22.91-2.14,4.5-5,7.42-8.14,7.42-1,0-1.92-.28-2.73-.78l-.5,3.18c.87.5,2.09.83,3.36.83,4.96,0,9.09-4.28,12.46-11.37,3.09-6.4,5.65-14.69,7.38-22.19h-3.77Z"/>
  <path class="cls-2" d="m194.49,104.45s-.76-.06-1.21.11c-.58.22-.3,1.33-.3,1.33,0,0,1.85,9.09-5.95,22.88,0,0,.02.03.02.03,4.72,7.88,7.37,16.24,8.54,24.54,6.22-6.97,8.7-12.76,8.7-12.76.03-.05.06-.11.09-.16,16.81-31.39-8.37-35.95-9.88-35.96"/>
  <path class="cls-2" d="m183.35,134.55c-.59.83-1.18,1.66-1.83,2.51-.69.89-1.43,1.77-2.19,2.64,0,0,0,0,0,0,3.42,7.16,5.13,15.17,5.5,23.31,1.95-1.41,3.73-2.85,5.35-4.3,0-.03,0-.06,0-.06,0,0-.49-11.51-6.82-24.1"/>
  <path class="cls-2" d="m198.41,80.84c-11.05-5.64-21.55-5.43-33.12-1.77-6.4,2.03-11.97,4.98-17.03,9.44-1.03.9-2.01,1.84-2.97,2.79-.42.42-.82.84-1.23,1.27-.49.51-.97,1.02-1.44,1.54-.53.58-1.04,1.16-1.54,1.76-.28.33-.56.67-.84,1.01-4.03,4.91-7.38,10.26-10.11,15.94-.8,1.67-1.55,3.37-2.25,5.09-.36.88-.7,1.76-1.03,2.65-.14.38-.26.77-.41,1.14-.66,1.56-1.13,3.29-1.62,4.95-.46,1.53-.88,3.07-1.27,4.63-.11.44-.22.89-.32,1.34-.27,1.12-.52,2.24-.75,3.36-.11.51-.21,1.01-.31,1.52-.21,1.09-.4,2.17-.58,3.26-.09.53-.18,1.06-.26,1.58-.17,1.13-.32,2.26-.47,3.39-.06.48-.13.95-.18,1.43-.18,1.59-.34,3.2-.47,4.8-.16,1.99-.21,4.01-.31,6.07-29.18-3.32-34.86-19.06-34.86-19.06-2.91-7.08-2.16-12.88-.87-16.71.08-.34.19-1-.09-.99-.31,0-.63.64-.75.87-10.75,25.85,14.24,38.38,36.28,41.45-.04,1.81.01,3.6.02,5.41-13.75-1.64-42.08-8.37-41.96-36.07-.02-.32-.09-.66-.29-.61-.24.06-.41.54-.5.84-.22.97-.38,2-.48,3.09-1.13,12.95,5.89,33.92,43.11,39.48.05,0,.11.01.16.03.03.72.08,1.46.14,2.23.17,1.94.43,3.77.78,5.68.22,1.2.47,2.4.76,3.58.48,1.99,1.1,4.02,1.78,5.94.5,1.42,1.06,2.82,1.67,4.2.48,1.1,1.01,2.18,1.57,3.23.68,1.29,1.46,2.61,2.27,3.86,1.22,1.88,2.68,3.52,4.15,5.22.39.45.69.89,1.14,1.29.57.5,1.13,1.03,1.68,1.55,0,0,8.13,7.53,17.99-1.25.91-.81,1.12-1.01,1.48-1.43,0,0,1.69-1.93,1.1-2.49-1.23-1.18-2.5-2.26-3.61-3.57-1.14-1.33-2.18-2.74-3.18-4.17-1.31-1.87-2.49-3.84-3.53-5.88-2.66-5.22-4.36-10.89-5.14-16.69,16.15-.5,28.57-4.7,37.98-10.08-.11-6.82-1.13-14.76-4.14-22.48-8.05,7.04-19.22,12.46-34.01,13.73.06-1.34.13-2.7.22-4.08,0-.03,0-.06,0-.09.09-1.3.2-2.63.34-3.98.02-.23.05-.46.07-.69.15-1.37.31-2.76.53-4.22.2-1.37.45-2.78.73-4.21.05-.28.11-.57.17-.85.29-1.43.63-2.89,1.01-4.39.06-.25.14-.5.2-.75.37-1.38.78-2.78,1.24-4.22.08-.25.15-.5.23-.75.52-1.57,1.1-3.18,1.73-4.82.14-.36.29-.73.43-1.09.68-1.71,1.41-3.45,2.24-5.24.06-.13.13-.24.19-.37.97-2.05,2.06-3.95,3.24-5.72,1-1.5,2.07-2.91,3.2-4.22,1.29-1.5,2.64-2.88,4.06-4.13,1.16-1.02,2.36-1.96,3.58-2.83.14-.1.27-.18.41-.28,1.08-.75,2.18-1.44,3.3-2.07.17-.1.35-.2.52-.3,2.46-1.35,4.99-2.42,7.52-3.24.26-.08.52-.16.77-.24,1.09-.33,2.17-.61,3.25-.85.17-.04.34-.08.51-.12,1.22-.25,2.43-.44,3.62-.58.25-.03.5-.04.74-.07.94-.09,1.86-.14,2.78-.16.31,0,.62-.01.93-.01,1.11,0,2.21.05,3.26.16,2.53.26,4.88.85,7.04,1.72,1.04.42,2.03.92,2.97,1.48.03.02.07.03.1.05,4.76,2.78,8.25,7.53,9.9,12.75.2.64.34,1.36.72,1.93.24.36.64.68.68.02.69-10.61-4.76-25.88-14.57-30.89"/>
  <path class="cls-1" d="m176.85,185.53c-7.65,33.59-25.02,35.68-30.78,35.65-1.88-.02-3.39-.33-4.48-.64-.34-.09-.53-.06-.58.05-.11.26.16.56.52.8,5.26,3.38,12.22,2.07,12.22,2.07,22-2.5,40.92-51.6,25.56-83.76-6.71-14.04-16.13-22.37-26.21-26.99-1.18,1.77-2.27,3.67-3.24,5.72,39.31,18.47,26.98,67.09,26.98,67.09"/>
  <path class="cls-1" d="m91.27,123.32c-.33.51-.52.96-.27,1.02.17.04.39-.12.58-.3,2.76-3.05,11.64-10.33,34.1-11.27,1.61-.07,3.06-.04,4.45.02.76-1.57,1.57-3.11,2.42-4.63-.07.13-1.82-.05-2.04-.05-.73,0-1.45,0-2.18,0-4.46.07-8.93.48-13.31,1.38-4.78.98-9.47,2.55-13.72,4.97-2.18,1.24-4.23,2.7-6.08,4.39-.95.87-1.84,1.79-2.68,2.77-.1.11-.82.97-1.28,1.7"/>
  <path class="cls-1" d="m100.63,110.34c-.19.22-.61.74-.38.86.03.02.07.02.1.02,4.48-2.74,17.64-9.56,35.27-8.12.92-1.38,1.87-2.74,2.88-4.07-24.2-1.25-35.88,9.29-37.88,11.31"/>
  <path class="cls-1" d="m156.32,108.49c32.35,14.44,33.85,50.16,33.85,50.16,0,0,2.49,31-13.79,53.8-6.02,8.43-9.81,10.08-12.87,11.78,0,0-.81.44-.46.59.36.14,9.71-.54,18.64-12.23,10.01-13.12,24.26-52.21,5.36-83.8,0,0-8.18-15.82-26.67-24.43-1.42,1.25-2.77,2.64-4.06,4.13"/>
  <path class="cls-2" d="m256.79,322.53c4.29,0,7.62-1.46,10.49-3.97l-1.05-3.24c-2.55,2.46-5.29,3.79-8.94,3.79-6.43,0-10.49-5.11-10.49-12.91,0-8.58,4.97-12.77,10.4-12.77,2.65,0,5.25.91,7.53,2.83l1.09-3.15c-2.41-2.05-5.38-3.06-8.8-3.06-7.62,0-14.28,5.52-14.28,16.38,0,9.81,5.61,16.1,14.05,16.1"/>
  <path class="cls-2" d="m269.56,329.92c-1,0-1.91-.27-2.73-.78l-.5,3.19c.87.51,2.1.82,3.37.82,4.97,0,9.12-4.29,12.5-11.4,3.1-6.43,5.66-14.73,7.39-22.26h-3.79c-1.37,6.16-3.24,12.73-5.89,19.11-2.69-6.16-5.29-12.82-6.8-19.11h-3.92c1.82,7.25,4.7,14.55,8.53,22.99-2.15,4.52-5.02,7.44-8.17,7.44"/>
  <path class="cls-2" d="m298.39,305.1c1.37-1.78,3.15-2.82,5.02-2.82,2.65,0,5.02,1.87,5.02,6.43v13.41h3.78v-13.87c0-1-.04-1.87-.22-2.69,1.32-2,3.24-3.28,5.29-3.28,2.65,0,5.02,1.82,5.02,6.43v13.41h3.79v-13.91c0-6.2-3.56-9.12-7.98-9.12-3.06,0-5.52,1.55-7.16,3.69-1.41-2.51-3.88-3.69-6.66-3.69-2.55,0-4.79,1.14-6.48,3.01l-.23-2.6h-3.01v22.63h3.83v-17.02Z"/>
  <path class="cls-2" d="m347.28,316.47c-1.46,1.78-3.51,2.87-5.84,2.87-3.97,0-6.34-3.15-6.34-7.93,0-5.29,3.01-9.03,9.76-9.03.73,0,1.55,0,2.42.05v14.05Zm-16.06-4.84c0,6.53,3.74,10.9,9.35,10.9,2.74,0,5.24-.96,7.25-3.06l.27,2.65h2.96v-33.89l-3.79.51v10.4c-.73,0-1.41-.05-2.05-.05-9.21,0-14,5.06-14,12.54"/>
  <path class="cls-2" d="m365.61,302.23c3.14,0,5.2,2.56,5.25,6.11h-11.13c.59-3.83,2.83-6.11,5.89-6.11m1.05,20.3c3.29,0,6.02-1,8.3-2.78l-.91-3.01c-2.05,1.69-4.19,2.55-6.93,2.55-4.56,0-7.3-3-7.53-7.71v-.41h14.91c.04-.54.09-1.09.09-1.69,0-6.39-3.56-10.4-8.89-10.4-5.79,0-9.94,4.65-9.94,11.86s4.24,11.58,10.9,11.58"/>
  <polygon class="cls-2" points="380.52 322.12 384.35 322.12 384.35 314.34 384.35 299.5 380.52 299.5 380.52 308.4 380.52 322.12"/>
  <path class="cls-2" d="m382.44,289.37c-1.65,0-2.87,1.23-2.87,2.83s1.23,2.87,2.87,2.87,2.83-1.23,2.83-2.87-1.23-2.83-2.83-2.83"/>
  <path class="cls-2" d="m392.84,315.69c0,4.56,2.37,6.84,6.52,6.84,2,0,4.06-.59,5.61-1.83l-.59-3.05c-1.28,1.09-2.64,1.59-4.15,1.59-2.33,0-3.61-1.32-3.61-3.97v-12.68h7.39v-3.1h-7.39v-7.8l-3.79.41v7.39h-3.65v3.1h3.65v13.09Z"/>
  <path class="cls-2" d="m424.72,308.71v13.41h3.83v-13.91c0-6.2-3.83-9.12-8.48-9.12-2.46,0-4.75.96-6.43,2.5v-13.36l-3.83.5v33.39h3.83v-17.02c1.46-1.78,3.46-2.82,5.57-2.82,2.96,0,5.52,1.82,5.52,6.43"/>
  <path class="cls-2" d="m446.98,316.65c-1.37,1.69-3.29,2.83-5.75,2.83-2.6,0-4.15-1.23-4.15-3.19,0-2.1,1.96-3.42,6.25-3.42,1.23,0,2.42.09,3.65.32v3.47Zm-3.74-6.66c-6.48,0-9.99,2.51-9.99,6.48,0,3.6,2.83,6.07,7.25,6.07,3.1,0,5.43-1.19,7.07-2.92.55,1.73,1.96,2.83,4.15,2.83,1.41,0,2.42-.46,3.24-.96l-.46-3.01c-.5.46-1.09.78-1.87.78-1.23,0-1.83-.78-1.83-2.32l.03-8.9c0-6.25-3.37-8.89-8.75-8.89-3.52,0-6.48,1.18-8.8,3.1l.91,3.01c2.14-1.78,4.42-2.88,7.3-2.88,3.42,0,5.52,1.64,5.52,6.02l-.03,1.92c-1.14-.22-2.42-.32-3.74-.32"/>
  <path class="cls-2" d="m462.12,305.1c0-1.73,1.55-2.91,4.1-2.91,1.83,0,3.61.59,5.07,1.59l.96-3.01c-1.69-1.05-3.88-1.64-6.11-1.64-4.74,0-7.8,2.5-7.8,6.25,0,7.62,11.18,5.89,11.18,10.9,0,1.91-1.74,3.19-4.43,3.19-2.01,0-3.88-.6-5.7-1.78l-.82,3.01c1.69,1.14,4.11,1.83,6.57,1.83,4.88,0,8.16-2.55,8.16-6.52,0-7.8-11.17-6.02-11.17-10.9"/>
  <path class="cls-2" d="m497.61,311.5c1.64-5.79,3.65-11.59,5.84-16.97,2.19,5.39,4.15,11.18,5.79,16.97h-11.63Zm3.46-21.03c-4.24,10.36-7.75,21.3-9.99,31.66h3.92c.5-2.42,1.1-4.88,1.78-7.35h13.37c.64,2.47,1.23,4.93,1.73,7.35h4.06c-2.23-10.36-5.75-21.3-10.04-31.66h-4.84Z"/>
  <path class="cls-2" d="m535.47,316.47c-1.46,1.78-3.51,2.87-5.84,2.87-3.97,0-6.34-3.15-6.34-7.93,0-5.29,3.01-9.03,9.76-9.03.73,0,1.55,0,2.42.05v14.05Zm0-17.33c-.73,0-1.42-.05-2.05-.05-9.21,0-14.01,5.06-14.01,12.54,0,6.53,3.74,10.9,9.36,10.9,2.73,0,5.24-.96,7.25-3.06l.28,2.65h2.96v-33.89l-3.79.5v10.4Z"/>
  <path class="cls-2" d="m553.8,302.23c3.15,0,5.2,2.56,5.24,6.11h-11.13c.59-3.83,2.83-6.11,5.88-6.11m1.51,17.06c-4.56,0-7.3-3-7.53-7.71v-.41h14.92c.04-.54.09-1.09.09-1.69,0-6.38-3.55-10.4-8.89-10.4-5.79,0-9.94,4.65-9.94,11.86s4.24,11.58,10.9,11.58c3.28,0,6.02-1,8.3-2.78l-.91-3.01c-2.05,1.69-4.2,2.55-6.93,2.55"/>
  <polygon class="cls-2" points="568.41 322.12 572.25 322.12 572.25 317.91 572.25 299.5 568.41 299.5 568.41 304.64 568.41 322.12"/>
  <path class="cls-2" d="m570.33,289.37c-1.64,0-2.87,1.23-2.87,2.83s1.22,2.87,2.87,2.87,2.83-1.23,2.83-2.87-1.23-2.83-2.83-2.83"/>
  <path class="cls-2" d="m585.5,319.29c-1.51,0-2.42-1.05-2.42-3.05v-28.01l-3.83.51v27.91c0,3.92,2.01,5.88,5.2,5.88,1.37,0,2.74-.32,3.84-.91l-.5-3.01c-.73.46-1.37.68-2.28.68"/>
  <path class="cls-2" d="m632.52,316.47c-1.46,1.78-3.51,2.87-5.83,2.87-3.97,0-6.34-3.15-6.34-7.93,0-5.29,3.01-9.03,9.76-9.03.73,0,1.55,0,2.41.05v14.05Zm0-17.33c-.73,0-1.41-.05-2.05-.05-9.21,0-14.01,5.06-14.01,12.54,0,6.53,3.74,10.9,9.35,10.9,2.74,0,5.25-.96,7.26-3.06l.28,2.65h2.96v-33.89l-3.79.5v10.4Z"/>
  <path class="cls-2" d="m657.79,316.47c-1.5,1.82-3.47,2.87-5.61,2.87-2.97,0-5.52-1.82-5.52-6.43v-13.41h-3.83v13.91c0,6.25,3.83,9.12,8.53,9.12,2.69,0,5.2-1.14,7.02-3.06l.23,2.65h3.01v-22.63h-3.83v16.97Z"/>
  <path class="cls-2" d="m605.93,316.65c-1.37,1.69-3.29,2.83-5.75,2.83-2.6,0-4.15-1.23-4.15-3.19,0-2.1,1.97-3.42,6.25-3.42,1.23,0,2.42.09,3.65.32v3.47Zm5.66,2.6c-1.23,0-1.83-.78-1.83-2.32l.04-8.9c0-6.25-3.37-8.89-8.76-8.89-3.51,0-6.47,1.18-8.8,3.1l.91,3.01c2.15-1.78,4.43-2.88,7.3-2.88,3.41,0,5.51,1.64,5.51,6.02l-.03,1.92c-1.14-.22-2.42-.32-3.74-.32-6.48,0-9.99,2.51-9.99,6.48,0,3.6,2.83,6.07,7.25,6.07,3.1,0,5.43-1.19,7.07-2.92.55,1.73,1.96,2.83,4.15,2.83,1.41,0,2.42-.46,3.24-.96l-.46-3.01c-.5.46-1.09.78-1.87.78"/>
</svg>