<?xml version="1.0" encoding="utf-8"?>
<!-- Generator: Adobe Illustrator 27.8.1, SVG Export Plug-In . SVG Version: 6.00 Build 0)  -->
<svg version="1.1" id="Layer_1" xmlns="http://www.w3.org/2000/svg" xmlns:xlink="http://www.w3.org/1999/xlink" x="0px" y="0px"
	 viewBox="0 0 430 60" style="enable-background:new 0 0 430 60;" xml:space="preserve">
<style type="text/css">
	.st0{fill:#253746;}
</style>
<g>
	<g>
		<g>
			<path id="SVGID_1_" class="st0" d="M27.8,4c0,0-7.2-0.4-11.6,4c-2.2,2.3-3.6,5.2-3.9,8.3V17c0,2.8,3.9,3.9,6.5,2.3
				c3.4-2.4,3.2-5.4,8.1-5.8c5.2-0.4,7.5,4.2,7.5,8.7s-2.4,8.9-7.5,8.7c-5.2-0.4-4.7-3.5-8.2-5.8c-2.5-1.7-6.3-0.4-6.5,2.1
				c0.1-0.5,1.1-1.4,2.1-1.6c4.6-0.8,4.8,3,7.5,5.9c2.9,2.8,6.7,4.3,10.7,4.3c7.1-0.1,10.7-7,10.7-13.6l0,0
				C43.3,15.1,39.4,4.4,27.8,4L27.8,4L27.8,4z M166.1,18.2c0.9-3.2,3.7-5.3,6.9-5.3c3.8,0.1,4.7,2.5,4.8,5.3H166.1L166.1,18.2z
				 M173.1,4.9c-12.5,0-16.4,10-16.4,16.9c0,7.1,3.9,17,16.4,17c4.5,0,8-1.5,11.6-4.4c0.5-0.4,0.6-1.1,0.2-1.7l-3-4.2
				c-0.2-0.3-0.4-0.4-0.7-0.4c-0.3,0-0.6,0-0.9,0.2c-2.2,1.5-4.6,2.3-7.3,2.4c-4.3,0-6.7-3.3-7.2-7.3h19.4c0.3,0,0.6-0.1,0.8-0.4
				c0.2-0.2,0.4-0.5,0.4-0.8c0.1-1.1,0.2-2.1,0.2-3.2C186.6,10.6,181.7,4.9,173.1,4.9L173.1,4.9L173.1,4.9z M57.4,18.2
				c0.9-3.2,3.7-5.3,6.9-5.3c3.8,0.1,4.7,2.5,4.8,5.3H57.4L57.4,18.2z M64.3,5C51.8,5,48,15,48,21.9c0,7.1,3.9,17,16.3,17
				c4.5,0,8-1.5,11.6-4.4c0.5-0.4,0.6-1.1,0.2-1.7L73,28.6c-0.2-0.3-0.4-0.4-0.7-0.4s-0.6,0-0.9,0.2c-2.2,1.5-4.6,2.3-7.3,2.4
				c-4.3,0-6.7-3.3-7.2-7.3h19.4c0.3,0,0.6-0.1,0.8-0.4c0.2-0.3,0.4-0.5,0.4-0.8c0.2-1.1,0.2-2.1,0.2-3.2C77.8,10.6,73,4.9,64.3,5
				L64.3,5L64.3,5z M212.4,5.3C211,5.1,209.5,5,208.1,5c-3-0.1-5.9,0.8-8.3,2.5l-0.4-1c-0.3-0.6-0.8-1.1-1.5-1.1h-3.8
				c-0.6,0-1.1,0.4-1.1,1.1v30.8c0,0.6,0.5,1.1,1.1,1.1h6.6c0.6,0,1.1-0.5,1.1-1.1V15.9c1.2-2.1,3.2-2.7,5.3-2.7
				c1,0,1.8,0.1,2.7,0.3c0.6,0.1,1.2-0.3,1.5-0.9l1.9-6.1c0.1-0.3,0-0.5-0.2-0.8C212.8,5.5,212.6,5.3,212.4,5.3L212.4,5.3L212.4,5.3
				z M136.1,4c0,0-7.2-0.4-11.6,4c-2.2,2.3-3.6,5.2-4,8.3V17c0,2.8,3.9,3.9,6.5,2.3c3.4-2.4,3.2-5.4,8.1-5.8c5-0.4,7.5,4.2,7.5,8.7
				s-2.4,8.9-7.5,8.7c-5.2-0.4-4.6-3.4-8.1-5.8c-2.5-1.7-6.5-0.4-6.5,2.3v21.1c0,0-0.6,7.9,8.1,7.9c0.6,0,0.8-0.5,0.8-1.1v-17
				c2.2,0.9,4.6,1.3,7,1.1c12.1-0.4,15.2-10,15.2-17.2C151.5,15.1,147.8,4.4,136.1,4L136.1,4L136.1,4z M99.1,4c0,0-7.2-0.4-11.6,4
				c-2.2,2.3-3.6,5.2-4,8.3V17c0,2.8,3.9,3.9,6.5,2.3c3.4-2.4,3.2-5.4,8.1-5.8c5.2-0.4,7.5,4.2,7.5,8.7s-2.4,8.9-7.5,8.7
				C93,30.5,93.5,27.3,90,25c-2.5-1.7-6.5-0.4-6.5,2.3v21.1c0,0-0.6,7.9,8.1,7.9c0.6,0,0.8-0.5,0.8-1.1v-17c2.2,0.9,4.6,1.3,7,1.1
				c12.1-0.4,15.2-10,15.2-17.2C114.6,15.1,110.7,4.4,99.1,4L99.1,4L99.1,4z"/>
		</g>
	</g>
	<g>
		<g>
			<path id="SVGID_00000007386210511081974990000000082020942764468905_" class="st0" d="M223.4,37.6c0,0.5-0.4,1-1,1h-3.5
				c-0.5,0-1-0.4-1-1V6.3c0-0.5,0.4-1,1-1h0.9c0.6,0,1.1,0.4,1.3,0.9l1,3.2c2.8-2.9,6.7-4.6,10.7-4.6c5.4,0,8.6,1.9,10.6,4.9
				c3.7-3.8,7.4-4.9,10.9-4.9c12,0,12.6,9.2,12.6,16.6v16.2c0,0.5-0.4,1-1,1h-3.5c-0.5,0-1-0.4-1-1V19.9c0-3.5-0.1-9.9-7.4-10.4
				c-3.8-0.2-7.3,1.7-9.2,4.9c0.4,2.4,0.5,4.7,0.4,7.1v16.2c0,0.5-0.4,1-1,1H241c-0.5,0-1-0.4-1-1V20.2c-0.2-3.3,0.1-10.2-7.4-10.7
				c-3.8,0-7.2,1.9-9.2,5.2L223.4,37.6L223.4,37.6z"/>
		</g>
	</g>
	<g>
		<g>
			<path id="SVGID_00000003783454879469010720000002198445008217832120_" class="st0" d="M301.8,21.9c0-3.2-1.3-12.4-10.9-12.4
				c-9.4,0-10.8,9.2-10.8,12.4s1.4,12.4,10.8,12.4C300.6,34.3,301.8,25.1,301.8,21.9L301.8,21.9L301.8,21.9z M307.2,21.9
				c0,7.2-3.7,17.2-16.1,17.2c-12.4,0-16.1-10-16.1-17.2c0-7,3.8-17.1,16.1-17.1C303.4,4.7,307.2,14.9,307.2,21.9L307.2,21.9
				L307.2,21.9z"/>
		</g>
	</g>
	<g>
		<g>
			<path id="SVGID_00000011017597972963629810000013558545047738184889_" class="st0" d="M321.7,37.6c0,0.5-0.4,1-1,1h-3.4
				c-0.5,0-1-0.4-1-1V6.7c0-0.5,0.4-1,1-1h0.9c0.6,0,1.1,0.4,1.3,0.9l1,3.2c2.8-3,6.7-4.6,10.7-4.6c11.9,0,13.6,8.8,13.6,16.5v16
				c0,0.5-0.4,1-1,1h-3.5c-0.5,0-1-0.4-1-1V21.7c0-3.5,0.2-11.6-8.4-11.6c-3.6,0.2-6.9,2-9,4.9L321.7,37.6L321.7,37.6L321.7,37.6z"
				/>
		</g>
	</g>
	<g>
		<g>
			<path id="SVGID_00000068638038663690174050000010926055978942782347_" class="st0" d="M356.9,18.8h18.4c0.5-4.1-1.1-9-7.9-9.4
				C360.3,9.4,357.8,14.5,356.9,18.8L356.9,18.8L356.9,18.8z M379.5,33.2c0.4,0.4,0.3,1.1-0.2,1.5c-3.2,3-7.5,4.5-11.8,4.4
				c-12.4,0-16.1-10.1-16.1-17.2c0-6.9,3.7-17.1,16.1-17.1c8.3,0,13,5.5,13,13.9c0,1.1-0.1,2-0.2,3.1c-0.1,0.5-0.5,1-1.1,1h-22.4
				c0.2,4.2,2.8,11.6,10.8,11.6c3.3,0,6.6-1.1,9.1-3.2c0.2-0.2,0.4-0.3,0.7-0.3c0.3,0,0.5,0.2,0.6,0.4L379.5,33.2L379.5,33.2
				L379.5,33.2z"/>
		</g>
	</g>
	<g>
		<g>
			<path id="SVGID_00000106120174113754739550000011869771672688534447_" class="st0" d="M402.2,31.4l10-25c0.3-0.5,0.8-0.9,1.4-0.9
				h4.2c0.2,0,0.4,0.1,0.5,0.3c0.1,0.2,0.2,0.4,0.1,0.6l-18.7,44.8c-0.3,0.5-0.8,0.9-1.4,0.9h-3.8c-0.2,0-0.4-0.1-0.5-0.3
				c-0.1-0.2-0.2-0.4,0-0.6l5.6-13.4L386.3,6.5c-0.1-0.2-0.1-0.4,0-0.6c0.1-0.2,0.4-0.3,0.5-0.3h3.9c0.6,0,1.1,0.4,1.4,0.9
				L402.2,31.4L402.2,31.4z"/>
		</g>
	</g>
	<g>
		<g>
			<path id="SVGID_00000163793002760273465260000004737696644284440726_" class="st0" d="M32.7,35.2c-3.9,0-7.7-1.5-10.6-4.3
				c-2.7-2.8-3.1-6.7-7.7-5.9c-1,0.2-1.8,0.9-2.1,1.8v21.4c0,0-0.6,7.9,8.1,7.9c0.6,0,0.8-0.5,0.8-1.1V37.9c2.2,0.9,4.6,1.3,7,1.1
				c12-0.4,15.2-10,15.2-17.2C43.3,28.4,39.8,35,32.7,35.2L32.7,35.2L32.7,35.2z"/>
		</g>
	</g>
</g>
</svg>
