<?xml version="1.0" encoding="UTF-8" standalone="no"?>
<!-- Generator: Adobe Illustrator 27.4.0, SVG Export Plug-In . SVG Version: 6.00 Build 0)  -->

<svg
   version="1.1"
   x="0px"
   y="0px"
   viewBox="0 0 1436.6 318"
   xml:space="preserve"
   id="svg8"
   width="1436.6"
   height="318"
   xmlns="http://www.w3.org/2000/svg"
   xmlns:svg="http://www.w3.org/2000/svg"><defs
   id="defs12" />
<style
   type="text/css"
   id="style2">
	.st0{fill:#282826;}
</style>
<g
   id="Logo"
   transform="translate(-306.5,-300.6)">
	<path
   class="st0"
   d="m 485.9,404.4 c 0,51.3 -26.2,87.2 -79.9,87.2 H 371.3 V 612.8 H 306.5 V 306.4 h 100.3 c 54,0 79.1,35.9 79.1,82.6 z m -65.2,-8.1 c 0,-25.1 -4.6,-34 -29.3,-34 H 371.3 V 436 h 20.1 c 22.4,0 29.3,-8.9 29.3,-34 z m 295.9,216.5 h -66 l -27,-100.3 c -7.3,-26.2 -13.9,-29.3 -28.9,-29.3 H 582 V 612.9 H 517.2 V 306.4 h 100.3 c 56.7,0 78.3,27 78.3,71 v 15.4 c 0,40.1 -15.8,58.3 -33.2,65.2 10.8,6.9 17.8,18.9 23.9,41.7 z M 631.4,392.9 c 0,-23.5 -4.2,-30.5 -28.9,-30.5 H 582 v 67.2 h 20 c 22.4,0 29.3,-6.6 29.3,-30.5 v -6.2 z m 279,219.9 H 741.7 V 306.4 H 910 v 57.9 H 806.5 v 64.4 H 896 v 55.6 H 806.5 V 555 h 103.8 v 57.8 z m 214.1,-73.7 c 0,40.5 -23.2,79.5 -92.6,79.5 -69.8,0 -92.6,-40.9 -92.6,-79.5 V 384 c 0,-42.8 23.2,-83.4 92.6,-83.4 69.4,0 92.6,40.5 92.6,83.4 v 19.7 h -65.2 v -13.1 c 0,-17.8 -4.2,-34.3 -27.4,-34.3 -23.5,0 -27.4,16.2 -27.4,34.7 v 141.6 c 0,15.1 5.4,30.1 27.4,30.1 22.8,0 27.4,-18.9 27.4,-34 v -9.3 h 65.2 z m 99.6,73.7 h -64.8 V 306.4 h 64.8 z m 218.4,-78.3 c 0,49.4 -36.7,84.1 -90.7,84.1 -54.8,0 -91.1,-35.1 -91.1,-81.4 v -10.4 h 64.8 c -0.4,25.1 10.8,35.9 25.9,35.9 15.8,0 26.2,-10.4 26.2,-28.6 V 526 c 0,-12.3 -5.8,-22.4 -17.7,-29.3 l -55.6,-32.4 c -29.3,-17 -40.5,-39 -40.5,-68.3 v -19 c 0,-46.7 36.7,-76.4 86.8,-76.4 49.8,0 87.6,23.2 87.6,81 V 394 h -64.8 v -7.7 c 0,-21.2 -10,-30.1 -22.4,-30.1 -13.5,0 -22.8,10 -22.8,25.5 v 7.7 c 0,12.3 6.2,22 16.6,28.2 l 55.6,32.4 c 27.4,16.2 42.1,38.6 42.1,67.2 z m 204.9,78.3 H 1478.8 V 306.4 H 1647 v 57.9 h -103.4 v 64.4 h 89.5 v 55.6 h -89.5 V 555 h 103.8 z m 34.7,-66.3 h 61 v 66.4 h -61 z"
   id="path4" />
</g>
<g
   id="Exclusion"
   transform="translate(-306.5,-300.6)">
</g>
</svg>
