<svg xmlns="http://www.w3.org/2000/svg" viewBox="0 0 189.201 90"><defs/><defs><style>.sbs-logo-1{fill:#fff}.sbs-logo-2{fill:#040505}</style></defs><g id="Group_1" transform="translate(-721.767 -475.502)"><path id="Rectangle_1" d="M0 0h136.161v50.852H0z" class="sbs-logo-1" transform="translate(723.718 477.452)"/><path id="Path_1" d="M725.669 526.353h132.26V479.4h-132.26zm136.162 3.9H721.767V475.5H861.83z" class="sbs-logo-2"/><path id="Path_2" d="M766.9 512.534a5.939 5.939 0 00-.374-1.156 3.7 3.7 0 00-.8-1.156 4.278 4.278 0 00-1.37-.889 5.231 5.231 0 00-2.046-.356 4.662 4.662 0 00-1.619.267 3.976 3.976 0 00-1.246.71 3.273 3.273 0 00-.8 1.015 2.661 2.661 0 00-.285 1.209 2.625 2.625 0 00.676 1.8 3.632 3.632 0 002.064 1.05l3.523.677a10.287 10.287 0 013.024 1.032 8.265 8.265 0 012.206 1.689 6.926 6.926 0 011.352 2.189 7.014 7.014 0 01.463 2.526 7.179 7.179 0 01-.6 2.863 7.416 7.416 0 01-1.761 2.491 8.983 8.983 0 01-2.847 1.762 10.459 10.459 0 01-3.9.675 11.616 11.616 0 01-4.342-.73 9.745 9.745 0 01-3.042-1.868 7.938 7.938 0 01-1.868-2.543 8.872 8.872 0 01-.783-2.759l4.554-1.209a5.453 5.453 0 00.445 1.779 4.743 4.743 0 001.049 1.512 4.962 4.962 0 001.673 1.05 6.416 6.416 0 002.348.391 4.645 4.645 0 003.042-.873 2.762 2.762 0 001.05-2.224 2.633 2.633 0 00-.783-1.9 4.194 4.194 0 00-2.277-1.084l-3.523-.712a8.911 8.911 0 01-4.821-2.474 6.572 6.572 0 01-1.8-4.751 7.086 7.086 0 01.694-3.113 7.858 7.858 0 011.9-2.509 9.034 9.034 0 012.811-1.671 9.475 9.475 0 013.38-.606 10.889 10.889 0 013.9.623 8.545 8.545 0 012.687 1.583 7.313 7.313 0 011.654 2.117 8.7 8.7 0 01.8 2.224z" class="sbs-logo-2" transform="translate(-16.064 -15.214)"/><path id="Path_3" d="M855.066 513.923h3.949v4.057h-3.949v12.146h-4.732V517.98h-6.761v12.146H838.8V517.98h-2.918v-4.057h2.918v-3.3a7.636 7.636 0 01.445-2.686 5.777 5.777 0 011.281-2.047 5.7 5.7 0 012.01-1.315 7.138 7.138 0 012.633-.462 8.842 8.842 0 011.406.106 3.5 3.5 0 01.943.25v3.984a2.528 2.528 0 00-.534-.124 6.83 6.83 0 00-.96-.053 3.37 3.37 0 00-.819.107 2.323 2.323 0 00-.8.374 1.938 1.938 0 00-.6.73 2.7 2.7 0 00-.232 1.209v3.225h6.761v-3.3a7.633 7.633 0 01.444-2.686 5.775 5.775 0 011.281-2.047 5.7 5.7 0 012.01-1.315 7.139 7.139 0 012.634-.462 8.855 8.855 0 011.406.106 3.5 3.5 0 01.943.25v3.984a2.525 2.525 0 00-.534-.124 6.836 6.836 0 00-.961-.053 3.37 3.37 0 00-.818.107 2.321 2.321 0 00-.8.374 2.09 2.09 0 00-.623.73 2.544 2.544 0 00-.249 1.209z" class="sbs-logo-2" transform="translate(-59.596 -14.943)"/><path id="Path_4" d="M896.71 535.066a4.534 4.534 0 001.672-.321 3.985 3.985 0 001.423-.942 4.739 4.739 0 00.979-1.549 6.5 6.5 0 000-4.34 4.733 4.733 0 00-.979-1.548 3.99 3.99 0 00-1.423-.944 4.521 4.521 0 00-3.344 0 3.978 3.978 0 00-1.423.944 4.734 4.734 0 00-.979 1.548 6.487 6.487 0 000 4.34 4.74 4.74 0 00.979 1.549 3.973 3.973 0 001.423.942 4.529 4.529 0 001.672.321m0-14.268a9.486 9.486 0 013.647.694 8.621 8.621 0 014.839 4.857 9.843 9.843 0 01.694 3.736 9.719 9.719 0 01-.694 3.719 8.982 8.982 0 01-1.922 2.934 8.7 8.7 0 01-2.918 1.941 9.951 9.951 0 01-7.294 0 8.688 8.688 0 01-2.918-1.941 8.983 8.983 0 01-1.922-2.934 9.711 9.711 0 01-.694-3.719 9.835 9.835 0 01.694-3.736 8.621 8.621 0 014.839-4.857 9.479 9.479 0 013.647-.694" class="sbs-logo-2" transform="translate(-86.565 -23.654)"/><path id="Rectangle_2" d="M0 0h4.732v25.761H0z" class="sbs-logo-2" transform="translate(821.638 489.624)"/><path id="Path_5" d="M958.9 520.257l7.152 10.14h-5.8l-4.626-6.689-1.957 2.065v4.627h-4.732v-25.764h4.732V519.4l6.049-6.513h6.191z" class="sbs-logo-2" transform="translate(-118.632 -15.214)"/><path id="Path_6" d="M809.234 524.565v8.708a3.292 3.292 0 01-.839 2.466 3.627 3.627 0 01-4.576 0 3.288 3.288 0 01-.839-2.466v-8.708h-4.807v9.107a8.234 8.234 0 00.621 3.316 6.932 6.932 0 001.694 2.4 7.132 7.132 0 002.512 1.47 9.965 9.965 0 006.2 0 7.105 7.105 0 002.526-1.468 6.934 6.934 0 001.695-2.4 8.233 8.233 0 00.622-3.316v-9.107z" class="sbs-logo-2" transform="translate(-39.901 -25.622)"/><path id="Rectangle_3" d="M0 0h96.646v35.247H0z" class="sbs-logo-1" transform="translate(723.718 528.304)"/><path id="Path_7" d="M725.669 617.181h92.746v-31.345h-92.746zm96.646 3.9H721.767v-39.147h100.548z" class="sbs-logo-2" transform="translate(0 -55.581)"/><path id="Path_8" d="M756.555 619.371a2.086 2.086 0 001.41-.44 1.49 1.49 0 00.509-1.185 1.51 1.51 0 00-.5-1.175 2.052 2.052 0 00-1.42-.45h-1.939v3.251zm-.255-5.8a1.967 1.967 0 001.3-.4 1.365 1.365 0 00.48-1.107 1.385 1.385 0 00-.451-1.087 2.013 2.013 0 00-1.371-.4h-1.646v3zm.49-5.563a5.534 5.534 0 011.831.284 3.9 3.9 0 011.361.784 3.413 3.413 0 01.842 1.175 3.665 3.665 0 01.294 1.479 3.144 3.144 0 01-.587 1.89 2.826 2.826 0 01-1.45 1.087 3.343 3.343 0 01.911.382 3.247 3.247 0 01.794.676 3.151 3.151 0 01.558.97 3.514 3.514 0 01.206 1.224 3.89 3.89 0 01-.313 1.577 3.724 3.724 0 01-.881 1.244 4.007 4.007 0 01-1.371.823 5.161 5.161 0 01-1.783.294h-5.6V608.01z" class="sbs-logo-2" transform="translate(-15.579 -69.198)"/><path id="Path_9" d="M781.8 626.437a2.387 2.387 0 01-.059-.46q-.02-.323-.02-.519a2.238 2.238 0 01-1.127.911 4.073 4.073 0 01-1.479.284 3.91 3.91 0 01-1.577-.3 3.362 3.362 0 01-1.165-.823 3.551 3.551 0 01-.715-1.2 4.33 4.33 0 01-.245-1.469V616.7h2.987v5.524a1.883 1.883 0 00.382 1.195 1.407 1.407 0 001.185.49 1.564 1.564 0 001.185-.46 1.67 1.67 0 00.441-1.2V616.7h2.977v7.992q0 .667.04 1.146t.058.6z" class="sbs-logo-2" transform="translate(-28.018 -73.737)"/><path id="Path_10" d="M799 611.542h2.977v9.735H799zm-.255-2.978a1.707 1.707 0 01.137-.675 1.742 1.742 0 01.372-.559 1.765 1.765 0 01.549-.372 1.636 1.636 0 01.666-.138 1.7 1.7 0 011.253.509 1.75 1.75 0 010 2.468 1.7 1.7 0 01-1.253.509 1.643 1.643 0 01-.666-.137 1.766 1.766 0 01-.549-.372 1.742 1.742 0 01-.372-.559 1.707 1.707 0 01-.137-.676" class="sbs-logo-2" transform="translate(-40.199 -68.577)"/><path id="Rectangle_4" d="M0 0h2.977v14.181H0z" class="sbs-logo-2" transform="translate(764.011 538.518)"/><path id="Path_11" d="M822.65 616.7a2.892 2.892 0 00.176 1.058 2.155 2.155 0 00.48.754 2.032 2.032 0 00.705.461 2.291 2.291 0 001.665 0 2.033 2.033 0 00.705-.461 2.164 2.164 0 00.48-.754 3.27 3.27 0 000-2.116 2.173 2.173 0 00-.48-.754 1.925 1.925 0 00-.705-.451 2.429 2.429 0 00-1.665 0 1.924 1.924 0 00-.705.451 2.164 2.164 0 00-.48.754 2.9 2.9 0 00-.176 1.058m7.287 3.134c0 .444.01.82.03 1.126s.036.513.049.617h-2.86a5.322 5.322 0 01-.049-.372 5.337 5.337 0 01-.029-.568 2.391 2.391 0 01-1.029.832 3.7 3.7 0 01-1.577.323 4.776 4.776 0 01-1.92-.382 4.641 4.641 0 01-1.528-1.058 4.8 4.8 0 01-1.009-1.616 5.953 5.953 0 01-.01-4.064 4.982 4.982 0 01.979-1.616 4.42 4.42 0 011.489-1.068 4.645 4.645 0 011.9-.382 4.694 4.694 0 011.077.107 4.042 4.042 0 01.764.255 1.888 1.888 0 01.5.323 2.284 2.284 0 01.284.313V607.4h2.938z" class="sbs-logo-2" transform="translate(-51.118 -68.877)"/><path id="Path_12" d="M845.737 611.542h2.977v9.735h-2.977zm-.255-2.978a1.706 1.706 0 01.137-.675 1.739 1.739 0 01.372-.559 1.769 1.769 0 01.548-.372 1.639 1.639 0 01.666-.138 1.705 1.705 0 011.254.509 1.75 1.75 0 010 2.468 1.7 1.7 0 01-1.254.509 1.645 1.645 0 01-.666-.137 1.771 1.771 0 01-.548-.372 1.739 1.739 0 01-.372-.559 1.706 1.706 0 01-.137-.676" class="sbs-logo-2" transform="translate(-64.606 -68.577)"/><path id="Path_13" d="M859.9 626.159h-2.98v-9.735h2.88v1.117a2.064 2.064 0 01.51-.607 3.136 3.136 0 01.676-.421 3.784 3.784 0 01.764-.255 3.638 3.638 0 01.773-.088 3.8 3.8 0 011.587.3 3.088 3.088 0 011.107.832 3.372 3.372 0 01.646 1.234 5.361 5.361 0 01.206 1.508v6.111h-2.979v-5.6a1.875 1.875 0 00-.382-1.2 1.448 1.448 0 00-1.2-.48 1.5 1.5 0 00-1.175.48 1.764 1.764 0 00-.431 1.225z" class="sbs-logo-2" transform="translate(-70.579 -73.459)"/><path id="Path_14" d="M884.173 623.247a2.029 2.029 0 001.5-.578 2.133 2.133 0 00.578-1.577 2.319 2.319 0 00-.166-.892 2.1 2.1 0 00-.451-.686 1.9 1.9 0 00-.667-.431 2.218 2.218 0 00-1.586 0 1.994 1.994 0 00-.676.431 2.022 2.022 0 00-.461.686 2.31 2.31 0 00-.166.892 2.092 2.092 0 00.6 1.577 2.07 2.07 0 001.5.578m-2.449 2.8a2.069 2.069 0 00.705 1.166 2.092 2.092 0 001.391.46 2.548 2.548 0 001.763-.578 2.451 2.451 0 00.646-1.91v-.45a2.68 2.68 0 01-.911.744 3.5 3.5 0 01-1.694.352 4.386 4.386 0 01-3.232-1.361 4.619 4.619 0 01-.95-1.5 5.244 5.244 0 01-.01-3.7 4.8 4.8 0 01.931-1.518 4.338 4.338 0 013.261-1.42 4.246 4.246 0 011.048.117 3.6 3.6 0 01.794.294 2.281 2.281 0 01.549.392 1.644 1.644 0 01.313.411v-1.038h2.84v8.521a6.459 6.459 0 01-.3 2 4.673 4.673 0 01-.94 1.665 4.456 4.456 0 01-1.616 1.146 5.93 5.93 0 01-2.351.421 5.821 5.821 0 01-1.91-.294 4.907 4.907 0 01-1.469-.783 4.254 4.254 0 01-1-1.117 3.422 3.422 0 01-.48-1.273z" class="sbs-logo-2" transform="translate(-82.162 -73.545)"/><path id="Rectangle_5" d="M0 0h88.653v35.247H0z" class="sbs-logo-1" transform="translate(820.365 528.304)"/><path id="Path_15" d="M927.951 617.181h84.749v-31.345h-84.749zm88.653 3.9h-92.555v-39.147h92.551z" class="sbs-logo-2" transform="translate(-105.636 -55.581)"/><path id="Path_16" d="M959.566 611.881a2.513 2.513 0 00-.166-.539 1.777 1.777 0 00-.392-.568 2.193 2.193 0 00-.7-.45 2.664 2.664 0 00-1.058-.186 2.008 2.008 0 00-1.381.46 1.358 1.358 0 00-.519 1.029 1.193 1.193 0 00.323.852 1.888 1.888 0 001.048.48l1.861.353a5.769 5.769 0 011.743.578 4.826 4.826 0 011.254.95 3.718 3.718 0 01.764 1.224 4 4 0 01.255 1.421 4.072 4.072 0 01-.333 1.606 4.137 4.137 0 01-.989 1.4 5.076 5.076 0 01-1.616 1 5.9 5.9 0 01-2.194.382 6.608 6.608 0 01-2.488-.421 5.474 5.474 0 01-1.724-1.067 4.509 4.509 0 01-1.038-1.43 5.014 5.014 0 01-.431-1.528l2.84-.686a2.958 2.958 0 00.226.911 2.17 2.17 0 00.538.764 2.647 2.647 0 00.881.519 3.55 3.55 0 001.234.2 2.3 2.3 0 001.44-.4 1.263 1.263 0 00.519-1.047 1.156 1.156 0 00-.4-.892 2.251 2.251 0 00-1.087-.5l-1.9-.353a4.823 4.823 0 01-2.781-1.43 3.787 3.787 0 01-1-2.645 4.057 4.057 0 01.4-1.8 4.343 4.343 0 011.087-1.41 5.181 5.181 0 011.587-.921 5.444 5.444 0 011.9-.333 6.189 6.189 0 012.214.353 4.8 4.8 0 011.518.891 3.827 3.827 0 01.911 1.195 5.257 5.257 0 01.431 1.263z" class="sbs-logo-2" transform="translate(-120.122 -68.877)"/><path id="Path_17" d="M981.314 623.668a2.326 2.326 0 00.823-.147 1.939 1.939 0 00.7-.451 2.282 2.282 0 00.489-.754 3.181 3.181 0 000-2.145 2.151 2.151 0 00-.489-.754 2.006 2.006 0 00-.7-.441 2.326 2.326 0 00-.823-.147 2.349 2.349 0 00-.813.147 1.984 1.984 0 00-.705.441 2.144 2.144 0 00-.49.754 3.158 3.158 0 000 2.135 2.254 2.254 0 00.49.764 1.918 1.918 0 00.705.451 2.35 2.35 0 00.813.147m0-7.581a5.351 5.351 0 012.037.382 4.95 4.95 0 011.635 1.067 5.043 5.043 0 011.1 1.626 5.236 5.236 0 01.4 2.076 5.307 5.307 0 01-.4 2.086 5.013 5.013 0 01-1.1 1.635 4.958 4.958 0 01-1.635 1.068 5.626 5.626 0 01-4.074 0 4.917 4.917 0 01-2.732-2.7 5.308 5.308 0 01-.4-2.086 5.237 5.237 0 01.4-2.076 5.035 5.035 0 011.1-1.626 4.955 4.955 0 011.635-1.067 5.353 5.353 0 012.037-.382" class="sbs-logo-2" transform="translate(-132.84 -73.416)"/><path id="Path_18" d="M1004.744 618.829a2.387 2.387 0 00-.872.157 1.972 1.972 0 00-.7.47 2.263 2.263 0 00-.48.764 2.836 2.836 0 00-.176 1.038 2.624 2.624 0 00.186 1.028 2.419 2.419 0 00.49.754 1.95 1.95 0 00.715.47 2.453 2.453 0 00.882.157 1.955 1.955 0 001.361-.451 2.14 2.14 0 00.656-1l2.625.8a4.237 4.237 0 01-.539 1.254 4.336 4.336 0 01-.969 1.077 4.924 4.924 0 01-3.134 1.058 5.432 5.432 0 01-2.047-.382 5.007 5.007 0 01-2.772-2.693 5.117 5.117 0 01-.411-2.076 5.3 5.3 0 01.4-2.086 4.935 4.935 0 012.723-2.7 5.23 5.23 0 012.008-.382 5.4 5.4 0 011.8.284 4.737 4.737 0 011.391.754 4.1 4.1 0 01.96 1.087 4.508 4.508 0 01.529 1.263l-2.664.8a2.326 2.326 0 00-.235-.539 1.939 1.939 0 00-.392-.47 1.717 1.717 0 00-.568-.323 2.293 2.293 0 00-.764-.117" class="sbs-logo-2" transform="translate(-145.065 -73.416)"/><path id="Path_19" d="M1022.971 611.542h2.978v9.735h-2.978zm-.255-2.978a1.706 1.706 0 01.137-.675 1.739 1.739 0 01.372-.559 1.77 1.77 0 01.548-.372 1.638 1.638 0 01.666-.138 1.706 1.706 0 011.254.509 1.75 1.75 0 010 2.468 1.7 1.7 0 01-1.254.509 1.645 1.645 0 01-.666-.137 1.771 1.771 0 01-.548-.372 1.739 1.739 0 01-.372-.559 1.706 1.706 0 01-.137-.676" class="sbs-logo-2" transform="translate(-157.161 -68.577)"/><path id="Path_20" d="M1039.534 620.083a2.077 2.077 0 00-.127-.568 1.448 1.448 0 00-.343-.529 1.906 1.906 0 00-.6-.392 2.253 2.253 0 00-.891-.156 2.019 2.019 0 00-.823.156 2.074 2.074 0 00-.6.392 1.623 1.623 0 00-.372.529 1.72 1.72 0 00-.147.568zm2.7 3.232a4.292 4.292 0 01-.548 1.195 3.852 3.852 0 01-.94.989 4.583 4.583 0 01-1.322.667 5.416 5.416 0 01-1.675.245 5.322 5.322 0 01-1.92-.353 4.883 4.883 0 01-1.625-1.019 4.811 4.811 0 01-1.117-1.626 5.522 5.522 0 01-.411-2.194 5.4 5.4 0 01.4-2.125 4.939 4.939 0 011.077-1.616 5.144 5.144 0 016.954-.078 5 5 0 011.3 3.682q0 .314-.02.6a1.6 1.6 0 01-.039.323h-6.777a1.728 1.728 0 00.205.754 2.041 2.041 0 00.49.6 2.192 2.192 0 00.7.392 2.476 2.476 0 00.823.137 1.882 1.882 0 001.958-1.273z" class="sbs-logo-2" transform="translate(-162.364 -73.416)"/><path id="Path_21" d="M1058.659 613.6h1.9v2.6h-1.9v3.644a.936.936 0 00.294.813 1.34 1.34 0 00.783.205 3.122 3.122 0 00.441-.03 2.606 2.606 0 00.343-.068v2.468q-.1.039-.47.157a3.782 3.782 0 01-1.077.117 3.3 3.3 0 01-2.39-.832 3.052 3.052 0 01-.861-2.3V616.2H1054v-2.6h.49a1.389 1.389 0 001.136-.451 1.728 1.728 0 00.372-1.136v-1.254h2.664z" class="sbs-logo-2" transform="translate(-173.497 -70.633)"/><path id="Path_22" d="M1071.333 630.179l2.213-5.053-4.094-8.423h3.33l2.37 5.21 2.155-5.21h3.154l-5.994 13.476z" class="sbs-logo-2" transform="translate(-181.568 -73.738)"/></g></svg>
